<svg width="20" height="20" viewBox="0 0 20 20" fill="none" xmlns="http://www.w3.org/2000/svg">
<path d="M10.133 9.0584C10.0497 9.05007 9.94968 9.05007 9.85802 9.0584C7.87468 8.99173 6.29968 7.36673 6.29968 5.36673C6.29968 3.32507 7.94968 1.66673 9.99968 1.66673C12.0413 1.66673 13.6997 3.32507 13.6997 5.36673C13.6914 7.36673 12.1163 8.99173 10.133 9.0584Z" fill="#323F4B"/>
<path d="M5.96648 12.1334C3.94981 13.4834 3.94981 15.6834 5.96648 17.0251C8.25815 18.5584 12.0165 18.5584 14.3081 17.0251C16.3248 15.6751 16.3248 13.4751 14.3081 12.1334C12.0248 10.6084 8.26648 10.6084 5.96648 12.1334Z" fill="#323F4B"/>
</svg>
