<svg width="34" height="35" viewBox="0 0 34 35" fill="none" xmlns="http://www.w3.org/2000/svg">
<rect y="0.515625" width="34" height="34" rx="7" fill="#D0FBF0"/>
<path d="M21.7345 15.7832C21.3406 15.3482 20.7468 15.0954 19.9237 15.0072V14.5604C19.9237 13.7549 19.5827 12.9789 18.9831 12.438C18.3775 11.8853 17.5897 11.6266 16.7725 11.7031C15.3674 11.8383 14.1857 13.1964 14.1857 14.6662V15.0072C13.3626 15.0954 12.7688 15.3482 12.3749 15.7832C11.8046 16.4182 11.8222 17.2648 11.8869 17.8527L12.2985 21.1274C12.4219 22.2738 12.8864 23.4497 15.4144 23.4497H18.695C21.223 23.4497 21.6875 22.2738 21.811 21.1333L22.2225 17.8468C22.2872 17.2648 22.2989 16.4182 21.7345 15.7832ZM16.8548 12.5203C17.4427 12.4674 18.0013 12.6496 18.4363 13.0435C18.8655 13.4316 19.1065 13.9842 19.1065 14.5604V14.9719H15.0029V14.6662C15.0029 13.6197 15.8671 12.6143 16.8548 12.5203ZM14.95 18.2466H14.9441C14.6207 18.2466 14.3562 17.982 14.3562 17.6587C14.3562 17.3353 14.6207 17.0708 14.9441 17.0708C15.2733 17.0708 15.5379 17.3353 15.5379 17.6587C15.5379 17.982 15.2733 18.2466 14.95 18.2466ZM19.0654 18.2466H19.0595C18.7361 18.2466 18.4716 17.982 18.4716 17.6587C18.4716 17.3353 18.7361 17.0708 19.0595 17.0708C19.3887 17.0708 19.6533 17.3353 19.6533 17.6587C19.6533 17.982 19.3887 18.2466 19.0654 18.2466Z" fill="#0C8C6B"/>
</svg>
