<svg width="18" height="18" viewBox="0 0 18 18" fill="none" xmlns="http://www.w3.org/2000/svg">
<path d="M12.1875 16.875C12.9124 16.875 13.5 16.2874 13.5 15.5625C13.5 14.8376 12.9124 14.25 12.1875 14.25C11.4626 14.25 10.875 14.8376 10.875 15.5625C10.875 16.2874 11.4626 16.875 12.1875 16.875Z" fill="#323F4B"/>
<path d="M6.5625 16.875C7.28737 16.875 7.875 16.2874 7.875 15.5625C7.875 14.8376 7.28737 14.25 6.5625 14.25C5.83763 14.25 5.25 14.8376 5.25 15.5625C5.25 16.2874 5.83763 16.875 6.5625 16.875Z" fill="#323F4B"/>
<path d="M3.63 2.955L3.48 4.7925C3.45 5.145 3.7275 5.4375 4.08 5.4375H15.5625C15.8775 5.4375 16.14 5.1975 16.1625 4.8825C16.26 3.555 15.2475 2.475 13.92 2.475H4.7025C4.6275 2.145 4.4775 1.83 4.245 1.5675C3.87 1.17 3.345 0.9375 2.805 0.9375H1.5C1.1925 0.9375 0.9375 1.1925 0.9375 1.5C0.9375 1.8075 1.1925 2.0625 1.5 2.0625H2.805C3.0375 2.0625 3.255 2.16 3.4125 2.325C3.57 2.4975 3.645 2.7225 3.63 2.955Z" fill="#323F4B"/>
<path d="M15.188 6.75H4.31694C4.0193 6.75 3.77835 6.98273 3.75 7.28091L4.31694 10.5682C4.55072 12.0227 5.11057 12.75 6.3224 12.75H13.4091C14.4722 12.75 14.8265 12.0227 15.188 10.5682L15.7478 7.36818C15.7762 7.03364 15.5211 6.75 15.188 6.75Z" fill="#323F4B"/>
</svg>
