<svg width="20" height="21" viewBox="0 0 20 21" fill="none" xmlns="http://www.w3.org/2000/svg">
<path d="M7.35682 2.7583L7.14253 3.2238H4.28539C3.7586 3.2238 3.33301 3.68929 3.33301 4.26546C3.33301 4.84163 3.7586 5.30713 4.28539 5.30713H15.714C16.2407 5.30713 16.6663 4.84163 16.6663 4.26546C16.6663 3.68929 16.2407 3.2238 15.714 3.2238H12.8568L12.6425 2.7583C12.4818 2.40348 12.1515 2.18213 11.7913 2.18213H8.20801C7.84789 2.18213 7.51753 2.40348 7.35682 2.7583ZM15.714 6.3488H4.28539L4.91634 17.384C4.96396 18.2075 5.58896 18.8488 6.34194 18.8488H13.6574C14.4104 18.8488 15.0354 18.2075 15.083 17.384L15.714 6.3488Z" fill="#E02B2B"/>
</svg>
