<svg width="37" height="24" viewBox="0 0 37 24" fill="none" xmlns="http://www.w3.org/2000/svg">
<path d="M21.3574 3.51999C21.3576 3.99173 21.2484 4.45709 21.0384 4.87953C20.8284 5.30197 20.5234 5.67 20.1473 5.95471C20.0776 6.00879 20.0043 6.05927 19.9298 6.10613C19.9298 5.99798 19.9298 5.88982 19.9298 5.78527V4.62679V4.60035C19.9339 4.16825 19.7681 3.75182 19.4683 3.44067C19.1728 3.13767 18.7704 2.96236 18.3473 2.95225C17.9242 2.94215 17.5139 3.09805 17.2042 3.38659C17.0373 3.54263 16.9039 3.73105 16.8121 3.94035C16.7204 4.14965 16.6722 4.37544 16.6706 4.60396L16.6791 6.11094C16.2286 5.8285 15.8597 5.43345 15.6087 4.9648C15.3577 4.49615 15.2332 3.97013 15.2477 3.43869C15.2622 2.90724 15.415 2.38877 15.6912 1.93447C15.9673 1.48018 16.3572 1.10578 16.8223 0.848265C17.2874 0.590747 17.8117 0.459019 18.3433 0.466091C18.8749 0.473163 19.3954 0.618791 19.8535 0.88859C20.3116 1.15839 20.6914 1.54303 20.9553 2.00451C21.2193 2.46599 21.3583 2.98835 21.3586 3.51999H21.3574Z" fill="black"/>
<path d="M16.6777 6.11084V6.11925H16.6946L16.6777 6.11084Z" fill="black"/>
<path d="M27.2217 9.80136C27.0714 9.64618 26.8913 9.52289 26.6923 9.43886C26.4933 9.35482 26.2793 9.31176 26.0633 9.31225C25.69 9.31328 25.3285 9.44271 25.0394 9.67878C24.9695 9.4201 24.8367 9.18277 24.6527 8.988C24.4687 8.79324 24.2393 8.64711 23.985 8.56271C23.7307 8.4783 23.4594 8.45824 23.1955 8.50431C22.9315 8.55039 22.6831 8.66117 22.4725 8.82675C22.4185 8.55931 22.2979 8.30982 22.1219 8.10134C21.9459 7.89286 21.7202 7.73213 21.4656 7.63401C21.2111 7.53589 20.9359 7.50356 20.6655 7.54001C20.3951 7.57645 20.1383 7.6805 19.9188 7.84252V7.19117V7.15753C19.9188 7.0001 19.9188 6.83065 19.9188 6.66V6.50258C19.9188 6.37038 19.9188 6.23699 19.9188 6.106C19.9188 5.99784 19.9188 5.88969 19.9188 5.78514V4.62666V4.60022C19.9257 4.16964 19.764 3.75341 19.4681 3.44054C19.1726 3.13754 18.7702 2.96223 18.3471 2.95212C17.924 2.94202 17.5137 3.09791 17.204 3.38646C17.0371 3.5425 16.9037 3.73092 16.8119 3.94022C16.7202 4.14952 16.672 4.37531 16.6704 4.60382L16.6789 6.11081L16.6957 6.12162H16.6789V6.66721V7.19598L16.7221 15.059L16.2414 13.4967L16.221 13.4378C16.0616 13.0422 15.7536 12.7247 15.363 12.5533C15.1659 12.4664 14.9535 12.42 14.7382 12.4167C14.5229 12.4134 14.3091 12.4533 14.1095 12.5341C13.9092 12.6147 13.7266 12.7339 13.5724 12.8851C13.4181 13.0362 13.2952 13.2163 13.2106 13.415C13.0592 13.7755 13.076 14.1793 13.2635 14.666L14.3571 17.71V17.7196C14.8311 18.9994 15.5462 20.1764 16.4637 21.1867C17.0353 21.8092 17.4132 22.5846 17.5513 23.4183L17.6475 23.9999H26.5584L26.5704 21.3813C26.5702 21.3466 26.5807 21.3126 26.6004 21.284L26.6089 21.2708C27.2913 20.2587 27.6573 19.0665 27.6604 17.8458L27.694 10.9731C27.6962 10.7563 27.6556 10.5412 27.5746 10.3402C27.4935 10.1391 27.3736 9.95603 27.2217 9.80136ZM27.1208 17.8422C27.1163 18.9536 26.7817 20.0386 26.1594 20.9595L26.1498 20.974C26.0707 21.0932 26.0288 21.2334 26.0296 21.3765L26.0188 23.4519H18.1077L18.0861 23.3318C17.9317 22.3925 17.5066 21.5188 16.8627 20.8177C15.9962 19.8602 15.3207 18.7458 14.8726 17.5346L13.7779 14.4833V14.4725C13.6445 14.1264 13.624 13.8524 13.7166 13.6313C13.8306 13.3624 14.0467 13.1497 14.3174 13.0401C14.5845 12.9335 14.8828 12.9369 15.1473 13.0494C15.4119 13.162 15.6211 13.3746 15.7295 13.6409L15.7379 13.6662L16.5022 16.1562C16.5314 16.2467 16.592 16.3239 16.6731 16.3737C16.7542 16.4235 16.8505 16.4427 16.9444 16.4278C17.0384 16.4091 17.123 16.3584 17.1837 16.2843C17.2444 16.2102 17.2775 16.1174 17.2773 16.0216L17.2293 7.38706V6.88713V6.38V6.18291L17.2208 4.60503C17.2224 4.45166 17.2552 4.30023 17.3171 4.15994C17.3791 4.01965 17.469 3.89346 17.5814 3.78904C17.7829 3.6017 18.0477 3.4974 18.3228 3.49702C18.4678 3.4968 18.6114 3.52573 18.7449 3.58209C18.8785 3.63845 18.9994 3.72109 19.1004 3.8251C19.3035 4.03277 19.4166 4.31212 19.4152 4.60262L19.4056 6.37639V6.43888V6.88473V7.38586V8.17901L19.3479 13.3886C19.3481 13.4885 19.3869 13.5845 19.4561 13.6565L19.4633 13.6638C19.533 13.732 19.6265 13.7703 19.7241 13.7707C19.8256 13.7688 19.9223 13.7273 19.9935 13.6549C20.0647 13.5826 20.1047 13.4853 20.105 13.3838L20.1291 8.36768L20.1843 8.32081C20.3389 8.19316 20.5257 8.11065 20.7241 8.08238C20.9226 8.05411 21.125 8.08117 21.309 8.16058C21.4931 8.23999 21.6516 8.36867 21.7672 8.53244C21.8828 8.69621 21.9509 8.88871 21.9641 9.08872V9.10074L21.9425 13.3705C21.9415 13.4214 21.9506 13.4719 21.9694 13.5192C21.9882 13.5664 22.0162 13.6094 22.0518 13.6457C22.1121 13.7075 22.192 13.7462 22.2778 13.7551H22.3174C22.4189 13.7541 22.5158 13.713 22.587 13.6407C22.6582 13.5684 22.6978 13.4708 22.6972 13.3693L22.7176 9.31946L22.7729 9.275C22.9235 9.14689 23.1064 9.06252 23.3016 9.03108C23.4968 8.99964 23.697 9.02231 23.8802 9.09665C24.0634 9.17099 24.2228 9.29413 24.3409 9.4527C24.4591 9.61127 24.5315 9.7992 24.5503 9.99604V10.0057L24.5407 13.3393C24.5401 13.4386 24.579 13.5342 24.6488 13.6049C24.6831 13.6403 24.7242 13.6684 24.7696 13.6876C24.8151 13.7068 24.8639 13.7167 24.9132 13.7166C24.9633 13.717 25.0129 13.7074 25.0593 13.6884C25.1056 13.6695 25.1478 13.6416 25.1833 13.6063C25.2188 13.571 25.247 13.529 25.2662 13.4828C25.2854 13.4365 25.2954 13.387 25.2953 13.3369L25.311 10.1559L25.3651 10.1114C25.5613 9.94636 25.8092 9.85536 26.0657 9.85423C26.21 9.8545 26.3529 9.88367 26.4858 9.94001C26.6187 9.99636 26.739 10.0787 26.8396 10.1823C26.9425 10.2855 27.0238 10.4081 27.0787 10.5431C27.1335 10.678 27.1609 10.8226 27.1593 10.9682L27.1208 17.8422Z" fill="black"/>
<g opacity="0.4">
<path d="M6.61914 3.26513L10.0838 0L10.9394 0.805167L8.32922 3.26513L10.9394 5.7239L10.0838 6.52906L6.61914 3.26513Z" fill="black"/>
</g>
<g opacity="0.2">
<path d="M9.92749 3.26513L13.3933 0L14.249 0.805167L11.6388 3.26513L14.249 5.7239L13.3933 6.52906L9.92749 3.26513Z" fill="black"/>
</g>
<path d="M0 3.26513L3.46582 0L4.32026 0.805167L1.71008 3.26513L4.32026 5.7239L3.46582 6.52906L0 3.26513Z" fill="black"/>
<g opacity="0.6">
<path d="M3.30957 3.26513L6.77419 0L7.62983 0.805167L5.01965 3.26513L7.62983 5.7239L6.77419 6.52906L3.30957 3.26513Z" fill="black"/>
</g>
<g opacity="0.4">
<path d="M29.9824 3.26513L26.5165 6.52906L25.6609 5.7239L28.2711 3.26513L25.6609 0.805167L26.5165 0L29.9824 3.26513Z" fill="black"/>
</g>
<g opacity="0.2">
<path d="M26.6726 3.26513L23.2067 6.52906L22.3523 5.7239L24.9625 3.26513L22.3523 0.805167L23.2067 0L26.6726 3.26513Z" fill="black"/>
</g>
<path d="M36.6003 3.26513L33.1357 6.52906L32.28 5.7239L34.8902 3.26513L32.28 0.805167L33.1357 0L36.6003 3.26513Z" fill="black"/>
<g opacity="0.6">
<path d="M33.2919 3.26513L29.8261 6.52906L28.9705 5.7239L31.5806 3.26513L28.9705 0.805167L29.8261 0L33.2919 3.26513Z" fill="black"/>
</g>
</svg>
