<svg width="61" height="60" viewBox="0 0 61 60" fill="none" xmlns="http://www.w3.org/2000/svg">
<path d="M30.5 60C47 60 60.5 46.5 60.5 30C60.5 13.5 47 0 30.5 0C14 0 0.5 13.5 0.5 30C0.5 46.5 14 60 30.5 60Z" fill="#D0FBF0"/>
<path d="M30.5002 51.8182C42.5002 51.8182 52.3184 42.0001 52.3184 30.0001C52.3184 18.0001 42.5002 8.18188 30.5002 8.18188C18.5002 8.18188 8.68201 18.0001 8.68201 30.0001C8.68201 42.0001 18.5002 51.8182 30.5002 51.8182Z" fill="#0C8C6B"/>
<path d="M22.2727 26.3887C22.112 26.5253 21.9619 26.6741 21.8239 26.8339V25.982C21.8239 25.0396 22.4012 24.2026 23.2778 23.8708C23.2779 23.8707 23.278 23.8707 23.2781 23.8707L30.944 20.9742C31.1019 20.9172 31.2653 20.8894 31.4176 20.8894C32.1229 20.8894 32.7528 21.4632 32.7528 22.2246V25.3951H32.304V22.2246C32.304 21.9289 32.1664 21.6965 31.9876 21.5486C31.8228 21.412 31.614 21.3383 31.4176 21.3383C31.303 21.3383 31.1937 21.3611 31.0925 21.4008L23.4367 24.2875L23.4365 24.2875C22.7259 24.5557 22.2727 25.2277 22.2727 25.982V26.3887Z" fill="white" stroke="white"/>
<path d="M39.6758 32.4148V33.3807C39.6758 33.6415 39.473 33.854 39.2025 33.8637H37.7923C37.2804 33.8637 36.8167 33.487 36.7781 32.9847C36.7491 32.6853 36.865 32.4052 37.0582 32.212C37.2321 32.0285 37.4736 31.9319 37.7343 31.9319H39.1929C39.473 31.9415 39.6758 32.154 39.6758 32.4148Z" fill="white"/>
<path d="M37.725 30.9177H38.7102C39.2415 30.9177 39.6761 30.4831 39.6761 29.9518V29.5268C39.6761 27.5274 38.0437 25.895 36.0443 25.895H24.9557C24.1346 25.895 23.3812 26.1655 22.7727 26.6291C21.8937 27.2859 21.3239 28.3388 21.3239 29.5268V36.0274C21.3239 38.0268 22.9562 39.6592 24.9557 39.6592H36.0443C38.0437 39.6592 39.6761 38.0268 39.6761 36.0274V35.8439C39.6761 35.3126 39.2415 34.878 38.7102 34.878H37.8699C36.9426 34.878 36.054 34.3081 35.8125 33.4098C35.6096 32.6757 35.8511 31.9706 36.3341 31.4973C36.6915 31.1302 37.1841 30.9177 37.725 30.9177ZM32.4318 30.7246H25.6704C25.2744 30.7246 24.946 30.3962 24.946 30.0001C24.946 29.6041 25.2744 29.2757 25.6704 29.2757H32.4318C32.8278 29.2757 33.1562 29.6041 33.1562 30.0001C33.1562 30.3962 32.8278 30.7246 32.4318 30.7246Z" fill="white"/>
</svg>
