<svg width="640" height="403" viewBox="0 0 640 403" fill="none" xmlns="http://www.w3.org/2000/svg">
<g clip-path="url(#clip0_95_12433)">
<path d="M428.255 388.408C427.885 386.971 427.18 385.643 426.199 384.531C425.217 383.418 423.986 382.554 422.607 382.008C421.194 381.54 419.656 381.631 418.308 382.262C416.96 382.893 415.905 384.016 415.359 385.4C412.767 383.24 408.815 384.952 406.735 387.608C403.375 391.896 405.983 398.92 406.543 399.368C407.241 399.698 408.014 399.836 408.783 399.768L433.903 399.64C436.185 399.492 438.444 399.095 440.639 398.456C444.927 396.744 447.839 389.368 445.087 385.656C443.199 383.128 439.503 382.6 436.511 383.544C433.457 384.611 430.649 386.281 428.255 388.456" fill="#6CDD6C"/>
<path d="M408.416 400.536C407.572 400.585 406.734 400.372 406.016 399.928C405.024 399.128 402.528 391.56 406.016 387.016C407.448 385.14 409.554 383.895 411.888 383.544C412.932 383.424 413.989 383.613 414.928 384.088C415.508 383.079 416.37 382.262 417.408 381.736C419.074 380.881 421.008 380.708 422.8 381.256C424.118 381.74 425.316 382.504 426.31 383.496C427.304 384.487 428.072 385.683 428.56 387C430.822 385.118 433.408 383.665 436.192 382.712C439.184 381.752 443.44 382.088 445.68 385.112C446.347 386.141 446.77 387.309 446.914 388.527C447.058 389.745 446.921 390.98 446.512 392.136C446.141 393.642 445.447 395.049 444.477 396.259C443.507 397.47 442.285 398.454 440.896 399.144C438.618 399.812 436.273 400.225 433.904 400.376L408.72 400.52L408.416 400.536ZM412.592 385.176C412.437 385.16 412.282 385.16 412.128 385.176C410.219 385.456 408.496 386.472 407.328 388.008C404.384 391.768 406.576 398.04 407.056 398.68C407.577 398.82 408.117 398.874 408.656 398.84L433.824 398.696C435.991 398.546 438.137 398.165 440.224 397.56C441.374 396.965 442.384 396.13 443.184 395.111C443.985 394.093 444.558 392.915 444.864 391.656C445.201 390.744 445.325 389.767 445.228 388.799C445.131 387.832 444.815 386.899 444.304 386.072C442.544 383.704 439.104 383.48 436.656 384.264C433.691 385.305 430.969 386.938 428.656 389.064C428.554 389.157 428.429 389.222 428.295 389.253C428.16 389.284 428.02 389.279 427.888 389.24C427.753 389.201 427.63 389.13 427.529 389.032C427.429 388.935 427.354 388.813 427.312 388.68C426.984 387.374 426.351 386.164 425.463 385.151C424.576 384.138 423.46 383.352 422.208 382.856C420.839 382.445 419.365 382.583 418.096 383.24C417.606 383.475 417.169 383.806 416.809 384.212C416.449 384.619 416.174 385.093 416 385.608C415.959 385.736 415.889 385.852 415.794 385.946C415.7 386.041 415.583 386.112 415.456 386.152C415.324 386.19 415.186 386.196 415.052 386.168C414.918 386.14 414.793 386.08 414.688 385.992C414.103 385.487 413.363 385.199 412.592 385.176Z" fill="#50AA50"/>
<path d="M401.824 387.448C401.1 388.829 400.805 390.394 400.976 391.944C401.056 392.728 402.304 392.744 402.224 391.944C402.058 390.62 402.292 389.277 402.896 388.088C403.264 387.368 402.192 386.744 401.824 387.448Z" fill="#50AA50"/>
<path d="M398.191 388.456C397.807 389.839 397.774 391.297 398.095 392.696C398.255 393.48 399.455 393.144 399.295 392.36C399.03 391.181 399.063 389.955 399.391 388.792C399.426 388.636 399.399 388.473 399.317 388.336C399.235 388.199 399.104 388.099 398.95 388.056C398.796 388.013 398.632 388.03 398.491 388.105C398.35 388.179 398.242 388.305 398.191 388.456Z" fill="#50AA50"/>
<path d="M405.184 385.928C405.349 385.928 405.508 385.862 405.625 385.745C405.742 385.628 405.808 385.469 405.808 385.304C405.808 385.138 405.742 384.979 405.625 384.862C405.508 384.745 405.349 384.68 405.184 384.68C405.018 384.68 404.859 384.745 404.742 384.862C404.625 384.979 404.56 385.138 404.56 385.304C404.56 385.469 404.625 385.628 404.742 385.745C404.859 385.862 405.018 385.928 405.184 385.928Z" fill="#50AA50"/>
<path d="M408.703 391.944V393.048C408.703 393.213 408.769 393.372 408.886 393.489C409.003 393.606 409.162 393.672 409.327 393.672C409.493 393.672 409.651 393.606 409.768 393.489C409.885 393.372 409.951 393.213 409.951 393.048V391.944C409.951 391.778 409.885 391.62 409.768 391.503C409.651 391.386 409.493 391.32 409.327 391.32C409.162 391.32 409.003 391.386 408.886 391.503C408.769 391.62 408.703 391.778 408.703 391.944Z" fill="#50AA50"/>
<path d="M429.728 393.88V394.44C429.752 394.586 429.827 394.719 429.94 394.815C430.053 394.911 430.196 394.964 430.344 394.964C430.492 394.964 430.636 394.911 430.749 394.815C430.862 394.719 430.937 394.586 430.96 394.44V393.88C430.937 393.734 430.862 393.6 430.749 393.504C430.636 393.408 430.492 393.355 430.344 393.355C430.196 393.355 430.053 393.408 429.94 393.504C429.827 393.6 429.752 393.734 429.728 393.88Z" fill="#50AA50"/>
<path d="M427.424 392.376L427.696 392.664C427.815 392.766 427.969 392.82 428.126 392.814C428.283 392.808 428.433 392.743 428.544 392.632C428.655 392.521 428.72 392.371 428.726 392.214C428.732 392.057 428.678 391.903 428.576 391.784L428.304 391.496C427.728 390.936 426.848 391.816 427.424 392.376Z" fill="#50AA50"/>
<path d="M73.7916 364.952H31.6636C31.2244 364.952 30.8032 364.777 30.4927 364.467C30.1821 364.156 30.0076 363.735 30.0076 363.296C30.0076 362.856 30.1821 362.435 30.4927 362.125C30.8032 361.814 31.2244 361.64 31.6636 361.64H73.7916C74.2308 361.64 74.652 361.814 74.9626 362.125C75.2732 362.435 75.4476 362.856 75.4476 363.296C75.4476 363.735 75.2732 364.156 74.9626 364.467C74.652 364.777 74.2308 364.952 73.7916 364.952Z" fill="#405B91"/>
<path d="M444.8 218.856H443.6C443.6 218.376 443.41 217.916 443.071 217.577C442.732 217.238 442.272 217.048 441.792 217.048C441.313 217.048 440.853 217.238 440.514 217.577C440.175 217.916 439.984 218.376 439.984 218.856H438.784C438.784 218.058 439.101 217.293 439.665 216.729C440.23 216.165 440.995 215.848 441.792 215.848C442.59 215.848 443.355 216.165 443.919 216.729C444.484 217.293 444.8 218.058 444.8 218.856Z" fill="white"/>
<path d="M449.04 148.792H447.84C447.84 148.312 447.649 147.852 447.31 147.513C446.971 147.174 446.511 146.984 446.032 146.984C445.552 146.984 445.092 147.174 444.753 147.513C444.414 147.852 444.224 148.312 444.224 148.792H443.024C443.024 147.994 443.341 147.229 443.905 146.665C444.469 146.101 445.234 145.784 446.032 145.784C446.829 145.784 447.595 146.101 448.159 146.665C448.723 147.229 449.04 147.994 449.04 148.792Z" fill="white"/>
<path d="M299.2 392.232H242.016L242.976 389.928C246.736 381.032 247.12 373.4 246.56 364.696L246.4 363L294.688 362.856V364.456C294.991 373.109 296.284 381.698 298.544 390.056L299.2 392.232ZM246.896 388.92H294.736C292.923 381.433 291.803 373.796 291.392 366.104L249.904 366.232C250.555 373.918 249.552 381.655 246.96 388.92H246.896Z" fill="#415B91"/>
<path d="M225.6 366.072C182.128 366.072 146.912 365.848 145.376 365.288C141.648 363.96 136.784 358.808 136.72 355.144C136.576 347.224 136.24 336.44 135.84 323.944C134.656 286.296 133.024 234.712 135.136 206.168C135.309 203.676 136.418 201.341 138.24 199.632C140.061 197.923 142.462 196.966 144.96 196.952H145.12L395.728 197.32C398.288 197.377 400.726 198.424 402.531 200.241C404.336 202.058 405.367 204.503 405.408 207.064C405.6 215.4 405.872 223.928 406.144 232.552C407.296 268.712 408.48 306.152 404.464 341.464C404.32 342.856 404.24 344.392 404.176 345.992C403.84 353.4 403.408 362.632 393.856 364.52C389.136 365.448 296.384 366.072 225.6 366.072ZM144.976 199.672C143.147 199.684 141.391 200.386 140.059 201.638C138.727 202.89 137.917 204.6 137.792 206.424C135.696 234.824 137.328 286.312 138.512 323.912C138.912 336.408 139.248 347.208 139.392 355.144C139.392 357.464 143.296 361.768 146.272 362.824C151.6 363.912 387.216 363.112 393.344 361.96C400.848 360.472 401.184 353.08 401.504 345.96C401.504 344.36 401.664 342.76 401.824 341.256C405.808 306.056 404.624 268.792 403.424 232.744C403.152 224.088 402.88 215.576 402.688 207.224C402.663 205.355 401.917 203.568 400.605 202.238C399.292 200.908 397.516 200.137 395.648 200.088L145.056 199.72L144.976 199.672Z" fill="#415B91"/>
<path fill-rule="evenodd" clip-rule="evenodd" d="M388.671 205.96L152.543 205.64C150.599 205.521 148.681 206.14 147.174 207.374C145.667 208.609 144.682 210.366 144.415 212.296C141.775 243.896 145.375 309.896 145.919 336.376C145.919 338.968 150.191 342.776 153.231 343.8C156.815 344.936 381.199 344.072 386.687 343.128C396.527 341.4 394.847 331.32 395.679 324.856C400.351 288.36 397.487 248.68 396.559 212.984C396.4 211.023 395.491 209.2 394.022 207.892C392.553 206.584 390.637 205.892 388.671 205.96Z" fill="#B6D0FB"/>
<path d="M319.76 401.4H221.504C219.887 401.4 218.336 400.758 217.193 399.615C216.05 398.471 215.408 396.921 215.408 395.304C215.408 393.687 216.05 392.137 217.193 390.993C218.336 389.85 219.887 389.208 221.504 389.208H319.76C321.376 389.208 322.927 389.85 324.07 390.993C325.213 392.137 325.856 393.687 325.856 395.304C325.856 396.921 325.213 398.471 324.07 399.615C322.927 400.758 321.376 401.4 319.76 401.4ZM221.504 391.8C220.634 391.859 219.819 392.247 219.224 392.884C218.629 393.521 218.298 394.36 218.298 395.232C218.298 396.104 218.629 396.943 219.224 397.58C219.819 398.217 220.634 398.605 221.504 398.664H319.76C320.629 398.605 321.444 398.217 322.039 397.58C322.634 396.943 322.965 396.104 322.965 395.232C322.965 394.36 322.634 393.521 322.039 392.884C321.444 392.247 320.629 391.859 319.76 391.8H221.504Z" fill="#415B91"/>
<path d="M153.087 356.776C157.503 356.776 157.503 349.928 153.087 349.928C148.671 349.928 148.671 356.776 153.087 356.776Z" fill="#415B91"/>
<path d="M166.912 356.776C171.328 356.776 171.328 349.928 166.912 349.928C162.496 349.928 162.496 356.776 166.912 356.776Z" fill="#415B91"/>
<path d="M180.8 356.776C185.216 356.776 185.216 349.928 180.8 349.928C176.384 349.928 176.384 356.776 180.8 356.776Z" fill="#415B91"/>
<path d="M270.624 203.912C271.048 203.912 271.455 203.743 271.755 203.443C272.055 203.143 272.224 202.736 272.224 202.312C272.224 201.888 272.055 201.481 271.755 201.181C271.455 200.88 271.048 200.712 270.624 200.712C270.199 200.712 269.792 200.88 269.492 201.181C269.192 201.481 269.024 201.888 269.024 202.312C269.024 202.736 269.192 203.143 269.492 203.443C269.792 203.743 270.199 203.912 270.624 203.912Z" fill="#415B91"/>
<path d="M547.712 394.808H513.856L526.88 352.04H534.688L547.712 394.808Z" fill="#B6D0FB"/>
<path d="M550.496 394.808H511.056V399.688H550.496V394.808Z" fill="#B6D0FB"/>
<path d="M517.104 384.12L513.856 394.808H547.712L544.448 384.12H517.104Z" fill="#415B91"/>
<path d="M520.367 373.416H541.199L537.935 362.728H523.615L520.367 373.416Z" fill="#415B91"/>
<path d="M561.6 399.416H569.104V370.328H607.664V399.416H615.184V370.328H623.184V347.112H616.784V344.952H605.84V347.112H571.632V344.952H560.688V347.112H553.728V370.328H561.6V399.416ZM620.704 349.528V349.624L616 367.912H607.744L612.4 349.528H620.704ZM599.168 367.912H590.896L595.552 349.528H603.824L599.168 367.912ZM582.24 367.912H573.984L578.64 349.528H586.896L582.24 367.912ZM561.6 349.528H569.872L565.216 367.912H556.944L561.6 349.528Z" fill="#B6D0FB"/>
<path d="M192.08 115.08L194.32 112.824C194.527 112.609 194.643 112.322 194.643 112.024C194.643 111.726 194.527 111.439 194.32 111.224L192.368 109.272C192.133 109.031 191.981 108.721 191.932 108.388C191.883 108.055 191.94 107.715 192.096 107.416L193.696 103.544C193.794 103.22 193.993 102.935 194.263 102.731C194.533 102.527 194.862 102.414 195.2 102.408H197.968C198.275 102.408 198.57 102.287 198.789 102.072C199.007 101.856 199.132 101.563 199.136 101.256V98.056C199.132 97.749 199.007 97.456 198.789 97.2405C198.57 97.0249 198.275 96.904 197.968 96.904H195.2C194.862 96.8982 194.533 96.7851 194.263 96.581C193.993 96.3768 193.794 96.0922 193.696 95.768L192.096 91.896C191.94 91.5974 191.883 91.2572 191.932 90.924C191.981 90.5907 192.133 90.2814 192.368 90.04L194.32 88.088C194.527 87.8733 194.643 87.5865 194.643 87.288C194.643 86.9896 194.527 86.7028 194.32 86.488L192.08 84.232C191.864 84.0284 191.578 83.915 191.28 83.915C190.983 83.915 190.697 84.0284 190.48 84.232L188.528 86.184C188.287 86.419 187.978 86.5717 187.644 86.6205C187.311 86.6694 186.971 86.6118 186.672 86.456L182.8 84.856C182.479 84.7551 182.198 84.5553 181.997 84.2853C181.796 84.0153 181.685 83.6887 181.68 83.352V80.584C181.68 80.2743 181.557 79.9772 181.338 79.7581C181.119 79.5391 180.822 79.416 180.512 79.416H177.312C177.002 79.416 176.705 79.5391 176.486 79.7581C176.267 79.9772 176.144 80.2743 176.144 80.584V83.352C176.14 83.6887 176.029 84.0153 175.828 84.2853C175.627 84.5553 175.345 84.7551 175.024 84.856L171.136 86.456C170.838 86.6118 170.497 86.6694 170.164 86.6205C169.831 86.5717 169.522 86.419 169.28 86.184L167.328 84.232C167.113 84.0248 166.827 83.9089 166.528 83.9089C166.23 83.9089 165.943 84.0248 165.728 84.232L163.472 86.488C163.265 86.7028 163.149 86.9896 163.149 87.288C163.149 87.5865 163.265 87.8733 163.472 88.088L165.424 90.04C165.659 90.2814 165.812 90.5907 165.861 90.924C165.91 91.2572 165.852 91.5974 165.696 91.896L164.096 95.768C163.998 96.0922 163.8 96.3768 163.529 96.581C163.259 96.7851 162.931 96.8982 162.592 96.904H159.824C159.517 96.904 159.223 97.0249 159.004 97.2405C158.785 97.456 158.66 97.749 158.656 98.056V101.256C158.66 101.563 158.785 101.856 159.004 102.072C159.223 102.287 159.517 102.408 159.824 102.408H162.592C162.931 102.414 163.259 102.527 163.529 102.731C163.8 102.935 163.998 103.22 164.096 103.544L165.696 107.416C165.852 107.715 165.91 108.055 165.861 108.388C165.812 108.721 165.659 109.031 165.424 109.272L163.472 111.224C163.265 111.439 163.149 111.726 163.149 112.024C163.149 112.322 163.265 112.609 163.472 112.824L165.728 115.08C165.943 115.287 166.23 115.403 166.528 115.403C166.827 115.403 167.113 115.287 167.328 115.08L169.28 113.128C169.522 112.893 169.831 112.74 170.164 112.692C170.497 112.643 170.838 112.7 171.136 112.856L175.024 114.456C175.345 114.557 175.627 114.757 175.828 115.027C176.029 115.297 176.14 115.623 176.144 115.96V118.728C176.144 119.038 176.267 119.335 176.486 119.554C176.705 119.773 177.002 119.896 177.312 119.896H180.512C180.822 119.896 181.119 119.773 181.338 119.554C181.557 119.335 181.68 119.038 181.68 118.728V115.96C181.685 115.623 181.796 115.297 181.997 115.027C182.198 114.757 182.479 114.557 182.8 114.456L186.672 112.856C186.971 112.7 187.311 112.643 187.644 112.692C187.978 112.74 188.287 112.893 188.528 113.128L190.48 115.08C190.697 115.284 190.983 115.397 191.28 115.397C191.578 115.397 191.864 115.284 192.08 115.08ZM178.848 108.92C177.007 108.92 175.206 108.374 173.675 107.351C172.143 106.327 170.95 104.873 170.245 103.172C169.54 101.47 169.356 99.5977 169.715 97.7913C170.074 95.985 170.961 94.3257 172.264 93.0234C173.566 91.7211 175.225 90.8343 177.032 90.475C178.838 90.1156 180.71 90.3001 182.412 91.0049C184.113 91.7097 185.568 92.9032 186.591 94.4345C187.614 95.9659 188.16 97.7663 188.16 99.608C188.156 102.076 187.174 104.443 185.428 106.188C183.683 107.933 181.317 108.916 178.848 108.92Z" fill="#B6D0FB"/>
<path d="M213.6 123.88L213.04 121.992C213.012 121.9 212.967 121.814 212.906 121.74C212.845 121.666 212.77 121.605 212.685 121.56C212.6 121.515 212.507 121.488 212.411 121.48C212.315 121.471 212.219 121.482 212.128 121.512L210.528 122.008C210.325 122.058 210.111 122.047 209.915 121.976C209.718 121.904 209.547 121.776 209.424 121.608L207.824 119.592C207.688 119.44 207.599 119.252 207.567 119.05C207.536 118.848 207.564 118.642 207.648 118.456L208.464 116.936C208.555 116.768 208.576 116.571 208.522 116.388C208.468 116.205 208.343 116.051 208.176 115.96L206.4 115C206.316 114.956 206.224 114.928 206.129 114.919C206.034 114.91 205.939 114.921 205.848 114.949C205.758 114.977 205.673 115.023 205.6 115.084C205.528 115.145 205.467 115.22 205.424 115.304L204.608 116.904C204.498 117.078 204.339 117.217 204.151 117.302C203.964 117.387 203.755 117.416 203.552 117.384L200.976 117.128C200.767 117.121 200.566 117.052 200.398 116.929C200.23 116.806 200.102 116.636 200.032 116.44L199.536 114.84C199.48 114.658 199.355 114.505 199.187 114.415C199.019 114.325 198.822 114.305 198.64 114.36L196.752 114.936C196.66 114.962 196.575 115.005 196.501 115.065C196.427 115.124 196.365 115.198 196.32 115.282C196.276 115.365 196.248 115.457 196.24 115.552C196.231 115.646 196.242 115.742 196.272 115.832L196.768 117.432C196.819 117.633 196.808 117.844 196.736 118.038C196.665 118.232 196.536 118.4 196.368 118.52L194.352 120.12C194.203 120.262 194.014 120.354 193.811 120.386C193.608 120.417 193.4 120.386 193.216 120.296L191.696 119.48C191.612 119.436 191.52 119.408 191.425 119.399C191.33 119.39 191.235 119.401 191.144 119.429C191.054 119.457 190.969 119.503 190.896 119.564C190.824 119.625 190.763 119.7 190.72 119.784L189.776 121.512C189.689 121.685 189.673 121.884 189.729 122.069C189.786 122.254 189.911 122.409 190.08 122.504L191.6 123.32C191.776 123.424 191.916 123.579 192.002 123.765C192.087 123.951 192.115 124.158 192.08 124.36L191.824 126.952C191.816 127.158 191.746 127.357 191.623 127.522C191.5 127.688 191.33 127.813 191.136 127.88L189.536 128.376C189.352 128.435 189.199 128.563 189.109 128.734C189.02 128.905 189 129.103 189.056 129.288L189.632 131.176C189.687 131.358 189.813 131.511 189.98 131.601C190.148 131.691 190.345 131.711 190.528 131.656L192.128 131.16C192.328 131.109 192.539 131.12 192.734 131.191C192.928 131.263 193.096 131.391 193.216 131.56L194.816 133.56C194.959 133.711 195.052 133.903 195.083 134.109C195.115 134.314 195.083 134.525 194.992 134.712L194.176 136.232C194.131 136.316 194.104 136.408 194.095 136.503C194.086 136.597 194.096 136.693 194.124 136.783C194.153 136.874 194.199 136.958 194.26 137.031C194.321 137.104 194.395 137.164 194.48 137.208L196.208 138.136C196.378 138.224 196.576 138.243 196.761 138.189C196.945 138.136 197.102 138.014 197.2 137.848L198 136.248C198.107 136.071 198.265 135.929 198.453 135.841C198.641 135.753 198.85 135.722 199.056 135.752L201.632 136.008C201.843 136.012 202.048 136.082 202.217 136.208C202.387 136.334 202.512 136.511 202.576 136.712L203.072 138.312C203.097 138.404 203.141 138.489 203.2 138.563C203.26 138.637 203.334 138.698 203.417 138.743C203.501 138.788 203.593 138.815 203.687 138.824C203.782 138.832 203.877 138.821 203.968 138.792L205.872 138.232C206.053 138.17 206.203 138.041 206.292 137.871C206.382 137.702 206.403 137.505 206.352 137.32L205.856 135.72C205.801 135.521 205.808 135.31 205.877 135.116C205.945 134.921 206.072 134.752 206.24 134.632L208.256 133.032C208.411 132.896 208.602 132.808 208.806 132.777C209.01 132.746 209.219 132.773 209.408 132.856L210.912 133.672C211.082 133.764 211.281 133.785 211.467 133.731C211.652 133.677 211.809 133.553 211.904 133.384L212.832 131.64C212.876 131.556 212.904 131.464 212.912 131.369C212.921 131.275 212.911 131.179 212.883 131.089C212.855 130.998 212.809 130.914 212.748 130.841C212.687 130.768 212.612 130.708 212.528 130.664L211.024 129.848C210.846 129.744 210.704 129.59 210.615 129.404C210.527 129.219 210.496 129.011 210.528 128.808L210.784 126.216C210.793 126.008 210.863 125.808 210.985 125.64C211.108 125.472 211.277 125.344 211.472 125.272L213.072 124.776C213.166 124.754 213.255 124.713 213.334 124.655C213.412 124.597 213.478 124.524 213.527 124.441C213.576 124.357 213.608 124.264 213.621 124.168C213.633 124.071 213.626 123.974 213.6 123.88ZM206.4 129.288C205.86 130.296 205.034 131.122 204.026 131.66C203.017 132.198 201.871 132.425 200.734 132.312C199.596 132.198 198.518 131.75 197.635 131.023C196.753 130.297 196.105 129.325 195.776 128.23C195.446 127.135 195.449 125.968 195.783 124.874C196.117 123.781 196.769 122.812 197.655 122.089C198.54 121.366 199.621 120.922 200.759 120.814C201.897 120.706 203.041 120.937 204.048 121.48C204.715 121.838 205.306 122.323 205.786 122.91C206.265 123.496 206.625 124.171 206.843 124.896C207.062 125.621 207.135 126.383 207.059 127.136C206.983 127.89 206.759 128.621 206.4 129.288Z" fill="#B6D0FB"/>
<path d="M307.824 160.328H255.664C255.224 160.328 254.803 160.153 254.493 159.843C254.182 159.532 254.008 159.111 254.008 158.672C254.008 158.232 254.182 157.811 254.493 157.501C254.803 157.19 255.224 157.016 255.664 157.016H307.824C308.263 157.016 308.684 157.19 308.995 157.501C309.305 157.811 309.48 158.232 309.48 158.672C309.48 159.111 309.305 159.532 308.995 159.843C308.684 160.153 308.263 160.328 307.824 160.328Z" fill="#405B91"/>
<path d="M201.599 184.024H117.375C116.934 184.024 116.51 183.848 116.198 183.536C115.886 183.224 115.711 182.801 115.711 182.36C115.711 181.918 115.886 181.495 116.198 181.183C116.51 180.871 116.934 180.696 117.375 180.696H201.599C202.04 180.696 202.464 180.871 202.776 181.183C203.088 181.495 203.263 181.918 203.263 182.36C203.263 182.801 203.088 183.224 202.776 183.536C202.464 183.848 202.04 184.024 201.599 184.024Z" fill="#405B91"/>
<path d="M605.6 228.888H521.344C520.902 228.888 520.479 228.712 520.167 228.4C519.855 228.088 519.68 227.665 519.68 227.224C519.68 226.782 519.855 226.359 520.167 226.047C520.479 225.735 520.902 225.56 521.344 225.56H605.6C606.041 225.56 606.464 225.735 606.776 226.047C607.088 226.359 607.264 226.782 607.264 227.224C607.264 227.665 607.088 228.088 606.776 228.4C606.464 228.712 606.041 228.888 605.6 228.888Z" fill="#405B91"/>
<path d="M638.72 403H1.27963C0.838312 403 0.41507 402.825 0.103009 402.513C-0.209052 402.2 -0.384369 401.777 -0.384369 401.336C-0.384369 400.895 -0.209052 400.471 0.103009 400.159C0.41507 399.847 0.838312 399.672 1.27963 399.672H638.72C639.161 399.672 639.584 399.847 639.896 400.159C640.208 400.471 640.384 400.895 640.384 401.336C640.384 401.777 640.208 402.2 639.896 402.513C639.584 402.825 639.161 403 638.72 403Z" fill="#405B91"/>
<path d="M404.896 139.48C402.539 139.483 400.226 140.109 398.189 141.292C396.151 142.476 394.462 144.176 393.292 146.221C392.122 148.266 391.512 150.583 391.524 152.939C391.536 155.296 392.169 157.607 393.36 159.64L393.568 160.008L380.032 173.56C379.819 173.769 379.65 174.018 379.534 174.292C379.419 174.567 379.36 174.862 379.36 175.16C379.38 175.556 379.481 175.943 379.658 176.298C379.834 176.653 380.081 176.968 380.384 177.224C380.666 177.551 381.011 177.817 381.399 178.007C381.786 178.196 382.209 178.306 382.64 178.328C383.217 178.321 383.778 178.131 384.24 177.784L397.76 164.264L398.128 164.472C399.903 165.519 401.896 166.142 403.951 166.292C406.006 166.443 408.068 166.117 409.977 165.34C411.886 164.563 413.59 163.357 414.956 161.814C416.322 160.271 417.314 158.434 417.854 156.445C418.394 154.456 418.467 152.37 418.069 150.348C417.671 148.326 416.811 146.423 415.557 144.788C414.303 143.152 412.689 141.828 410.84 140.919C408.991 140.009 406.956 139.539 404.896 139.544V139.48ZM404.896 162.28C402.4 162.28 400.008 161.289 398.243 159.524C396.479 157.76 395.488 155.367 395.488 152.872C395.488 150.377 396.479 147.984 398.243 146.22C400.008 144.455 402.4 143.464 404.896 143.464C407.391 143.464 409.784 144.455 411.548 146.22C413.312 147.984 414.304 150.377 414.304 152.872C414.304 155.367 413.312 157.76 411.548 159.524C409.784 161.289 407.391 162.28 404.896 162.28Z" fill="#B6D0FB"/>
<path d="M400 154.824H409.6V152.344H400V154.824Z" fill="#B6D0FB"/>
<path d="M156.4 399.912C155.975 399.912 155.568 399.743 155.268 399.443C154.968 399.143 154.8 398.736 154.8 398.312V270.456C154.8 270.015 154.975 269.591 155.287 269.279C155.599 268.967 156.022 268.792 156.464 268.792C156.905 268.792 157.328 268.967 157.64 269.279C157.952 269.591 158.128 270.015 158.128 270.456V398.2C158.145 398.431 158.111 398.662 158.03 398.879C157.949 399.095 157.822 399.291 157.658 399.454C157.494 399.617 157.296 399.742 157.079 399.821C156.862 399.9 156.63 399.931 156.4 399.912Z" fill="#405B91"/>
<path d="M186.096 399.912C185.671 399.912 185.264 399.743 184.964 399.443C184.664 399.143 184.496 398.736 184.496 398.312V270.456C184.496 270.015 184.671 269.591 184.983 269.279C185.295 268.967 185.718 268.792 186.16 268.792C186.601 268.792 187.024 268.967 187.336 269.279C187.648 269.591 187.824 270.015 187.824 270.456V398.2C187.841 398.431 187.807 398.662 187.726 398.879C187.645 399.095 187.518 399.291 187.354 399.454C187.19 399.617 186.992 399.742 186.775 399.821C186.558 399.9 186.326 399.931 186.096 399.912Z" fill="#405B91"/>
<path d="M186.096 280.84H156.4C156.182 280.84 155.967 280.797 155.766 280.714C155.565 280.631 155.382 280.509 155.229 280.355C155.075 280.201 154.953 280.018 154.87 279.818C154.786 279.617 154.744 279.401 154.744 279.184C154.744 278.966 154.786 278.751 154.87 278.55C154.953 278.349 155.075 278.167 155.229 278.013C155.382 277.859 155.565 277.737 155.766 277.654C155.967 277.571 156.182 277.528 156.4 277.528H186.096C186.313 277.528 186.528 277.571 186.729 277.654C186.93 277.737 187.113 277.859 187.267 278.013C187.42 278.167 187.542 278.349 187.626 278.55C187.709 278.751 187.752 278.966 187.752 279.184C187.752 279.401 187.709 279.617 187.626 279.818C187.542 280.018 187.42 280.201 187.267 280.355C187.113 280.509 186.93 280.631 186.729 280.714C186.528 280.797 186.313 280.84 186.096 280.84Z" fill="#405B91"/>
<path d="M186.096 295.448H156.4C155.958 295.448 155.535 295.272 155.223 294.96C154.911 294.648 154.736 294.225 154.736 293.784C154.736 293.342 154.911 292.919 155.223 292.607C155.535 292.295 155.958 292.12 156.4 292.12H186.096C186.537 292.12 186.96 292.295 187.272 292.607C187.584 292.919 187.76 293.342 187.76 293.784C187.76 294.225 187.584 294.648 187.272 294.96C186.96 295.272 186.537 295.448 186.096 295.448Z" fill="#405B91"/>
<path d="M186.096 310.04H156.4C155.96 310.04 155.539 309.865 155.229 309.555C154.918 309.244 154.744 308.823 154.744 308.384C154.744 307.944 154.918 307.523 155.229 307.213C155.539 306.902 155.96 306.728 156.4 306.728H186.096C186.535 306.728 186.956 306.902 187.267 307.213C187.577 307.523 187.752 307.944 187.752 308.384C187.752 308.823 187.577 309.244 187.267 309.555C186.956 309.865 186.535 310.04 186.096 310.04Z" fill="#405B91"/>
<path d="M186.096 324.6H156.4C155.958 324.6 155.535 324.425 155.223 324.113C154.911 323.801 154.736 323.377 154.736 322.936C154.736 322.495 154.911 322.071 155.223 321.759C155.535 321.447 155.958 321.272 156.4 321.272H186.096C186.537 321.272 186.96 321.447 187.272 321.759C187.584 322.071 187.76 322.495 187.76 322.936C187.76 323.377 187.584 323.801 187.272 324.113C186.96 324.425 186.537 324.6 186.096 324.6Z" fill="#405B91"/>
<path d="M186.096 339.24H156.4C155.96 339.24 155.539 339.065 155.229 338.755C154.918 338.444 154.744 338.023 154.744 337.584C154.744 337.145 154.918 336.723 155.229 336.413C155.539 336.102 155.96 335.928 156.4 335.928H186.096C186.535 335.928 186.956 336.102 187.267 336.413C187.577 336.723 187.752 337.145 187.752 337.584C187.752 338.023 187.577 338.444 187.267 338.755C186.956 339.065 186.535 339.24 186.096 339.24Z" fill="#405B91"/>
<path d="M186.096 353.848H156.4C155.958 353.848 155.535 353.673 155.223 353.361C154.911 353.049 154.736 352.625 154.736 352.184C154.736 351.743 154.911 351.319 155.223 351.007C155.535 350.695 155.958 350.52 156.4 350.52H186.096C186.537 350.52 186.96 350.695 187.272 351.007C187.584 351.319 187.76 351.743 187.76 352.184C187.76 352.625 187.584 353.049 187.272 353.361C186.96 353.673 186.537 353.848 186.096 353.848Z" fill="#405B91"/>
<path d="M186.096 368.44H156.4C155.96 368.44 155.539 368.265 155.229 367.955C154.918 367.644 154.744 367.223 154.744 366.784C154.744 366.345 154.918 365.924 155.229 365.613C155.539 365.302 155.96 365.128 156.4 365.128H186.096C186.535 365.128 186.956 365.302 187.267 365.613C187.577 365.924 187.752 366.345 187.752 366.784C187.752 367.223 187.577 367.644 187.267 367.955C186.956 368.265 186.535 368.44 186.096 368.44Z" fill="#405B91"/>
<path d="M186.096 383.048H156.4C155.958 383.048 155.535 382.872 155.223 382.56C154.911 382.248 154.736 381.825 154.736 381.384C154.736 380.942 154.911 380.519 155.223 380.207C155.535 379.895 155.958 379.72 156.4 379.72H186.096C186.537 379.72 186.96 379.895 187.272 380.207C187.584 380.519 187.76 380.942 187.76 381.384C187.76 381.825 187.584 382.248 187.272 382.56C186.96 382.872 186.537 383.048 186.096 383.048Z" fill="#405B91"/>
<path d="M115.952 276.6C115.527 276.6 115.12 276.431 114.82 276.131C114.52 275.831 114.352 275.424 114.352 275V268.6C114.352 268.158 114.527 267.735 114.839 267.423C115.151 267.111 115.574 266.936 116.016 266.936C116.457 266.936 116.88 267.111 117.192 267.423C117.504 267.735 117.68 268.158 117.68 268.6V275C117.68 275.221 117.635 275.44 117.547 275.643C117.459 275.846 117.329 276.028 117.167 276.179C117.004 276.329 116.812 276.444 116.603 276.517C116.394 276.589 116.172 276.617 115.952 276.6Z" fill="#405B91"/>
<path d="M119.184 273.4H112.784C112.345 273.4 111.924 273.225 111.613 272.915C111.303 272.604 111.128 272.183 111.128 271.744C111.128 271.305 111.303 270.884 111.613 270.573C111.924 270.262 112.345 270.088 112.784 270.088H119.184C119.623 270.088 120.045 270.262 120.355 270.573C120.666 270.884 120.84 271.305 120.84 271.744C120.84 272.183 120.666 272.604 120.355 272.915C120.045 273.225 119.623 273.4 119.184 273.4Z" fill="#405B91"/>
<path d="M265.184 45.5598C264.76 45.5598 264.353 45.3912 264.053 45.0912C263.753 44.7911 263.584 44.3841 263.584 43.9598V37.5598C263.584 37.1206 263.759 36.6994 264.069 36.3888C264.38 36.0783 264.801 35.9038 265.24 35.9038C265.68 35.9038 266.101 36.0783 266.411 36.3888C266.722 36.6994 266.896 37.1206 266.896 37.5598V43.9598C266.897 44.1797 266.852 44.3973 266.765 44.5991C266.677 44.8009 266.549 44.9826 266.389 45.1327C266.228 45.2828 266.038 45.3982 265.831 45.4717C265.624 45.5452 265.404 45.5752 265.184 45.5598Z" fill="#405B91"/>
<path d="M268.416 42.328H262.016C261.574 42.328 261.151 42.1527 260.839 41.8406C260.527 41.5286 260.352 41.1053 260.352 40.664C260.352 40.2227 260.527 39.7994 260.839 39.4874C261.151 39.1753 261.574 39 262.016 39H268.416C268.857 39 269.28 39.1753 269.592 39.4874C269.904 39.7994 270.08 40.2227 270.08 40.664C270.08 41.1053 269.904 41.5286 269.592 41.8406C269.28 42.1527 268.857 42.328 268.416 42.328Z" fill="#405B91"/>
<path d="M317.488 380.056C317.334 380.078 317.178 380.078 317.024 380.056L310.816 378.28C310.603 378.227 310.403 378.13 310.228 377.997C310.054 377.863 309.909 377.695 309.802 377.503C309.696 377.311 309.63 377.099 309.609 376.88C309.588 376.661 309.612 376.441 309.68 376.232C309.733 376.018 309.829 375.818 309.963 375.644C310.097 375.47 310.265 375.325 310.457 375.218C310.649 375.111 310.861 375.045 311.08 375.024C311.298 375.003 311.519 375.028 311.728 375.096L317.936 376.872C318.36 376.931 318.744 377.157 319.002 377.499C319.26 377.841 319.372 378.271 319.312 378.696C319.253 379.12 319.027 379.503 318.685 379.761C318.343 380.019 317.912 380.131 317.488 380.072V380.056Z" fill="#405B91"/>
<path d="M313.488 382.28C313.339 382.303 313.188 382.303 313.04 382.28C312.826 382.227 312.626 382.131 312.452 381.997C312.278 381.863 312.132 381.695 312.026 381.503C311.919 381.311 311.853 381.099 311.832 380.88C311.811 380.662 311.836 380.441 311.904 380.232L313.68 374.008C313.801 373.584 314.085 373.225 314.471 373.01C314.856 372.796 315.311 372.743 315.736 372.864C316.16 372.985 316.519 373.269 316.733 373.655C316.948 374.041 317.001 374.496 316.88 374.92L315.104 381.144C315 381.487 314.785 381.785 314.492 381.991C314.199 382.197 313.845 382.299 313.488 382.28Z" fill="#405B91"/>
<path d="M284.8 184.904C284.652 184.927 284.5 184.927 284.352 184.904L278.128 183.128C277.704 183.007 277.345 182.722 277.13 182.337C276.916 181.951 276.863 181.496 276.984 181.072C277.105 180.648 277.389 180.289 277.775 180.074C278.161 179.86 278.616 179.807 279.04 179.928L285.248 181.704C285.672 181.763 286.056 181.989 286.314 182.331C286.572 182.673 286.683 183.104 286.624 183.528C286.565 183.952 286.339 184.336 285.997 184.594C285.655 184.852 285.224 184.963 284.8 184.904Z" fill="#405B91"/>
<path d="M280.847 187.128C280.698 187.149 280.548 187.149 280.399 187.128C280.186 187.075 279.986 186.979 279.811 186.845C279.637 186.711 279.492 186.543 279.385 186.351C279.279 186.159 279.213 185.947 279.192 185.728C279.171 185.509 279.195 185.289 279.263 185.08L281.039 178.872C281.099 178.662 281.199 178.465 281.335 178.294C281.471 178.123 281.639 177.98 281.83 177.874C282.021 177.768 282.231 177.7 282.448 177.675C282.665 177.65 282.885 177.668 283.095 177.728C283.305 177.788 283.501 177.888 283.673 178.024C283.844 178.16 283.987 178.328 284.093 178.519C284.199 178.71 284.267 178.92 284.292 179.137C284.317 179.354 284.299 179.574 284.239 179.784L282.463 185.992C282.36 186.335 282.144 186.633 281.851 186.839C281.558 187.045 281.205 187.147 280.847 187.128Z" fill="#405B91"/>
<path d="M296.79 140.052C305.794 131.048 305.794 116.449 296.79 107.445C287.786 98.4416 273.188 98.4416 264.184 107.445C255.18 116.449 255.18 131.048 264.184 140.052C273.188 149.056 287.786 149.056 296.79 140.052Z" fill="#B6D0FB"/>
<path d="M280.495 141.016C290.03 141.016 297.759 133.286 297.759 123.752C297.759 114.217 290.03 106.488 280.495 106.488C270.961 106.488 263.231 114.217 263.231 123.752C263.231 133.286 270.961 141.016 280.495 141.016Z" fill="white"/>
<path d="M280.496 141.688C276.948 141.688 273.48 140.636 270.531 138.665C267.581 136.694 265.282 133.893 263.925 130.616C262.567 127.338 262.212 123.732 262.904 120.253C263.596 116.774 265.305 113.578 267.813 111.069C270.321 108.561 273.517 106.853 276.996 106.161C280.476 105.468 284.082 105.824 287.359 107.181C290.637 108.539 293.438 110.838 295.409 113.787C297.38 116.737 298.432 120.205 298.432 123.752C298.427 128.508 296.536 133.067 293.174 136.43C289.811 139.793 285.251 141.684 280.496 141.688ZM280.496 107.16C277.21 107.16 273.999 108.134 271.267 109.96C268.536 111.786 266.407 114.38 265.15 117.416C263.894 120.452 263.566 123.792 264.208 127.014C264.85 130.236 266.433 133.195 268.758 135.517C271.082 137.839 274.043 139.42 277.265 140.059C280.488 140.698 283.828 140.367 286.862 139.107C289.897 137.848 292.489 135.716 294.312 132.983C296.135 130.25 297.107 127.037 297.104 123.752C297.099 119.35 295.348 115.13 292.234 112.019C289.119 108.907 284.898 107.16 280.496 107.16Z" fill="#405B91"/>
<path d="M280.496 124.424C280.317 124.424 280.146 124.353 280.02 124.227C279.894 124.101 279.824 123.93 279.824 123.752V115C279.824 114.821 279.894 114.65 280.02 114.524C280.146 114.398 280.317 114.328 280.496 114.328C280.674 114.328 280.845 114.398 280.971 114.524C281.097 114.65 281.168 114.821 281.168 115V123.784C281.159 123.956 281.085 124.119 280.96 124.238C280.835 124.357 280.668 124.424 280.496 124.424Z" fill="#405B91"/>
<path d="M290.8 124.424H280.496C280.317 124.424 280.146 124.353 280.02 124.227C279.894 124.101 279.824 123.93 279.824 123.752C279.824 123.664 279.841 123.578 279.875 123.497C279.909 123.416 279.959 123.343 280.021 123.282C280.084 123.221 280.158 123.173 280.24 123.141C280.321 123.109 280.408 123.094 280.496 123.096H290.8C290.887 123.094 290.974 123.109 291.056 123.141C291.137 123.173 291.211 123.221 291.274 123.282C291.336 123.343 291.386 123.416 291.42 123.497C291.454 123.578 291.472 123.664 291.472 123.752C291.472 123.93 291.401 124.101 291.275 124.227C291.149 124.353 290.978 124.424 290.8 124.424Z" fill="#405B91"/>
<path d="M281.184 108.44C281.184 108.576 281.143 108.709 281.068 108.822C280.992 108.935 280.885 109.024 280.759 109.076C280.633 109.128 280.495 109.141 280.361 109.115C280.228 109.088 280.105 109.023 280.009 108.926C279.913 108.83 279.847 108.708 279.821 108.574C279.794 108.441 279.808 108.302 279.86 108.177C279.912 108.051 280 107.943 280.113 107.868C280.227 107.792 280.36 107.752 280.496 107.752C280.586 107.752 280.675 107.77 280.759 107.804C280.842 107.839 280.918 107.89 280.982 107.953C281.046 108.017 281.097 108.093 281.131 108.177C281.166 108.26 281.184 108.35 281.184 108.44Z" fill="#405B91"/>
<path d="M291.327 113.608C291.707 113.608 292.015 113.3 292.015 112.92C292.015 112.54 291.707 112.232 291.327 112.232C290.947 112.232 290.639 112.54 290.639 112.92C290.639 113.3 290.947 113.608 291.327 113.608Z" fill="#405B91"/>
<path d="M295.808 124.44C295.672 124.44 295.539 124.4 295.426 124.324C295.313 124.248 295.225 124.141 295.173 124.015C295.121 123.89 295.107 123.751 295.134 123.618C295.16 123.484 295.226 123.362 295.322 123.265C295.418 123.169 295.541 123.104 295.674 123.077C295.808 123.051 295.946 123.064 296.072 123.116C296.197 123.168 296.305 123.257 296.38 123.37C296.456 123.483 296.496 123.616 296.496 123.752C296.499 123.843 296.482 123.933 296.448 124.018C296.415 124.102 296.364 124.179 296.3 124.243C296.235 124.308 296.159 124.358 296.074 124.392C295.99 124.426 295.899 124.442 295.808 124.44Z" fill="#405B91"/>
<path d="M291.327 135.272C291.707 135.272 292.015 134.964 292.015 134.584C292.015 134.204 291.707 133.896 291.327 133.896C290.947 133.896 290.639 134.204 290.639 134.584C290.639 134.964 290.947 135.272 291.327 135.272Z" fill="#405B91"/>
<path d="M279.808 139.08C279.805 138.943 279.842 138.809 279.916 138.693C279.989 138.578 280.096 138.488 280.221 138.433C280.347 138.379 280.485 138.363 280.62 138.387C280.754 138.412 280.878 138.476 280.976 138.572C281.074 138.667 281.141 138.79 281.169 138.924C281.197 139.058 281.184 139.197 281.133 139.323C281.081 139.45 280.993 139.558 280.88 139.635C280.766 139.711 280.632 139.752 280.496 139.752C280.316 139.752 280.143 139.682 280.015 139.556C279.886 139.431 279.812 139.26 279.808 139.08Z" fill="#405B91"/>
<path d="M269.184 134.104C269.313 133.979 269.485 133.909 269.664 133.909C269.843 133.909 270.016 133.979 270.144 134.104C270.237 134.198 270.299 134.318 270.324 134.448C270.349 134.578 270.335 134.712 270.284 134.834C270.232 134.956 270.146 135.061 270.036 135.134C269.926 135.207 269.796 135.246 269.664 135.246C269.532 135.246 269.402 135.207 269.292 135.134C269.182 135.061 269.096 134.956 269.045 134.834C268.993 134.712 268.979 134.578 269.004 134.448C269.029 134.318 269.092 134.198 269.184 134.104Z" fill="#405B91"/>
<path d="M265.184 124.44C265.564 124.44 265.872 124.132 265.872 123.752C265.872 123.372 265.564 123.064 265.184 123.064C264.804 123.064 264.496 123.372 264.496 123.752C264.496 124.132 264.804 124.44 265.184 124.44Z" fill="#405B91"/>
<path d="M270.144 112.44C270.209 112.504 270.26 112.58 270.295 112.663C270.329 112.747 270.347 112.837 270.347 112.928C270.347 113.018 270.329 113.108 270.295 113.192C270.26 113.276 270.209 113.352 270.144 113.416C270.016 113.541 269.844 113.611 269.664 113.611C269.485 113.611 269.313 113.541 269.184 113.416C269.12 113.352 269.069 113.276 269.034 113.192C268.999 113.108 268.981 113.018 268.981 112.928C268.981 112.837 268.999 112.747 269.034 112.663C269.069 112.58 269.12 112.504 269.184 112.44C269.313 112.315 269.485 112.245 269.664 112.245C269.844 112.245 270.016 112.315 270.144 112.44Z" fill="#405B91"/>
<path d="M314.224 115H304.624C304.528 115.014 304.43 115.009 304.337 114.982C304.243 114.955 304.157 114.909 304.083 114.846C304.01 114.783 303.95 114.705 303.91 114.617C303.869 114.528 303.848 114.433 303.848 114.336C303.848 114.239 303.869 114.143 303.91 114.055C303.95 113.967 304.01 113.888 304.083 113.825C304.157 113.762 304.243 113.716 304.337 113.689C304.43 113.663 304.528 113.657 304.624 113.672H314.224C314.382 113.696 314.526 113.777 314.631 113.898C314.735 114.02 314.792 114.175 314.792 114.336C314.792 114.496 314.735 114.651 314.631 114.773C314.526 114.894 314.382 114.975 314.224 115Z" fill="#405B91"/>
<path d="M314.224 133.896H304.624C304.445 133.896 304.275 133.825 304.148 133.699C304.022 133.573 303.952 133.402 303.952 133.224C303.952 133.136 303.969 133.049 304.003 132.969C304.037 132.888 304.087 132.815 304.149 132.754C304.212 132.693 304.286 132.645 304.368 132.613C304.449 132.581 304.536 132.565 304.624 132.568H314.224C314.398 132.568 314.564 132.637 314.688 132.76C314.811 132.883 314.88 133.05 314.88 133.224C314.882 133.311 314.866 133.398 314.834 133.48C314.802 133.561 314.754 133.635 314.693 133.698C314.632 133.76 314.559 133.81 314.478 133.844C314.398 133.878 314.311 133.896 314.224 133.896Z" fill="#405B91"/>
<path d="M326.256 124.424H308.176C308.08 124.439 307.982 124.433 307.889 124.406C307.795 124.38 307.709 124.333 307.635 124.27C307.562 124.207 307.502 124.129 307.462 124.041C307.421 123.953 307.4 123.857 307.4 123.76C307.4 123.663 307.421 123.567 307.462 123.479C307.502 123.391 307.562 123.313 307.635 123.249C307.709 123.186 307.795 123.14 307.889 123.113C307.982 123.087 308.08 123.081 308.176 123.096H326.256C326.414 123.121 326.558 123.201 326.663 123.323C326.767 123.445 326.824 123.6 326.824 123.76C326.824 123.92 326.767 124.075 326.663 124.197C326.558 124.319 326.414 124.399 326.256 124.424Z" fill="#405B91"/>
<path d="M357.791 373.416H347.103V384.104H357.791V373.416Z" fill="white"/>
<path d="M358.624 384.952H346.272V372.6H358.624V384.952ZM347.936 383.352H356.96V374.2H347.936V383.352Z" fill="#415B91"/>
<path d="M371.328 375.8H361.6C361.513 375.802 361.426 375.786 361.344 375.754C361.263 375.722 361.189 375.674 361.126 375.613C361.063 375.552 361.014 375.479 360.98 375.398C360.946 375.318 360.928 375.231 360.928 375.144C360.928 374.965 360.999 374.795 361.125 374.669C361.251 374.542 361.422 374.472 361.6 374.472H371.28C371.458 374.472 371.629 374.542 371.755 374.669C371.881 374.795 371.952 374.965 371.952 375.144C371.952 375.312 371.888 375.474 371.771 375.597C371.655 375.719 371.496 375.791 371.328 375.8Z" fill="#405B91"/>
<path d="M374.959 383.096H361.887C361.375 383.096 360.975 382.808 360.975 382.44C360.975 382.072 361.375 381.768 361.887 381.768H374.959C375.455 381.768 375.871 382.056 375.871 382.44C375.871 382.824 375.455 383.096 374.959 383.096Z" fill="#405B91"/>
<path d="M379.728 379.224H361.6C361.513 379.226 361.426 379.211 361.344 379.179C361.263 379.147 361.189 379.099 361.126 379.038C361.063 378.976 361.014 378.903 360.98 378.823C360.946 378.742 360.928 378.656 360.928 378.568C360.928 378.48 360.946 378.392 360.979 378.311C361.013 378.229 361.063 378.155 361.125 378.093C361.187 378.03 361.261 377.981 361.343 377.947C361.424 377.913 361.512 377.896 361.6 377.896H379.68C379.768 377.896 379.856 377.913 379.937 377.947C380.019 377.981 380.093 378.03 380.155 378.093C380.218 378.155 380.267 378.229 380.301 378.311C380.335 378.392 380.352 378.48 380.352 378.568C380.352 378.737 380.288 378.899 380.171 379.021C380.055 379.143 379.896 379.216 379.728 379.224Z" fill="#405B91"/>
<path d="M112.351 227.224H123.039V216.536H112.351V227.224Z" fill="white"/>
<path d="M123.872 228.056H111.52V215.704H123.872V228.056ZM113.168 226.456H122.208V217.4H113.168V226.456Z" fill="#415B91"/>
<path d="M98.8156 218.888H108.416C108.594 218.888 108.765 218.817 108.891 218.691C109.017 218.565 109.088 218.394 109.088 218.216C109.088 218.038 109.017 217.867 108.891 217.741C108.765 217.615 108.594 217.544 108.416 217.544H98.8156C98.6374 217.544 98.4665 217.615 98.3404 217.741C98.2144 217.867 98.1436 218.038 98.1436 218.216C98.1436 218.394 98.2144 218.565 98.3404 218.691C98.4665 218.817 98.6374 218.888 98.8156 218.888Z" fill="#405B91"/>
<path d="M95.1676 226.216H108.256C108.752 226.216 109.152 225.912 109.152 225.544C109.152 225.176 108.752 224.872 108.256 224.872H95.1676C94.6716 224.872 94.2716 225.176 94.2716 225.544C94.2716 225.912 94.6716 226.216 95.1676 226.216Z" fill="#405B91"/>
<path d="M90.4157 222.344H108.496C108.674 222.344 108.845 222.273 108.971 222.147C109.097 222.021 109.168 221.85 109.168 221.672C109.168 221.494 109.097 221.323 108.971 221.197C108.845 221.071 108.674 221 108.496 221H90.4157C90.2374 221 90.0665 221.071 89.9405 221.197C89.8145 221.323 89.7437 221.494 89.7437 221.672C89.7437 221.85 89.8145 222.021 89.9405 222.147C90.0665 222.273 90.2374 222.344 90.4157 222.344Z" fill="#405B91"/>
<path d="M441.728 256.712H438.416V399.416H441.728V256.712Z" fill="#3F5B91"/>
<path d="M440.432 241.096H439.696C434.262 241.096 429.856 245.501 429.856 250.936V264.136C429.856 269.57 434.262 273.976 439.696 273.976H440.432C445.867 273.976 450.272 269.57 450.272 264.136V250.936C450.272 245.501 445.867 241.096 440.432 241.096Z" fill="#B6D0FB"/>
<path d="M453.44 264.424L456.928 264.984C457.712 265.112 458.048 263.912 457.264 263.784L453.76 263.224C452.976 263.096 452.64 264.296 453.44 264.424Z" fill="#3F5B91"/>
<path d="M453.312 256.824C454.22 256.664 455.146 256.632 456.064 256.728C456.864 256.728 456.848 255.56 456.064 255.48C455.032 255.392 453.994 255.441 452.976 255.624C452.192 255.768 452.528 256.968 453.312 256.824Z" fill="#3F5B91"/>
<path d="M452.928 249.896L455.616 248.824C456.352 248.536 456.032 247.336 455.28 247.624L452.608 248.696C451.872 248.984 452.192 250.184 452.928 249.896Z" fill="#3F5B91"/>
<path d="M422.399 265.592C423.313 265.46 424.212 265.246 425.087 264.952C425.839 264.68 425.519 263.48 424.751 263.752C423.881 264.044 422.987 264.258 422.079 264.392C421.279 264.488 421.615 265.688 422.399 265.592Z" fill="#3F5B91"/>
<path d="M420.799 256.744C421.942 256.77 423.076 256.942 424.175 257.256C424.331 257.291 424.494 257.264 424.631 257.182C424.768 257.1 424.868 256.969 424.911 256.815C424.954 256.661 424.937 256.497 424.862 256.356C424.788 256.215 424.662 256.107 424.511 256.056C423.301 255.718 422.055 255.53 420.799 255.496C420.634 255.496 420.475 255.562 420.358 255.679C420.241 255.796 420.175 255.955 420.175 256.12C420.175 256.286 420.241 256.444 420.358 256.561C420.475 256.678 420.634 256.744 420.799 256.744Z" fill="#3F5B91"/>
<path d="M421.887 246.504L424.575 247.352C425.343 247.608 425.663 246.408 424.911 246.152L422.223 245.304C421.455 245.064 421.135 246.264 421.887 246.504Z" fill="#3F5B91"/>
<path d="M432.32 401.352L434.544 382.28H445.328L447.808 401.08L432.32 401.352Z" fill="#405B91"/>
<path d="M127.792 310.024C127.296 307 125.152 299.176 120.432 301.656C112.784 305.656 122.032 320.856 112.784 323.56C112.288 317.496 110.992 313.32 108.256 313.56C102.592 314.072 104.096 327.224 104.016 330.184C103.936 333.144 103.776 336.152 103.632 339.192C96.9924 340.392 98.3044 323.048 94.2564 320.648C87.9684 316.92 86.6404 325.224 86.8164 329.064C87.1044 335.608 88.8644 343.464 94.9924 346.888C97.5409 348.341 100.427 349.097 103.36 349.08C103.256 354.226 103.61 359.372 104.416 364.456H104.528L108.256 364.664C108.292 364.977 108.441 365.266 108.675 365.475C108.91 365.685 109.214 365.801 109.528 365.801C109.843 365.801 110.147 365.685 110.381 365.475C110.616 365.266 110.765 364.977 110.8 364.664C110.8 361.464 112.784 346.04 113.008 332.92C116.167 333.159 119.308 332.269 121.872 330.408C128.208 325.8 128.96 317.24 127.792 310.024Z" fill="#6CDD6C"/>
<path d="M109.504 366.648C109.127 366.651 108.757 366.552 108.432 366.36C108.039 366.128 107.747 365.757 107.616 365.32L104.88 365.176H103.872L103.728 364.552C102.944 359.669 102.585 354.728 102.656 349.784C99.8452 349.645 97.1055 348.851 94.6564 347.464C88.1124 343.768 86.3844 335.416 86.1124 329.064C85.9844 326.52 86.5284 321.224 89.3924 319.464C90.2224 319.044 91.1542 318.868 92.08 318.956C93.0059 319.044 93.888 319.392 94.6244 319.96C96.5764 321.128 97.3124 324.76 98.1764 328.808C99.3444 334.392 100.4 338.408 102.976 338.408V337.032C103.072 334.664 103.184 332.312 103.248 330.008C103.248 329.56 103.248 328.872 103.248 328.024C103.072 322.84 102.736 313.208 108.176 312.712C108.583 312.672 108.993 312.717 109.381 312.844C109.77 312.97 110.127 313.176 110.432 313.448C112.032 314.728 112.928 317.672 113.392 322.44C116.832 320.92 116.592 316.936 116.448 312.376C116.304 307.816 116.032 303 120.08 300.888C120.639 300.552 121.272 300.36 121.922 300.33C122.573 300.299 123.221 300.43 123.808 300.712C127.184 302.408 128.352 309.032 128.464 309.768C129.36 315.304 129.744 325.4 122.272 330.888C119.764 332.672 116.759 333.624 113.68 333.608C113.488 342.168 112.608 351.608 112.08 357.896C111.776 361.096 111.552 363.56 111.536 364.584C111.527 364.912 111.432 365.233 111.261 365.513C111.09 365.794 110.848 366.025 110.56 366.184C110.258 366.433 109.893 366.594 109.504 366.648ZM105.024 363.768L108.976 363.976V364.6C108.976 364.936 109.088 365.032 109.168 365.08C109.274 365.138 109.392 365.169 109.512 365.169C109.633 365.169 109.751 365.138 109.856 365.08C109.936 365.036 110.002 364.97 110.047 364.891C110.092 364.812 110.115 364.722 110.112 364.632C110.112 363.544 110.352 361.144 110.656 357.832C111.248 351.432 112.16 341.592 112.256 332.872V332.072L113.056 332.2C116.021 332.386 118.96 331.544 121.376 329.816C128.256 324.776 127.872 315.272 127.024 310.072C126.656 307.784 125.424 303.16 123.136 302.072C122.748 301.89 122.32 301.809 121.892 301.837C121.464 301.865 121.05 302.001 120.688 302.232C117.488 303.944 117.616 308.056 117.808 312.408C118.016 317.208 118.256 322.632 112.912 324.2L112.096 324.44V323.576C111.6 317.528 110.496 315.368 109.568 314.616C109.227 314.324 108.784 314.181 108.336 314.216C104.224 314.6 104.544 323.688 104.688 328.072C104.688 328.952 104.688 329.672 104.688 330.152C104.688 332.456 104.512 334.808 104.4 337.192L104.288 339.752L103.728 339.848C99.1844 340.664 97.9044 334.536 96.7684 329.128C96.0324 325.64 95.2804 322.056 93.8724 321.208C93.3482 320.782 92.7161 320.51 92.0466 320.423C91.3771 320.335 90.6965 320.435 90.0804 320.712C87.9684 321.976 87.3764 326.456 87.4884 328.984C87.7604 334.984 89.3284 342.84 95.3124 346.216C97.7462 347.614 100.505 348.348 103.312 348.344L104.096 348.264V349.048C103.987 353.972 104.297 358.896 105.024 363.768Z" fill="#50AA50"/>
<path d="M120.464 399.8H93.4561C92.7789 399.815 92.1186 399.588 91.5937 399.16C91.0688 398.732 90.7137 398.13 90.5921 397.464L84.4641 365.976L87.008 365.48L93.136 396.968C93.1479 397.042 93.1879 397.108 93.2476 397.153C93.3073 397.197 93.382 397.217 93.4561 397.208H120.464C120.538 397.217 120.613 397.197 120.673 397.153C120.732 397.108 120.772 397.042 120.784 396.968L126.88 365.48L129.424 365.976L123.344 397.464C123.222 398.133 122.865 398.736 122.336 399.165C121.808 399.593 121.144 399.819 120.464 399.8Z" fill="#415B91"/>
<path d="M84.7997 355.768H129.6C130.368 355.768 130.992 356.6 130.992 357.64V364.456C130.992 365.496 130.368 366.344 129.6 366.344H84.7997C84.0317 366.344 83.4077 365.496 83.4077 364.456V357.64C83.3437 356.6 83.9677 355.768 84.7997 355.768Z" fill="#B6D0FB"/>
<path d="M129.599 367.048H84.799C84.1819 366.972 83.6186 366.659 83.2276 366.175C82.8366 365.692 82.6486 365.075 82.703 364.456V357.64C82.631 357.012 82.8114 356.381 83.2044 355.886C83.5975 355.391 84.171 355.072 84.799 355H129.599C130.216 355.069 130.782 355.377 131.174 355.859C131.566 356.341 131.753 356.957 131.695 357.576V364.392C131.733 364.704 131.709 365.021 131.624 365.324C131.539 365.626 131.395 365.909 131.2 366.156C131.005 366.403 130.763 366.609 130.489 366.762C130.214 366.915 129.911 367.012 129.599 367.048ZM84.799 356.472C84.479 356.472 84.111 356.968 84.111 357.64V364.456C84.111 365.128 84.479 365.624 84.799 365.624H129.599C129.935 365.624 130.287 365.128 130.287 364.456V357.64C130.287 356.968 129.935 356.472 129.599 356.472H84.799Z" fill="#405B91"/>
<path d="M129.6 366.92H84.7996C84.2136 366.847 83.6787 366.55 83.3083 366.09C82.938 365.63 82.7613 365.044 82.8156 364.456V357.64C82.7613 357.052 82.938 356.466 83.3083 356.006C83.6787 355.546 84.2136 355.248 84.7996 355.176H129.6C130.187 355.244 130.725 355.541 131.096 356.002C131.467 356.463 131.642 357.051 131.584 357.64V364.456C131.642 365.045 131.467 365.633 131.096 366.094C130.725 366.555 130.187 366.851 129.6 366.92ZM84.7996 356.36C84.4156 356.36 83.9996 356.888 83.9996 357.64V364.456C83.9996 365.224 84.4156 365.752 84.7996 365.752H129.6C129.984 365.752 130.4 365.224 130.4 364.456V357.64C130.4 356.888 129.984 356.36 129.6 356.36H84.7996Z" fill="#B6D0FB"/>
<path d="M129.6 367.64H84.8003C84.02 367.571 83.2989 367.195 82.7951 366.595C82.2912 365.995 82.0457 365.22 82.1123 364.44V357.624C82.0457 356.843 82.2912 356.068 82.7951 355.468C83.2989 354.869 84.02 354.493 84.8003 354.424H129.6C130.381 354.493 131.102 354.869 131.605 355.468C132.109 356.068 132.355 356.843 132.288 357.624V364.44C132.355 365.22 132.109 365.995 131.605 366.595C131.102 367.195 130.381 367.571 129.6 367.64ZM84.8003 357.064C84.6757 357.229 84.6134 357.433 84.6243 357.64V364.456C84.6119 364.566 84.6241 364.678 84.6601 364.783C84.696 364.888 84.7548 364.984 84.8323 365.064H129.6C129.6 365.064 129.696 364.84 129.696 364.472V357.656C129.706 357.547 129.694 357.437 129.661 357.333C129.628 357.228 129.575 357.132 129.504 357.048L84.8003 357.064Z" fill="#405B91"/>
<path d="M89.6002 329L91.8082 329.272C92.5922 329.384 92.5922 328.136 91.8082 328.04L89.6002 327.8C88.8002 327.704 88.8162 328.952 89.6002 329.048V329Z" fill="#50AA50"/>
<path d="M92.8796 319.208V320.312C92.8796 320.478 92.9454 320.636 93.0624 320.753C93.1794 320.87 93.3381 320.936 93.5036 320.936C93.6691 320.936 93.8279 320.87 93.9449 320.753C94.0619 320.636 94.1276 320.478 94.1276 320.312V319.208C94.1276 319.043 94.0619 318.884 93.9449 318.767C93.8279 318.65 93.6691 318.584 93.5036 318.584C93.3381 318.584 93.1794 318.65 93.0624 318.767C92.9454 318.884 92.8796 319.043 92.8796 319.208Z" fill="#50AA50"/>
<path d="M97.1843 330.616L98.7843 329.72C98.9077 329.628 98.9931 329.494 99.024 329.344C99.055 329.194 99.0294 329.037 98.9521 328.904C98.8749 328.772 98.7514 328.672 98.6053 328.625C98.4592 328.577 98.3008 328.585 98.1603 328.648L96.5603 329.544C96.4369 329.635 96.3516 329.769 96.3206 329.919C96.2897 330.07 96.3153 330.226 96.3925 330.359C96.4698 330.492 96.5933 330.591 96.7394 330.639C96.8855 330.686 97.0439 330.678 97.1843 330.616Z" fill="#50AA50"/>
<path d="M90.7988 344.936L92.7348 343.576C93.3908 343.128 92.7348 341.976 92.1108 342.504L90.1588 343.864C89.5188 344.328 90.1588 345.464 90.7988 344.936Z" fill="#50AA50"/>
<path d="M86.1276 334.2L87.5196 334.744C88.2556 335.048 88.5756 333.832 87.8396 333.544L86.4636 333C85.7116 332.712 85.3916 333.912 86.1276 334.2Z" fill="#50AA50"/>
<path d="M95.1671 340.024C95.2963 340.035 95.4217 340.074 95.5348 340.137C95.6479 340.201 95.7462 340.287 95.8231 340.392C96.3191 341.016 97.1991 340.136 96.7031 339.512C96.5051 339.281 96.2596 339.096 95.9835 338.969C95.7074 338.842 95.4071 338.776 95.1031 338.776C94.3031 338.776 94.3031 339.96 95.1031 340.024H95.1671Z" fill="#50AA50"/>
<path d="M97.8884 345.88C97.7559 346.697 97.8615 347.536 98.1924 348.296C98.5124 349.032 99.5844 348.392 99.2644 347.672C99.0705 347.207 99.0096 346.697 99.0884 346.2C99.2164 345.416 98.0164 345.08 97.8884 345.88Z" fill="#50AA50"/>
<path d="M104.4 346.104L105.488 346.392C105.643 346.426 105.807 346.4 105.944 346.318C106.08 346.236 106.181 346.104 106.224 345.951C106.267 345.797 106.249 345.633 106.175 345.492C106.1 345.35 105.975 345.243 105.824 345.192L104.72 344.904C104.567 344.879 104.41 344.911 104.28 344.996C104.15 345.08 104.056 345.209 104.016 345.359C103.976 345.508 103.993 345.667 104.064 345.805C104.135 345.943 104.255 346.049 104.4 346.104Z" fill="#50AA50"/>
<path d="M108.368 333.864C108.334 334.202 108.384 334.544 108.512 334.859C108.641 335.174 108.843 335.453 109.104 335.672C109.712 336.184 110.608 335.32 109.984 334.792C109.84 334.688 109.729 334.546 109.664 334.382C109.599 334.217 109.582 334.038 109.616 333.864C109.616 333.064 108.432 333.08 108.368 333.864Z" fill="#50AA50"/>
<path d="M106.784 324.968C106.622 325.197 106.51 325.458 106.455 325.734C106.399 326.009 106.403 326.293 106.464 326.568C106.608 327.352 107.808 327.016 107.664 326.232C107.643 326.12 107.65 326.005 107.683 325.896C107.716 325.787 107.776 325.689 107.856 325.608C108.336 324.952 107.264 324.328 106.784 324.968Z" fill="#50AA50"/>
<path d="M113.6 328.616V329.72C113.6 329.885 113.665 330.044 113.782 330.161C113.899 330.278 114.058 330.344 114.224 330.344C114.389 330.344 114.548 330.278 114.665 330.161C114.782 330.044 114.848 329.885 114.848 329.72V328.616C114.848 328.45 114.782 328.291 114.665 328.174C114.548 328.057 114.389 327.992 114.224 327.992C114.058 327.992 113.899 328.057 113.782 328.174C113.665 328.291 113.6 328.45 113.6 328.616Z" fill="#50AA50"/>
<path d="M102.031 326.664L102.863 327.208C103.535 327.656 104.159 326.584 103.487 326.136L102.671 325.592C101.999 325.144 101.375 326.216 102.031 326.664Z" fill="#50AA50"/>
<path d="M104.111 316.328C104.344 316.59 104.485 316.922 104.511 317.272C104.511 318.072 105.807 318.072 105.759 317.272C105.719 316.594 105.448 315.951 104.991 315.448C104.479 314.84 103.599 315.736 104.111 316.328Z" fill="#50AA50"/>
<path d="M107.2 312.568V314.168C107.2 314.333 107.265 314.492 107.382 314.609C107.499 314.726 107.658 314.792 107.824 314.792C107.989 314.792 108.148 314.726 108.265 314.609C108.382 314.492 108.448 314.333 108.448 314.168V312.568C108.448 312.402 108.382 312.244 108.265 312.127C108.148 312.01 107.989 311.944 107.824 311.944C107.658 311.944 107.499 312.01 107.382 312.127C107.265 312.244 107.2 312.402 107.2 312.568Z" fill="#50AA50"/>
<path d="M114.959 319.88L115.487 320.456C116.047 321.032 116.927 320.152 116.367 319.576L115.839 319C115.279 318.424 114.399 319.304 114.959 319.88Z" fill="#50AA50"/>
<path d="M116.192 312.472L117.792 312.568C118.592 312.568 118.592 311.368 117.792 311.32L116.192 311.224C115.392 311.224 115.392 312.424 116.192 312.472Z" fill="#50AA50"/>
<path d="M117.951 302.504L119.055 303.608C119.174 303.71 119.328 303.764 119.485 303.758C119.643 303.752 119.792 303.687 119.903 303.576C120.015 303.465 120.08 303.315 120.086 303.158C120.091 303.001 120.038 302.847 119.935 302.728L118.831 301.624C118.712 301.521 118.558 301.467 118.401 301.473C118.243 301.479 118.094 301.544 117.983 301.655C117.871 301.767 117.806 301.916 117.8 302.073C117.795 302.231 117.848 302.384 117.951 302.504Z" fill="#50AA50"/>
<path d="M122.752 299.304V301.24C122.752 301.405 122.817 301.564 122.934 301.681C123.051 301.798 123.21 301.864 123.376 301.864C123.541 301.864 123.7 301.798 123.817 301.681C123.934 301.564 124 301.405 124 301.24V299.304C124 299.138 123.934 298.979 123.817 298.862C123.7 298.745 123.541 298.68 123.376 298.68C123.21 298.68 123.051 298.745 122.934 298.862C122.817 298.979 122.752 299.138 122.752 299.304Z" fill="#50AA50"/>
<path d="M125.008 310.936L125.552 310.104C126 309.448 124.912 308.824 124.48 309.48L123.936 310.312C123.488 310.984 124.56 311.608 125.008 310.936Z" fill="#50AA50"/>
<path d="M120.784 323.16L122.176 322.632C122.912 322.344 122.592 321.128 121.84 321.432L120.448 321.96C119.712 322.248 120.032 323.448 120.784 323.16Z" fill="#50AA50"/>
<path d="M126.288 321.4L127.68 321.112C128.464 320.952 128.128 319.752 127.344 319.912L125.968 320.2C125.184 320.36 125.504 321.56 126.288 321.4Z" fill="#50AA50"/>
<path d="M122.752 327.224V327.512C122.752 327.677 122.817 327.836 122.934 327.953C123.051 328.07 123.21 328.136 123.376 328.136C123.541 328.136 123.7 328.07 123.817 327.953C123.934 327.836 124 327.677 124 327.512V327.224C124 327.058 123.934 326.899 123.817 326.782C123.7 326.665 123.541 326.6 123.376 326.6C123.21 326.6 123.051 326.665 122.934 326.782C122.817 326.899 122.752 327.058 122.752 327.224Z" fill="#50AA50"/>
<path d="M111.999 346.28L112.831 345.736C113.487 345.288 112.831 344.216 112.191 344.664L111.375 345.208C110.703 345.656 111.375 346.728 111.999 346.28Z" fill="#50AA50"/>
<path d="M111.327 350.872C111.797 350.416 112.384 350.1 113.023 349.96C113.807 349.784 113.471 348.584 112.703 348.76C111.856 348.966 111.078 349.391 110.447 349.992C109.871 350.552 110.751 351.432 111.327 350.872Z" fill="#50AA50"/>
<path d="M106.207 351.624L106.495 352.168C106.847 352.888 107.919 352.168 107.567 351.544L107.279 350.984C106.911 350.28 105.839 350.904 106.207 351.624Z" fill="#50AA50"/>
<path d="M101.472 352.952C102.125 353.315 102.889 353.423 103.616 353.256C104.4 353.096 104.064 351.896 103.296 352.056C102.889 352.157 102.458 352.094 102.096 351.88C101.392 351.512 100.752 352.584 101.472 352.952Z" fill="#50AA50"/>
<path d="M111.76 341.16L114.24 340.84C115.024 340.744 115.04 339.496 114.24 339.592L111.76 339.912C110.976 340.008 110.96 341.256 111.76 341.16Z" fill="#50AA50"/>
<path d="M223.216 286.616L263.392 250.296C265.376 248.504 262.448 245.576 260.464 247.352L220.288 283.688C218.304 285.48 221.232 288.408 223.216 286.616Z" fill="#D7E7FF"/>
<path d="M268.624 305.143L308.8 268.824C310.784 267.032 307.84 264.103 305.856 265.879L265.696 302.199C263.712 303.991 266.656 306.919 268.624 305.127V305.143Z" fill="#D7E7FF"/>
<path d="M219.28 318.872L303.504 236.744C305.424 234.888 302.48 231.944 300.576 233.816L216.352 315.944C214.432 317.8 217.376 320.744 219.28 318.872Z" fill="#D7E7FF"/>
<path d="M348 63.4961H346.192V179.4H348V63.4961Z" fill="#415B91"/>
<path d="M354.464 179.4C354.464 180.856 354.032 182.279 353.223 183.489C352.415 184.699 351.265 185.643 349.92 186.2C348.575 186.757 347.095 186.903 345.668 186.619C344.24 186.335 342.929 185.634 341.899 184.604C340.87 183.575 340.169 182.264 339.885 180.836C339.601 179.408 339.747 177.928 340.304 176.583C340.861 175.239 341.804 174.089 343.015 173.28C344.225 172.472 345.648 172.04 347.104 172.04C348.07 172.04 349.027 172.23 349.92 172.6C350.813 172.97 351.625 173.512 352.308 174.196C352.991 174.879 353.534 175.691 353.903 176.583C354.273 177.476 354.464 178.434 354.464 179.4Z" fill="#415B91"/>
<path d="M347.2 204.088C345.608 204.03 344.091 203.399 342.928 202.312C342.326 201.671 341.861 200.916 341.558 200.091C341.256 199.266 341.123 198.389 341.168 197.512C341.168 197.383 341.193 197.256 341.242 197.138C341.291 197.02 341.363 196.912 341.453 196.821C341.544 196.731 341.652 196.659 341.77 196.61C341.889 196.561 342.015 196.536 342.144 196.536C342.272 196.536 342.399 196.561 342.517 196.61C342.636 196.659 342.743 196.731 342.834 196.821C342.924 196.912 342.996 197.02 343.045 197.138C343.094 197.256 343.12 197.383 343.12 197.512C343.079 198.135 343.162 198.76 343.366 199.351C343.569 199.941 343.888 200.485 344.304 200.952C345.101 201.675 346.124 202.1 347.2 202.152C348.519 202.152 349.785 201.627 350.718 200.694C351.651 199.761 352.176 198.495 352.176 197.176C352.176 195.856 351.651 194.59 350.718 193.657C349.785 192.724 348.519 192.2 347.2 192.2C347.072 192.2 346.946 192.174 346.829 192.125C346.711 192.076 346.604 192.004 346.515 191.913C346.426 191.822 346.355 191.714 346.308 191.596C346.261 191.478 346.237 191.351 346.24 191.224V185.816C346.222 185.678 346.234 185.538 346.274 185.406C346.315 185.273 346.383 185.15 346.475 185.046C346.566 184.942 346.679 184.859 346.805 184.802C346.932 184.744 347.069 184.715 347.208 184.715C347.346 184.715 347.483 184.744 347.61 184.802C347.736 184.859 347.849 184.942 347.941 185.046C348.032 185.15 348.1 185.273 348.141 185.406C348.182 185.538 348.193 185.678 348.176 185.816V190.312C349.919 190.55 351.506 191.442 352.615 192.808C353.724 194.174 354.272 195.91 354.148 197.665C354.023 199.419 353.236 201.061 351.946 202.257C350.656 203.453 348.959 204.113 347.2 204.104V204.088Z" fill="#415B91"/>
<path d="M308.576 208.616C308.387 208.585 308.214 208.496 308.079 208.361C307.944 208.226 307.855 208.052 307.824 207.864C307.792 207.626 307.854 207.386 307.998 207.194C308.142 207.003 308.355 206.875 308.592 206.84L348.416 200.968C348.532 200.951 348.651 200.957 348.765 200.986C348.879 201.015 348.987 201.067 349.081 201.137C349.175 201.208 349.255 201.296 349.315 201.398C349.375 201.499 349.415 201.611 349.432 201.728C349.448 201.844 349.442 201.963 349.413 202.077C349.384 202.191 349.333 202.299 349.262 202.393C349.191 202.487 349.103 202.567 349.002 202.627C348.9 202.687 348.788 202.727 348.672 202.744L308.8 208.616C308.725 208.627 308.65 208.627 308.576 208.616Z" fill="#415B91"/>
<path d="M385.008 221.864H384.752L348.128 202.664C347.917 202.551 347.76 202.361 347.688 202.134C347.616 201.907 347.636 201.66 347.744 201.448C347.798 201.342 347.872 201.248 347.963 201.172C348.053 201.095 348.158 201.037 348.271 201.002C348.384 200.966 348.504 200.953 348.622 200.964C348.74 200.974 348.855 201.008 348.96 201.064L385.584 220.264C385.689 220.318 385.783 220.392 385.86 220.483C385.936 220.573 385.994 220.678 386.03 220.791C386.065 220.905 386.078 221.024 386.068 221.142C386.057 221.26 386.023 221.375 385.968 221.48C385.865 221.633 385.719 221.752 385.547 221.821C385.376 221.889 385.188 221.904 385.008 221.864Z" fill="#415B91"/>
<path d="M394.983 223.663L297.453 206.711C292.343 205.823 287.48 209.246 286.592 214.356L276.832 270.506C275.944 275.617 279.367 280.48 284.477 281.368L382.007 298.32C387.118 299.208 391.98 295.785 392.869 290.675L402.628 234.524C403.516 229.414 400.094 224.551 394.983 223.663Z" fill="white"/>
<path d="M383.359 299.64C382.726 299.642 382.095 299.589 381.471 299.48L284.623 282.648C283.201 282.402 281.842 281.879 280.622 281.107C279.403 280.335 278.347 279.331 277.517 278.151C276.686 276.971 276.096 275.639 275.781 274.23C275.466 272.822 275.431 271.366 275.679 269.944L285.279 214.488C285.779 211.618 287.398 209.064 289.78 207.387C292.162 205.71 295.113 205.047 297.983 205.544L394.815 222.376C396.236 222.622 397.594 223.145 398.812 223.915C400.03 224.686 401.085 225.689 401.915 226.867C402.746 228.046 403.336 229.376 403.653 230.782C403.969 232.189 404.005 233.644 403.759 235.064L394.159 290.536C393.716 293.081 392.39 295.388 390.415 297.052C388.44 298.717 385.942 299.633 383.359 299.64ZM296.143 207.8C294.144 207.804 292.209 208.511 290.679 209.798C289.149 211.086 288.121 212.871 287.775 214.84L278.175 270.312C277.978 271.412 278 272.539 278.242 273.63C278.483 274.721 278.938 275.753 279.581 276.666C280.224 277.58 281.041 278.357 281.987 278.953C282.932 279.548 283.986 279.95 285.087 280.136L381.919 296.968C384.138 297.349 386.417 296.836 388.258 295.54C390.1 294.245 391.353 292.273 391.743 290.056L401.343 234.584C401.536 233.485 401.511 232.359 401.267 231.269C401.024 230.18 400.569 229.15 399.927 228.237C399.284 227.325 398.468 226.548 397.525 225.951C396.582 225.354 395.531 224.95 394.431 224.76L297.599 207.992C297.12 207.889 296.633 207.825 296.143 207.8Z" fill="#415B91"/>
<path d="M392.243 229.147L298.182 212.798C294.917 212.231 291.81 214.417 291.243 217.682L282.33 268.961C281.763 272.226 283.949 275.332 287.214 275.9L381.276 292.249C384.541 292.816 387.647 290.629 388.215 287.365L397.127 236.086C397.695 232.821 395.508 229.714 392.243 229.147Z" fill="#B6D0FB"/>
<path d="M382.16 293.528C381.725 293.53 381.291 293.493 380.864 293.416L287.248 277.16C285.309 276.809 283.586 275.712 282.448 274.104C281.878 273.303 281.474 272.397 281.26 271.438C281.046 270.479 281.025 269.487 281.2 268.52L290.032 217.672C290.2 216.706 290.557 215.783 291.082 214.955C291.608 214.127 292.291 213.411 293.094 212.848C293.896 212.284 294.802 211.885 295.759 211.672C296.716 211.46 297.706 211.438 298.672 211.608L392.288 227.864C394.237 228.208 395.972 229.31 397.111 230.929C398.251 232.548 398.702 234.552 398.368 236.504L389.52 287.336C389.222 289.065 388.324 290.634 386.984 291.767C385.643 292.9 383.946 293.523 382.192 293.528H382.16ZM381.28 290.968C381.925 291.082 382.587 291.067 383.227 290.924C383.866 290.781 384.472 290.513 385.008 290.136C385.541 289.764 385.996 289.289 386.345 288.74C386.694 288.19 386.93 287.577 387.04 286.936L395.872 236.088C395.984 235.444 395.969 234.784 395.827 234.146C395.684 233.508 395.417 232.904 395.041 232.369C394.665 231.834 394.188 231.378 393.636 231.028C393.083 230.678 392.468 230.44 391.824 230.328L298.208 214.072C296.907 213.849 295.572 214.149 294.493 214.908C293.413 215.666 292.678 216.821 292.448 218.12L283.616 268.968C283.503 269.611 283.519 270.27 283.661 270.907C283.804 271.544 284.071 272.147 284.447 272.68C284.823 273.214 285.301 273.668 285.853 274.017C286.405 274.365 287.02 274.602 287.664 274.712L381.28 290.968Z" fill="#405B91"/>
<path d="M336.672 284.488L361.008 262.184L374.48 291.048L336.672 284.488Z" fill="white"/>
<path d="M375.904 292.136L334.864 285.016L361.28 260.792L375.904 292.136ZM338.48 283.96L373.056 289.96L360.736 263.544L338.48 283.96Z" fill="#415B91"/>
<path d="M288.544 276.12L331.696 236.568L355.584 287.768L288.544 276.12Z" fill="white"/>
<path d="M357.008 288.856L286.736 276.6L331.968 235.144L357.008 288.856ZM290.352 275.592L354.16 286.68L331.424 237.944L290.352 275.592Z" fill="#415B91"/>
<path d="M383.008 244.072C382.803 245.247 382.255 246.335 381.432 247.199C380.61 248.063 379.549 248.663 378.385 248.925C377.221 249.186 376.006 249.096 374.893 248.666C373.78 248.237 372.82 247.487 372.133 246.512C371.446 245.536 371.064 244.379 371.035 243.187C371.005 241.994 371.33 240.819 371.969 239.812C372.607 238.804 373.53 238.008 374.62 237.524C375.711 237.041 376.92 236.892 378.096 237.096C378.876 237.231 379.623 237.519 380.292 237.943C380.961 238.367 381.541 238.918 381.997 239.566C382.453 240.214 382.777 240.945 382.95 241.718C383.124 242.491 383.143 243.291 383.008 244.072Z" fill="white"/>
<path d="M377.072 249.896C376.676 249.896 376.28 249.864 375.888 249.8C374.994 249.645 374.14 249.315 373.374 248.829C372.609 248.342 371.947 247.708 371.428 246.964C370.908 246.22 370.542 245.381 370.349 244.494C370.156 243.608 370.141 242.692 370.304 241.8C370.451 240.911 370.775 240.061 371.256 239.3C371.737 238.539 372.365 237.882 373.104 237.368C373.84 236.842 374.671 236.467 375.552 236.263C376.432 236.059 377.344 236.03 378.236 236.179C379.127 236.327 379.981 236.65 380.748 237.128C381.514 237.607 382.179 238.232 382.704 238.968C383.752 240.46 384.167 242.307 383.856 244.104C383.703 244.992 383.376 245.841 382.892 246.602C382.409 247.362 381.78 248.02 381.04 248.536C379.897 249.401 378.506 249.877 377.072 249.896ZM377.072 237.832C376.118 237.832 375.182 238.093 374.367 238.589C373.551 239.084 372.887 239.793 372.446 240.639C372.006 241.486 371.806 242.437 371.868 243.389C371.931 244.341 372.253 245.258 372.8 246.04C373.396 246.879 374.226 247.524 375.187 247.892C376.147 248.261 377.196 248.337 378.2 248.112C379.204 247.886 380.119 247.368 380.829 246.624C381.54 245.879 382.014 244.941 382.192 243.928C382.425 242.568 382.109 241.172 381.314 240.044C380.52 238.917 379.311 238.15 377.952 237.912C377.651 237.861 377.346 237.834 377.04 237.832H377.072Z" fill="#415B91"/>
<path d="M421.712 59.6079H331.264V69.5599H421.712V59.6079Z" fill="#B6D0FB"/>
<path d="M500.304 265.4H470.288V-0.104004H500.304V265.4ZM473.248 262.424H497.344V2.872H473.248V262.424Z" fill="#415B91"/>
<path d="M499.936 29.0318H470.656V-0.200195H499.936V29.0318ZM473.6 26.0238H496.864V2.77581H473.6V26.0238Z" fill="#415B91"/>
<path d="M473.225 0.200654L471.098 2.32764L497.358 28.5868L499.485 26.4598L473.225 0.200654Z" fill="#415B91"/>
<path d="M497.345 0.200854L471.086 26.46L473.213 28.5869L499.472 2.32783L497.345 0.200854Z" fill="#415B91"/>
<path d="M499.936 55.3039H470.656V26.0239H499.936V55.3039ZM473.6 52.2959H496.864V29.0319H473.6V52.2959Z" fill="#415B91"/>
<path d="M473.23 26.4624L471.103 28.5894L497.362 54.8485L499.489 52.7215L473.23 26.4624Z" fill="#415B91"/>
<path d="M497.362 26.4738L471.103 52.7329L473.23 54.8599L499.489 28.6008L497.362 26.4738Z" fill="#415B91"/>
<path d="M499.936 81.5599H470.656V52.2959H499.936V81.5599ZM473.6 78.5519H496.864V55.3039H473.6V78.5519Z" fill="#415B91"/>
<path d="M473.232 52.7353L471.105 54.8623L497.364 81.1214L499.491 78.9944L473.232 52.7353Z" fill="#415B91"/>
<path d="M497.368 52.7516L471.109 79.0107L473.236 81.1377L499.495 54.8786L497.368 52.7516Z" fill="#415B91"/>
<path d="M499.936 107.832H470.656V78.5518H499.936V107.832ZM473.6 104.824H496.864V81.5598H473.6V104.824Z" fill="#415B91"/>
<path d="M473.221 78.9975L471.094 81.1245L497.353 107.384L499.48 105.257L473.221 78.9975Z" fill="#415B91"/>
<path d="M497.353 79.0085L471.094 105.268L473.221 107.395L499.48 81.1355L497.353 79.0085Z" fill="#415B91"/>
<path d="M499.936 134.088H470.656V104.824H499.936V134.088ZM473.6 131.08H496.864V107.832H473.6V131.08Z" fill="#415B91"/>
<path d="M473.238 105.254L471.111 107.381L497.37 133.64L499.497 131.513L473.238 105.254Z" fill="#415B91"/>
<path d="M497.359 105.286L471.1 131.545L473.227 133.672L499.486 107.413L497.359 105.286Z" fill="#415B91"/>
<path d="M499.936 160.344H470.656V131.08H499.936V160.344ZM473.6 157.336H496.864V134.088H473.6V157.336Z" fill="#415B91"/>
<path d="M473.228 131.516L471.101 133.643L497.36 159.902L499.487 157.775L473.228 131.516Z" fill="#415B91"/>
<path d="M497.36 131.56L471.101 157.819L473.228 159.946L499.487 133.687L497.36 131.56Z" fill="#415B91"/>
<path d="M499.936 186.616H470.656V157.336H499.936V186.616ZM473.6 183.608H496.864V160.344H473.6V183.608Z" fill="#415B91"/>
<path d="M473.218 157.778L471.091 159.905L497.35 186.164L499.477 184.037L473.218 157.778Z" fill="#415B91"/>
<path d="M497.367 157.805L471.108 184.064L473.235 186.191L499.494 159.932L497.367 157.805Z" fill="#415B91"/>
<path d="M499.936 212.872H470.656V183.608H499.936V212.872ZM473.6 209.864H496.864V186.616H473.6V209.864Z" fill="#415B91"/>
<path d="M473.235 184.051L471.108 186.178L497.367 212.437L499.494 210.31L473.235 184.051Z" fill="#415B91"/>
<path d="M497.356 184.067L471.097 210.326L473.224 212.453L499.483 186.194L497.356 184.067Z" fill="#415B91"/>
<path d="M499.936 239.144H470.656V209.864H499.936V239.144ZM473.6 236.136H496.864V212.872H473.6V236.136Z" fill="#415B91"/>
<path d="M473.225 210.297L471.098 212.424L497.358 238.683L499.485 236.556L473.225 210.297Z" fill="#415B91"/>
<path d="M497.358 210.341L471.098 236.6L473.225 238.727L499.485 212.467L497.358 210.341Z" fill="#415B91"/>
<path d="M499.936 265.4H470.656V236.136H499.936V265.4ZM473.6 262.392H496.864V239.144H473.6V262.392Z" fill="#415B91"/>
<path d="M473.225 236.57L471.098 238.697L497.358 264.956L499.485 262.829L473.225 236.57Z" fill="#415B91"/>
<path d="M497.354 236.563L471.091 262.817L473.217 264.945L499.481 238.69L497.354 236.563Z" fill="#415B91"/>
<path d="M552.191 54.904H522.911V25.624H552.191V54.904ZM525.919 51.896H549.183V28.6H525.919V51.896Z" fill="#415B91"/>
<path d="M549.606 26.083L523.352 52.3467L525.479 54.4733L551.733 28.2096L549.606 26.083Z" fill="#415B91"/>
<path d="M525.494 26.0722L523.367 28.1992L549.626 54.4583L551.753 52.3314L525.494 26.0722Z" fill="#415B91"/>
<path d="M525.92 54.904H496.656V25.624H525.92V54.904ZM499.664 51.896H522.912V28.6H499.664V51.896Z" fill="#415B91"/>
<path d="M523.348 26.0762L497.094 52.3398L499.221 54.4665L525.475 28.2028L523.348 26.0762Z" fill="#415B91"/>
<path d="M499.232 26.0781L497.105 28.2051L523.364 54.4642L525.491 52.3372L499.232 26.0781Z" fill="#415B91"/>
<path d="M499.664 54.904H470.4V25.624H499.664V54.904ZM473.408 51.896H496.656V28.6H473.408V51.896Z" fill="#415B91"/>
<path d="M473.408 54.904H444.128V25.624H473.408V54.904ZM447.136 51.896H470.4V28.6H447.136V51.896Z" fill="#415B91"/>
<path d="M470.817 26.069L444.558 52.3281L446.685 54.4551L472.944 28.196L470.817 26.069Z" fill="#415B91"/>
<path d="M446.697 26.0688L444.57 28.1958L470.829 54.4549L472.956 52.3279L446.697 26.0688Z" fill="#415B91"/>
<path d="M447.136 54.904H417.872V25.624H447.136V54.904ZM420.88 51.896H444.128V28.6H420.88V51.896Z" fill="#415B91"/>
<path d="M444.572 26.0748L418.313 52.334L420.44 54.461L446.699 28.2018L444.572 26.0748Z" fill="#415B91"/>
<path d="M420.44 26.0859L418.313 28.2129L444.572 54.472L446.699 52.345L420.44 26.0859Z" fill="#415B91"/>
<path d="M420.88 54.904H391.6V25.624H420.88V54.904ZM394.608 51.896H417.872V28.6H394.608V51.896Z" fill="#415B91"/>
<path d="M393.103 54.9038H366.847C366.552 54.8926 366.266 54.8 366.02 54.6362C365.774 54.4724 365.579 54.2438 365.455 53.9758C365.349 53.7066 365.322 53.4124 365.379 53.1286C365.436 52.8448 365.573 52.5834 365.775 52.3758L391.999 26.0718L394.127 28.1998L370.431 51.8958H392.479L418.303 26.0718L420.431 28.1998L394.175 54.4558C393.886 54.7342 393.504 54.894 393.103 54.9038Z" fill="#415B91"/>
<path d="M394.179 26.0761L392.052 28.2031L418.311 54.4622L420.438 52.3353L394.179 26.0761Z" fill="#415B91"/>
<path d="M500.368 294.648H470.288V265.4H500.368V294.648ZM473.376 291.624H497.28V268.376H473.376V291.624Z" fill="#415B91"/>
<path d="M497.728 294.2L470.736 267.944L472.928 265.816L499.92 292.072L497.728 294.2Z" fill="#415B91"/>
<path d="M472.928 294.2L470.736 292.072L497.728 265.816L499.92 267.944L472.928 294.2Z" fill="#415B91"/>
<path d="M500.368 399.688H470.288V370.424H500.368V399.688ZM473.376 396.68H497.28V373.432H473.376V396.68Z" fill="#415B91"/>
<path d="M497.728 399.256L470.736 372.984L472.928 370.856L499.92 397.128L497.728 399.256Z" fill="#415B91"/>
<path d="M472.928 399.256L470.736 397.128L497.728 370.856L499.92 372.984L472.928 399.256Z" fill="#415B91"/>
<path d="M500.368 318.408H470.288V289.144H500.368V318.408ZM473.376 315.4H497.28V292.152H473.376V315.4Z" fill="#415B91"/>
<path d="M497.728 317.976L470.736 291.704L472.928 289.592L499.92 315.848L497.728 317.976Z" fill="#415B91"/>
<path d="M472.928 317.976L470.736 315.848L497.728 289.592L499.92 291.704L472.928 317.976Z" fill="#415B91"/>
<path d="M500.368 344.68H470.288V315.4H500.368V344.68ZM473.376 341.672H497.28V318.408H473.376V341.672Z" fill="#415B91"/>
<path d="M497.728 344.232L470.736 317.976L472.928 315.848L499.92 342.104L497.728 344.232Z" fill="#415B91"/>
<path d="M472.928 344.232L470.736 342.104L497.728 315.848L499.92 317.976L472.928 344.232Z" fill="#415B91"/>
<path d="M500.368 371H470.288V341.672H500.368V371ZM473.376 367.992H497.28V344.68H473.376V367.992Z" fill="#415B91"/>
<path d="M497.728 370.504L470.736 344.232L472.928 342.104L499.92 368.376L497.728 370.504Z" fill="#415B91"/>
<path d="M472.928 370.504L470.736 368.376L497.728 342.104L499.92 344.232L472.928 370.504Z" fill="#415B91"/>
<path d="M164.576 159.048C165.201 158.998 165.785 158.714 166.21 158.253C166.636 157.792 166.872 157.187 166.872 156.56C166.872 155.932 166.636 155.328 166.21 154.867C165.785 154.406 165.201 154.122 164.576 154.072C163.95 154.122 163.367 154.406 162.941 154.867C162.516 155.328 162.279 155.932 162.279 156.56C162.279 157.187 162.516 157.792 162.941 158.253C163.367 158.714 163.95 158.998 164.576 159.048Z" fill="#405B91"/>
<path d="M434.496 107C435.122 106.95 435.705 106.666 436.131 106.205C436.556 105.744 436.793 105.139 436.793 104.512C436.793 103.885 436.556 103.28 436.131 102.819C435.705 102.358 435.122 102.074 434.496 102.024C433.871 102.074 433.287 102.358 432.862 102.819C432.436 103.28 432.2 103.885 432.2 104.512C432.2 105.139 432.436 105.744 432.862 106.205C433.287 106.666 433.871 106.95 434.496 107Z" fill="#405B91"/>
<path d="M546.224 285.16H547.328C547.671 285.187 548.017 285.144 548.342 285.031C548.668 284.918 548.967 284.74 549.22 284.506C549.473 284.272 549.676 283.989 549.814 283.673C549.952 283.357 550.023 283.016 550.023 282.672C550.023 282.327 549.952 281.986 549.814 281.671C549.676 281.355 549.473 281.071 549.22 280.838C548.967 280.604 548.668 280.425 548.342 280.313C548.017 280.2 547.671 280.156 547.328 280.184H546.224C545.88 280.156 545.535 280.2 545.209 280.313C544.883 280.425 544.584 280.604 544.331 280.838C544.078 281.071 543.876 281.355 543.738 281.671C543.599 281.986 543.528 282.327 543.528 282.672C543.528 283.016 543.599 283.357 543.738 283.673C543.876 283.989 544.078 284.272 544.331 284.506C544.584 284.74 544.883 284.918 545.209 285.031C545.535 285.144 545.88 285.187 546.224 285.16Z" fill="#405B91"/>
<path d="M66.1277 321.672C66.7896 321.672 67.4245 321.409 67.8926 320.941C68.3607 320.473 68.6237 319.838 68.6237 319.176C68.6237 318.514 68.3607 317.879 67.8926 317.411C67.4245 316.943 66.7896 316.68 66.1277 316.68C65.4657 316.68 64.8308 316.943 64.3627 317.411C63.8946 317.879 63.6317 318.514 63.6317 319.176C63.6317 319.838 63.8946 320.473 64.3627 320.941C64.8308 321.409 65.4657 321.672 66.1277 321.672Z" fill="#405B91"/>
<path d="M304 82.728C304.625 82.6778 305.209 82.3939 305.634 81.9328C306.06 81.4718 306.296 80.8674 306.296 80.2399C306.296 79.6125 306.06 79.0081 305.634 78.5471C305.209 78.086 304.625 77.8021 304 77.752C303.374 77.8021 302.791 78.086 302.365 78.5471C301.94 79.0081 301.703 79.6125 301.703 80.2399C301.703 80.8674 301.94 81.4718 302.365 81.9328C302.791 82.3939 303.374 82.6778 304 82.728Z" fill="#405B91"/>
</g>
<defs>
<clipPath id="clip0_95_12433">
<rect width="640" height="403" fill="white"/>
</clipPath>
</defs>
</svg>
