<svg width="400" height="400" viewBox="0 0 400 400" fill="none" xmlns="http://www.w3.org/2000/svg">
<path d="M216.932 303H133.609V367.266H216.932V303Z" fill="#EBEBEB"/>
<path d="M196.056 366.813C195.941 366.813 195.848 352.488 195.848 334.821C195.848 317.148 195.942 302.827 196.056 302.827C196.171 302.827 196.264 317.148 196.264 334.821C196.264 352.487 196.171 366.813 196.056 366.813Z" fill="#E0E0E0"/>
<path d="M209.868 352.639H203.479V359.859H209.868V352.639Z" fill="#FAFAFA"/>
<path d="M168.493 303.166H159.028V316.879H168.493V303.166Z" fill="#E0E0E0"/>
<path d="M168.493 353.363H159.028V367.076H168.493V353.363Z" fill="#E0E0E0"/>
<path d="M368.118 286.887H263.057V367.919H368.118V286.887Z" fill="#EBEBEB"/>
<path d="M341.795 367.347C341.68 367.347 341.587 349.285 341.587 327.01C341.587 304.726 341.681 286.668 341.795 286.668C341.909 286.668 342.003 304.726 342.003 327.01C342.004 349.286 341.91 367.347 341.795 367.347Z" fill="#E0E0E0"/>
<path d="M359.209 349.475H351.155V358.58H359.209V349.475Z" fill="#FAFAFA"/>
<path d="M307.041 287.097H295.107V304.387H307.041V287.097Z" fill="#E0E0E0"/>
<path d="M307.041 350.388H295.107V367.679H307.041V350.388Z" fill="#E0E0E0"/>
<path d="M65.1691 289.271C69.4211 287.078 74.4283 286.792 79.1491 287.572C81.6851 287.991 84.3291 288.751 86.0547 290.655C87.7803 292.56 88.1075 295.913 86.1259 297.55C84.9459 298.524 83.3011 298.672 81.7715 298.655C78.0763 298.611 73.9755 297.961 71.0235 300.184C69.3387 301.453 68.2179 303.562 66.2035 304.186C64.2331 304.796 62.0099 303.633 60.9651 301.855C59.9203 300.077 59.8859 297.855 60.3723 295.85C60.3723 295.85 60.8859 291.482 65.1691 289.271Z" fill="#EBEBEB"/>
<path d="M55.4274 270.466C58.0274 274.179 63.081 272.95 65.4242 270.683C67.7674 268.417 68.7578 265.131 69.6594 261.999C71.7194 254.84 73.7962 247.331 72.2642 240.042C71.8066 237.863 70.9914 235.689 69.4602 234.072C67.929 232.455 65.5738 231.494 63.421 232.063C60.873 232.735 59.289 235.231 58.145 237.606C54.781 244.584 52.9994 252.32 52.973 260.067C52.9594 263.684 53.3866 267.479 55.4274 270.466Z" fill="#EBEBEB"/>
<path d="M48.2865 275.794C51.1097 272.444 51.6457 267.556 50.3889 263.36C49.1329 259.162 46.2945 255.591 43.0241 252.676C39.1889 249.259 34.6817 246.599 29.8353 244.895C27.9281 244.224 25.9169 243.696 23.9041 243.888C21.8913 244.08 19.8649 245.108 18.9265 246.899C17.5385 249.546 18.8689 252.756 20.3089 255.376C22.8449 259.991 25.7441 264.406 28.9713 268.568C31.5673 271.915 34.5417 275.216 38.4985 276.729C42.4553 278.242 46.5657 278.063 48.6633 275.319" fill="#EBEBEB"/>
<path d="M55.2514 326.484C55.3002 326.488 55.3794 325.886 55.4866 324.797C55.6058 323.569 55.7562 322.027 55.9346 320.192C56.149 318.255 56.4322 315.948 56.9706 313.437C57.5074 310.932 58.3474 308.218 59.4258 305.464C60.5426 302.728 61.905 300.24 63.497 298.251C65.0778 296.252 66.9154 294.806 68.6434 293.972C70.3658 293.121 71.9106 292.776 72.9778 292.623C74.0546 292.512 74.6578 292.428 74.6578 292.38C74.6586 292.332 74.0538 292.324 72.9482 292.353C71.8522 292.426 70.2442 292.704 68.4282 293.529C66.6074 294.337 64.657 295.806 62.9994 297.845C61.3282 299.876 59.9162 302.419 58.7794 305.204C57.6818 308.006 56.8546 310.748 56.3418 313.308C55.8306 315.862 55.597 318.194 55.4442 320.148C55.2978 322.103 55.2426 323.687 55.2162 324.781C55.1914 325.875 55.2034 326.482 55.2514 326.484Z" fill="#E0E0E0"/>
<path d="M55.5681 322.941C55.5921 322.939 55.6073 322.67 55.6137 322.158C55.6121 321.57 55.6105 320.828 55.6081 319.919C55.6025 317.975 55.6033 315.163 55.7073 311.691C55.8793 304.747 56.4769 297.272 57.6321 286.735C58.7257 276.827 60.1937 265.295 61.7433 257.799C62.0753 256.094 62.4097 254.559 62.7249 253.215C63.0249 251.868 63.2817 250.707 63.5289 249.768C63.7417 248.884 63.9145 248.163 64.0521 247.592C64.1641 247.092 64.2121 246.827 64.1889 246.819C64.1657 246.813 64.0729 247.065 63.9169 247.554C63.7465 248.117 63.5313 248.827 63.2665 249.699C62.9785 250.631 62.6825 251.783 62.3457 253.125C61.9937 254.463 61.6249 255.994 61.2609 257.696C59.7281 264.49 58.1049 273.984 56.9393 284.547C55.7817 295.106 55.2609 304.72 55.2145 311.683C55.1729 315.163 55.2473 317.982 55.3361 319.926C55.3913 320.835 55.4369 321.576 55.4729 322.163C55.5121 322.675 55.5441 322.942 55.5681 322.941Z" fill="#E0E0E0"/>
<path d="M55.6143 304.397C55.6631 304.396 55.6543 303.564 55.5983 302.058C55.5119 300.555 55.3055 298.383 54.8823 295.721C54.4335 293.066 53.8063 289.914 52.8215 286.488C52.3943 284.922 51.3911 281.17 48.9607 275.564C45.7583 267.967 41.4079 261.756 37.6223 257.909C36.7343 256.888 35.7455 256.152 34.9551 255.43C34.5455 255.084 34.1839 254.739 33.8159 254.465C33.4455 254.21 33.1007 253.972 32.7815 253.752C31.5359 252.9 30.8383 252.451 30.8127 252.491C30.7007 252.643 33.6031 254.351 37.2671 258.249C40.9167 262.14 45.1455 268.308 48.3223 275.84C50.0935 279.926 51.3287 283.571 52.2055 286.664C53.2183 290.056 53.8903 293.177 54.3983 295.805C54.8815 298.44 55.1607 300.59 55.3295 302.08C55.4671 303.572 55.5671 304.399 55.6143 304.397Z" fill="#E0E0E0"/>
<path d="M36.4507 334.292L38.3083 359.748H71.0123L72.8699 334.292H36.4507Z" fill="#EBEBEB"/>
<path d="M76.7723 324.257H33.2915V334.29H76.7723V324.257Z" fill="#EBEBEB"/>
<path d="M33.2915 358.774V361.556H35.3347H76.0539V358.774H33.2915Z" fill="#E0E0E0"/>
<path d="M37.3369 366.142L35.3345 361.248H74.4961L72.1593 366.142H37.3369Z" fill="#E0E0E0"/>
<path d="M72.2627 342.611C72.2699 342.617 72.2179 342.697 72.1107 342.845C71.9811 343.017 71.8203 343.231 71.6219 343.493C71.1579 344.087 70.5195 344.904 69.7171 345.931L69.6323 346.04L69.5499 345.927C68.3523 344.271 66.7523 342.058 64.8691 339.453H65.1387C63.7467 341.424 62.1955 343.62 60.5307 345.978L60.3859 346.183L60.2243 345.99C58.5235 343.967 56.6763 341.769 54.7595 339.487L55.0747 339.483C54.9795 339.603 54.8771 339.731 54.7739 339.861C53.0787 341.986 51.4387 344.043 49.8875 345.987L49.7243 346.191L49.5739 345.979C47.9147 343.631 46.3651 341.439 44.9635 339.455L45.2315 339.468C42.9595 342.057 41.0323 344.252 39.5539 345.937L39.4531 346.052L39.3763 345.923C38.6275 344.665 38.0307 343.663 37.5987 342.935C37.4131 342.611 37.2627 342.349 37.1427 342.14C37.0419 341.959 36.9947 341.862 37.0035 341.856C37.0123 341.851 37.0771 341.937 37.1939 342.108C37.3267 342.309 37.4931 342.562 37.6987 342.874C38.1531 343.587 38.7795 344.571 39.5651 345.807L39.3875 345.792C40.8427 344.087 42.7387 341.864 44.9747 339.244L45.1155 339.079L45.2427 339.258C46.6563 341.231 48.2203 343.415 49.8939 345.751L49.5811 345.743C51.1291 343.795 52.7651 341.735 54.4563 339.607C54.5595 339.478 54.6619 339.349 54.7571 339.23L54.9123 339.035L55.0723 339.226C56.9843 341.511 58.8259 343.714 60.5219 345.741L60.2163 345.753C61.8979 343.407 63.4643 341.223 64.8699 339.261L65.0067 339.071L65.1395 339.261C66.9835 341.894 68.5491 344.131 69.7211 345.805L69.5547 345.8C70.3899 344.799 71.0531 344.003 71.5363 343.424C71.7515 343.175 71.9259 342.973 72.0667 342.81C72.1891 342.673 72.2555 342.605 72.2627 342.611Z" fill="#F5F5F5"/>
<path d="M73.3251 334.124C73.3251 334.236 65.1307 334.328 55.0251 334.328C44.9155 334.328 36.7227 334.236 36.7227 334.124C36.7227 334.012 44.9155 333.92 55.0251 333.92C65.1307 333.92 73.3251 334.011 73.3251 334.124Z" fill="#F5F5F5"/>
<path d="M302.742 45.4448L296.038 45.481L296.218 78.841L302.922 78.8048L302.742 45.4448Z" fill="#E0E0E0"/>
<path d="M255.319 45.5332L237.957 45.627L238.056 64.0438L255.418 63.95L255.319 45.5332Z" fill="#EBEBEB"/>
<path d="M272.598 45.4395L255.237 45.5332L255.336 63.95L272.698 63.8562L272.598 45.4395Z" fill="#F5F5F5"/>
<path d="M237.978 50.7231C249.516 50.8183 261.083 50.7511 272.619 50.5639C272.856 50.5599 272.854 50.1967 272.616 50.1951C261.078 50.1311 249.512 50.1879 237.976 50.4071C237.774 50.4103 237.775 50.7215 237.978 50.7231Z" fill="#E0E0E0"/>
<path d="M258.676 63.6436L227.133 63.814L227.214 78.822L258.757 78.6516L258.676 63.6436Z" fill="#EBEBEB"/>
<path d="M290.07 63.4737L258.526 63.644L258.607 78.652L290.151 78.4817L290.07 63.4737Z" fill="#F5F5F5"/>
<path d="M227.149 67.9961C248.104 68.2337 269.132 68.0209 290.085 67.6857C290.323 67.6817 290.321 67.3177 290.084 67.3169C269.128 67.2065 248.099 67.2185 227.149 67.6801C226.944 67.6849 226.945 67.9945 227.149 67.9961Z" fill="#E0E0E0"/>
<path d="M337.559 78.8306H215.354V84.2074H337.559V78.8306Z" fill="#E0E0E0"/>
<path d="M240.322 81.416H235.361V99.7632H240.322V81.416Z" fill="#E0E0E0"/>
<path d="M314.378 81.416H309.417V99.7632H314.378V81.416Z" fill="#E0E0E0"/>
<path d="M309.284 33.0043L302.58 33.0405L302.827 78.9221L309.531 78.8859L309.284 33.0043Z" fill="#EBEBEB"/>
<path d="M319.76 41.5458L309.342 41.6021L309.543 78.7837L319.961 78.7274L319.76 41.5458Z" fill="#F5F5F5"/>
<path d="M319.683 48.7208C319.683 48.8208 317.351 48.9016 314.475 48.9016C311.597 48.9016 309.266 48.8208 309.266 48.7208C309.266 48.6208 311.598 48.54 314.475 48.54C317.351 48.5408 319.683 48.6216 319.683 48.7208Z" fill="#E0E0E0"/>
<path d="M319.683 47.1593C319.683 47.2593 317.351 47.3401 314.475 47.3401C311.597 47.3401 309.266 47.2593 309.266 47.1593C309.266 47.0593 311.598 46.9785 314.475 46.9785C317.351 46.9785 319.683 47.0593 319.683 47.1593Z" fill="#E0E0E0"/>
<path d="M319.683 73.1447C319.683 73.2447 317.351 73.3255 314.475 73.3255C311.597 73.3255 309.266 73.2447 309.266 73.1447C309.266 73.0447 311.598 72.9639 314.475 72.9639C317.351 72.9647 319.683 73.0455 319.683 73.1447Z" fill="#E0E0E0"/>
<path d="M319.683 71.5831C319.683 71.6831 317.351 71.7639 314.475 71.7639C311.597 71.7639 309.266 71.6831 309.266 71.5831C309.266 71.4831 311.598 71.4023 314.475 71.4023C317.351 71.4023 319.683 71.4831 319.683 71.5831Z" fill="#E0E0E0"/>
<path d="M314.642 68.1754C314.542 68.1754 314.461 64.4242 314.461 59.7978C314.461 55.1698 314.542 51.4194 314.642 51.4194C314.742 51.4194 314.823 55.1698 314.823 59.7978C314.823 64.4242 314.741 68.1754 314.642 68.1754Z" fill="#E0E0E0"/>
<path d="M331.135 50.689H319.796V78.7538H331.135V50.689Z" fill="#EBEBEB"/>
<path d="M305.827 42.7777C306.891 42.7777 307.754 41.9149 307.754 40.8505C307.754 39.7862 306.891 38.9233 305.827 38.9233C304.763 38.9233 303.9 39.7862 303.9 40.8505C303.9 41.9149 304.763 42.7777 305.827 42.7777Z" fill="#E0E0E0"/>
<path d="M306.423 46.1504H305.232V73.4448H306.423V46.1504Z" fill="#E0E0E0"/>
<path d="M371.726 367.481C371.726 367.596 294.835 367.689 200.008 367.689C105.148 367.689 28.2744 367.595 28.2744 367.481C28.2744 367.366 105.148 367.273 200.008 367.273C294.835 367.273 371.726 367.366 371.726 367.481Z" fill="#263238"/>
<path d="M119.367 73.8809C123.123 78.4377 125.206 84.3425 125.142 90.2473C125.105 93.6217 124.483 97.3425 126.447 100.087C127.936 102.17 130.653 103.213 131.863 105.47C133.319 108.185 132.078 111.614 132.974 114.561C134.243 118.738 139.137 120.486 142.039 123.749C144.555 126.578 145.486 130.719 144.472 134.368C143.459 138.017 140.55 141.07 136.971 142.308C135.05 142.973 132.853 143.115 131.034 142.209C129.071 141.23 127.859 139.224 126.876 137.264C124.944 133.412 108.007 112.566 107.047 108.365" fill="#263238"/>
<path d="M107.046 68.9664C100.12 67.8512 93.4633 72.4496 90.5449 78.8288C87.6265 85.208 87.5473 92.4632 87.3321 99.4752C87.1169 106.487 86.6241 113.806 83.0449 119.84C80.7729 123.67 77.2553 127.028 76.7033 131.446C76.2097 135.402 78.2569 139.386 77.5769 143.314C76.9849 146.734 74.3793 149.71 74.4825 153.179C74.6065 157.353 78.8993 160.498 83.0737 160.61C87.2473 160.722 91.1473 158.534 94.4193 155.942C99.7289 151.734 104.033 146.265 106.874 140.115" fill="#263238"/>
<path d="M95.6519 85.4824C94.7367 78.1784 100.021 71.5032 107.437 70.7968C114.428 70.1304 120.641 75.336 121.688 82.2792C122.606 88.3664 123.396 94.5104 123.368 96.7416C123.282 103.471 119.345 106.09 117.749 106.878C117.385 107.058 116.38 107.261 115.977 107.318C115.953 107.322 115.935 107.346 115.94 107.37L117.434 115.095C118.112 120.157 115.286 124.67 110.233 125.407C105.164 126.146 101.201 122.258 100.426 117.194L95.6519 85.4824Z" fill="#FFBE9D"/>
<path d="M120.312 85.227C120.2 85.3846 119.312 84.9078 118.173 85.0766C117.033 85.2294 116.283 85.9374 116.139 85.8158C116.069 85.763 116.167 85.4942 116.492 85.1758C116.812 84.8598 117.385 84.5142 118.096 84.4134C118.806 84.3142 119.441 84.4878 119.823 84.7054C120.212 84.9238 120.367 85.1558 120.312 85.227Z" fill="#263238"/>
<path d="M110.181 87.6879C110.07 87.8455 109.181 87.3687 108.043 87.5375C106.904 87.6895 106.153 88.3975 106.009 88.2759C105.939 88.2231 106.035 87.9551 106.362 87.6367C106.682 87.3207 107.256 86.9751 107.965 86.8743C108.676 86.7751 109.311 86.9487 109.693 87.1663C110.081 87.3847 110.237 87.6167 110.181 87.6879Z" fill="#263238"/>
<path d="M114.334 93.7942C114.32 93.7302 115.009 93.5046 116.136 93.191C116.422 93.1182 116.689 93.0206 116.709 92.815C116.747 92.595 116.58 92.299 116.389 91.9814C116.013 91.3174 115.62 90.6214 115.206 89.8918C113.552 86.9126 112.309 84.4454 112.429 84.3798C112.55 84.3142 113.989 86.6758 115.643 89.655C116.044 90.391 116.427 91.0918 116.792 91.763C116.95 92.0774 117.194 92.4246 117.109 92.8822C117.063 93.111 116.873 93.2998 116.693 93.3774C116.515 93.4614 116.352 93.4886 116.209 93.5182C115.064 93.7494 114.349 93.859 114.334 93.7942Z" fill="#263238"/>
<path d="M115.931 107.325C115.931 107.325 111.585 108.327 105.602 105.822C105.602 105.822 108.185 111.383 116.334 109.406L115.931 107.325Z" fill="#EB996E"/>
<path d="M109.609 84.7037C109.542 85.0301 108.383 85.0485 107.07 85.4045C105.75 85.7341 104.729 86.2821 104.511 86.0301C104.413 85.9085 104.558 85.5901 104.95 85.2261C105.338 84.8637 105.986 84.4789 106.775 84.2725C107.565 84.0677 108.318 84.0885 108.834 84.2149C109.353 84.3421 109.636 84.5493 109.609 84.7037Z" fill="#263238"/>
<path d="M119.377 82.7033C119.214 82.9913 118.391 82.8369 117.445 82.9625C116.496 83.0545 115.728 83.3905 115.505 83.1465C115.405 83.0265 115.493 82.7489 115.806 82.4537C116.115 82.1593 116.661 81.8761 117.313 81.8009C117.964 81.7273 118.56 81.8801 118.927 82.0969C119.299 82.3137 119.447 82.5641 119.377 82.7033Z" fill="#263238"/>
<path d="M107.713 89.1592C107.792 89.6536 108.274 89.9952 108.793 89.9232C109.309 89.8512 109.666 89.3928 109.589 88.8984C109.51 88.404 109.027 88.0616 108.51 88.1336C107.992 88.2056 107.635 88.664 107.713 89.1592Z" fill="#263238"/>
<path d="M117.799 86.9771C117.876 87.4715 118.36 87.8131 118.878 87.7411C119.395 87.6691 119.752 87.2107 119.674 86.7163C119.596 86.2219 119.112 85.8795 118.596 85.9515C118.077 86.0235 117.72 86.4827 117.799 86.9771Z" fill="#263238"/>
<path d="M116.126 96.0128C115.394 95.8008 114.762 96.172 114.466 96.7032C114.168 97.2344 114.239 97.9616 114.667 98.3944C115.095 98.828 115.857 98.896 116.33 98.512C116.65 98.2512 116.811 97.8352 116.852 97.424C116.89 97.044 116.828 96.6376 116.594 96.3368C116.359 96.0352 115.926 95.8736 115.577 96.0288" fill="#EB996E"/>
<path d="M120.8 76.8345C120.279 74.3033 118.536 72.1441 116.415 70.6689C114.612 69.4161 112.48 68.5865 110.286 68.5193C108.092 68.4521 105.843 69.1897 104.258 70.7081C103.086 71.8305 102.486 73.4209 102.431 75.0417L102.558 73.9233C102.23 74.8417 102.23 75.8393 102.573 76.7425C102.574 76.7441 102.574 76.7465 102.574 76.7481L102.573 76.7425C102.758 77.2329 102.981 77.7233 103.178 78.2153C103.738 79.6137 104.823 80.7937 106.168 81.4697C106.788 81.7809 107.475 81.9897 108.169 81.9569C108.862 81.9241 109.561 81.6257 109.982 81.0737C110.583 80.2857 110.513 79.1929 110.415 78.2065C111.01 79.1361 111.642 80.1001 112.598 80.6505C113.555 81.2009 114.937 81.1817 115.61 80.3065C116.262 79.4601 116.004 78.2433 115.627 77.2433C116.238 78.1753 117.114 78.9321 118.125 79.4025C118.684 79.6625 119.344 79.8329 119.91 79.5881C120.39 79.3801 120.715 78.8993 120.837 78.3905C120.96 77.8825 120.906 77.3473 120.8 76.8345Z" fill="#263238"/>
<path d="M115.02 78.924C114.947 78.9264 114.959 77.9752 114.652 76.5C114.343 75.0496 113.609 72.9992 111.889 71.484C111.042 70.736 110.068 70.2184 109.121 69.9896C108.173 69.7552 107.272 69.7832 106.545 69.9248C105.074 70.224 104.361 70.9216 104.317 70.8488C104.303 70.8328 104.456 70.6456 104.808 70.3912C105.157 70.1368 105.721 69.832 106.481 69.6376C107.237 69.4504 108.192 69.3872 109.209 69.616C110.227 69.84 111.27 70.3816 112.165 71.172C113.983 72.7752 114.701 74.9488 114.941 76.444C115.064 77.2056 115.091 77.8288 115.085 78.2576C115.079 78.6888 115.045 78.9248 115.02 78.924Z" fill="#455A64"/>
<path d="M188.699 172.197L157.939 160.003C157.939 160.003 142.18 139.338 142.509 138.937L131.448 151.051L147.525 172.815L184.779 181.535L202.422 181.678C201.057 174.892 188.699 172.197 188.699 172.197Z" fill="#FFBE9D"/>
<path d="M121.653 113.247L117.465 111.624L99.3693 113.918V117.116L98.8509 117.179C98.8509 117.179 93.2301 118.2 87.7653 121.481C81.1485 125.454 77.7093 133.116 78.9349 140.737C79.6709 145.313 81.0973 150.876 83.8453 154.09C89.1005 160.238 93.9005 152.64 93.9005 152.64C93.9005 152.64 97.1997 160.164 97.0101 163.722C96.8517 166.702 95.5333 172.912 95.1093 174.851C95.0381 175.178 95.2525 175.493 95.5813 175.554L133.757 182.612L133.943 173.281L132.729 134.904L131.044 119.998C131.044 120 131.097 112.879 121.653 113.247Z" fill="#0C8C6B"/>
<path d="M130.458 117.521L145.014 138.551L133.295 152.825L130.458 117.521Z" fill="#0C8C6B"/>
<path d="M133.578 161.776C133.549 161.775 133.53 161.292 133.521 160.419C133.509 159.475 133.493 158.23 133.474 156.723C133.399 153.607 133.223 149.297 132.602 144.582C131.999 139.863 131.082 135.648 130.381 132.61C130.036 131.143 129.751 129.93 129.535 129.011C129.336 128.161 129.239 127.687 129.266 127.68C129.294 127.673 129.444 128.132 129.692 128.971C129.941 129.808 130.279 131.027 130.667 132.54C131.443 135.566 132.41 139.787 133.016 144.529C133.64 149.266 133.769 153.597 133.769 156.721C133.754 158.284 133.732 159.549 133.683 160.422C133.643 161.295 133.607 161.777 133.578 161.776Z" fill="#263238"/>
<path d="M97.7623 129.8C97.7599 129.867 96.6575 129.853 94.8855 129.948C93.1135 130.04 90.6711 130.284 88.0215 130.829C85.3719 131.38 83.0335 132.128 81.3711 132.747C79.7071 133.364 78.7007 133.814 78.6719 133.753C78.6591 133.728 78.8983 133.588 79.3415 133.357C79.7831 133.123 80.4391 132.818 81.2631 132.472C82.9103 131.779 85.2599 130.978 87.9367 130.421C90.6135 129.869 93.0879 129.671 94.8751 129.653C95.7687 129.643 96.4919 129.662 96.9903 129.702C97.4887 129.738 97.7631 129.772 97.7623 129.8Z" fill="#FAFAFA"/>
<path d="M131.478 139.429C131.487 139.482 130.797 139.649 129.664 139.823C128.531 139.997 126.954 140.165 125.205 140.225C123.455 140.285 121.869 140.225 120.728 140.129C119.585 140.034 118.885 139.914 118.89 139.86C118.895 139.8 119.603 139.815 120.742 139.835C121.881 139.856 123.454 139.868 125.19 139.809C126.925 139.749 128.493 139.629 129.629 139.531C130.765 139.433 131.469 139.369 131.478 139.429Z" fill="#FAFAFA"/>
<path d="M138.161 129.91C138.235 129.988 136.946 131.275 135.038 132.437C133.135 133.607 131.402 134.168 131.367 134.066C131.321 133.952 132.954 133.229 134.821 132.081C136.692 130.942 138.08 129.817 138.161 129.91Z" fill="#FAFAFA"/>
<path d="M132.278 120.159C132.35 120.23 130.633 121.773 128.038 122.861C125.451 123.967 123.149 124.126 123.147 124.025C123.126 123.897 125.351 123.559 127.876 122.477C130.409 121.417 132.201 120.054 132.278 120.159Z" fill="#FAFAFA"/>
<path d="M133.072 155.709C133.083 155.735 132.814 155.875 132.316 156.107C131.82 156.342 131.084 156.643 130.162 156.981C128.32 157.659 125.698 158.415 122.731 158.875C119.762 159.327 117.034 159.393 115.073 159.299C114.092 159.254 113.3 159.187 112.756 159.111C112.212 159.041 111.913 158.988 111.916 158.959C111.922 158.891 113.13 158.989 115.081 159.005C117.03 159.023 119.728 158.911 122.669 158.463C125.607 158.009 128.214 157.306 130.068 156.703C131.923 156.102 133.046 155.646 133.072 155.709Z" fill="#FAFAFA"/>
<path d="M133.369 166.556C133.374 166.568 133.257 166.635 133.027 166.749C132.752 166.88 132.418 167.039 132.014 167.23C131.134 167.648 129.83 168.189 128.198 168.8C126.568 169.416 124.591 170.054 122.368 170.665C120.139 171.254 117.662 171.804 115.033 172.22C112.401 172.62 109.872 172.847 107.57 172.96C105.266 173.052 103.188 173.044 101.447 172.949C99.7072 172.862 98.3016 172.74 97.336 172.609C96.8936 172.549 96.5272 172.499 96.2248 172.458C95.9712 172.419 95.8392 172.392 95.8408 172.377C95.8424 172.363 95.9776 172.362 96.2336 172.375C96.5376 172.395 96.9056 172.419 97.3512 172.448C98.3192 172.529 99.7232 172.605 101.458 172.654C103.192 172.71 105.259 172.688 107.55 172.576C109.839 172.442 112.35 172.205 114.968 171.807C117.582 171.393 120.046 170.858 122.269 170.292C124.485 169.705 126.462 169.1 128.098 168.521C129.735 167.949 131.051 167.451 131.949 167.08C132.364 166.917 132.708 166.782 132.991 166.672C133.234 166.584 133.362 166.543 133.369 166.556Z" fill="#FAFAFA"/>
<path d="M63.1745 336.622L58.8505 356.168L50.9729 370.642C50.4049 371.685 50.8393 372.99 51.9185 373.486C52.5233 373.764 53.2185 373.734 53.7945 373.402C57.4593 371.284 70.9033 363.427 71.1393 361.979C71.4129 360.302 77.0689 341.664 77.0689 341.664L63.1745 336.622Z" fill="#0C8C6B"/>
<g opacity="0.6">
<path d="M51.9185 373.486L71.4617 360.667L71.2593 361.491C71.0849 362.203 70.6657 362.832 70.0713 363.261C68.4809 364.409 64.0201 367.482 53.8529 373.417C53.2617 373.762 52.5329 373.789 51.9185 373.486Z" fill="white"/>
</g>
<g opacity="0.6">
<path d="M69.0094 353.417C68.4398 353.634 68.0998 354.332 68.2934 354.91C68.487 355.488 69.1934 355.84 69.767 355.633C70.3406 355.426 70.7742 354.601 70.5174 354.048C70.2606 353.495 69.4078 353.127 68.9014 353.466" fill="white"/>
</g>
<path d="M58.4463 366.082C58.3231 366.108 58.1343 364.982 57.1127 364.151C56.1159 363.29 54.9743 363.3 54.9791 363.174C54.9743 363.122 55.2567 363.032 55.7279 363.079C56.1951 363.123 56.8367 363.349 57.3951 363.814C57.9511 364.282 58.2847 364.875 58.4095 365.328C58.5383 365.783 58.4983 366.078 58.4463 366.082Z" fill="#263238"/>
<path d="M56.4223 368.346C56.3095 368.407 55.8399 367.622 54.9055 367.087C53.9823 366.532 53.0687 366.506 53.0671 366.377C53.0351 366.264 54.0719 366.081 55.1279 366.708C56.1903 367.324 56.5367 368.318 56.4223 368.346Z" fill="#263238"/>
<path d="M61.8426 363.377C61.729 363.447 61.0138 362.235 59.6322 361.277C58.2658 360.296 56.885 360.028 56.913 359.897C56.9066 359.785 58.4178 359.869 59.8858 360.917C61.3642 361.95 61.9498 363.345 61.8426 363.377Z" fill="#263238"/>
<path d="M63.6539 357.546C63.5731 357.65 62.6091 356.937 61.2243 356.544C59.8443 356.131 58.6483 356.214 58.6363 356.084C58.6059 355.976 59.8627 355.682 61.3467 356.122C62.8347 356.548 63.7379 357.47 63.6539 357.546Z" fill="#263238"/>
<path d="M65.0682 351.84C64.9802 351.938 64.0594 351.025 62.5666 350.73C61.0802 350.402 59.8714 350.87 59.8298 350.746C59.8082 350.697 60.0802 350.506 60.5922 350.356C61.1002 350.206 61.8546 350.134 62.657 350.3C63.4586 350.469 64.121 350.837 64.5266 351.178C64.9354 351.519 65.1074 351.804 65.0682 351.84Z" fill="#263238"/>
<path d="M62.8671 349.652C62.8423 349.646 62.8623 349.374 63.0207 348.91C63.1791 348.45 63.4863 347.79 64.0775 347.128C64.3759 346.818 64.7087 346.407 65.3143 346.285C65.6159 346.222 66.0055 346.37 66.1735 346.685C66.3407 346.991 66.3343 347.328 66.2655 347.638C65.9423 348.867 64.5903 349.801 63.1583 349.638C61.7271 349.449 60.6599 348.343 60.3695 347.142C60.3159 346.837 60.3159 346.478 60.5471 346.186C60.7767 345.891 61.2039 345.856 61.4711 345.973C62.0271 346.201 62.3103 346.622 62.5887 346.953C63.1263 347.656 63.4023 348.324 63.5447 348.789C63.6879 349.257 63.7039 349.529 63.6783 349.534C63.5975 349.568 63.4215 348.458 62.3463 347.147C62.0695 346.838 61.7575 346.458 61.3511 346.317C61.1535 346.247 60.9591 346.285 60.8471 346.43C60.7343 346.569 60.7151 346.823 60.7671 347.066C61.0199 348.052 61.9975 349.06 63.2103 349.201C64.4151 349.35 65.6031 348.528 65.8719 347.541C65.9335 347.302 65.9287 347.046 65.8359 346.873C65.7447 346.702 65.5623 346.617 65.3655 346.646C64.9495 346.705 64.5959 347.051 64.3047 347.34C63.1359 348.566 62.9487 349.692 62.8671 349.652Z" fill="#263238"/>
<g opacity="0.3">
<path d="M62.6696 338.742L61.7344 343.226L75.8888 345.574L77.0688 341.664L63.1744 336.622L62.6696 338.742Z" fill="black"/>
</g>
<path d="M126.418 343.855L125.249 359.474C125.249 359.474 140.733 365.908 140.798 368.815L110.433 367.637L111.254 343.226L126.418 343.855Z" fill="#0C8C6B"/>
<g opacity="0.6">
<path d="M115.911 357.794C115.318 357.932 114.886 358.577 114.999 359.176C115.113 359.775 115.765 360.22 116.361 360.093C116.957 359.965 117.499 359.207 117.319 358.624C117.139 358.041 116.345 357.561 115.797 357.828" fill="white"/>
</g>
<g opacity="0.6">
<path d="M110.433 367.638L110.612 365.18L139.659 367.228C139.659 367.228 140.988 367.869 140.798 368.815L110.433 367.638Z" fill="white"/>
</g>
<path d="M125.748 359.338C125.738 359.486 124.994 359.525 124.246 359.974C123.486 360.402 123.085 361.03 122.95 360.966C122.815 360.932 123.07 360.054 123.986 359.527C124.896 358.992 125.786 359.204 125.748 359.338Z" fill="#263238"/>
<path d="M128.881 360.779C128.91 360.924 128.257 361.151 127.73 361.759C127.185 362.351 127.031 363.024 126.884 363.012C126.744 363.03 126.675 362.158 127.345 361.415C128.009 360.667 128.884 360.639 128.881 360.779Z" fill="#263238"/>
<path d="M130.543 364.661C130.407 364.688 130.229 363.939 130.641 363.141C131.048 362.341 131.76 362.048 131.817 362.173C131.897 362.298 131.429 362.717 131.101 363.377C130.757 364.029 130.69 364.653 130.543 364.661Z" fill="#263238"/>
<path d="M125.619 355.75C125.552 355.882 124.879 355.651 124.039 355.676C123.198 355.683 122.535 355.939 122.463 355.81C122.381 355.699 123.039 355.175 124.029 355.16C125.019 355.137 125.696 355.636 125.619 355.75Z" fill="#263238"/>
<g opacity="0.3">
<path d="M126.183 346.948L125.978 349.732L111.059 349.018L111.16 345.798L126.183 346.948Z" fill="black"/>
</g>
<path d="M125.797 352.595C125.796 352.656 125.206 352.725 124.276 352.528C123.813 352.43 123.27 352.255 122.704 351.978C122.421 351.839 122.133 351.674 121.849 351.48C121.712 351.385 121.549 351.287 121.403 351.105C121.245 350.944 121.166 350.547 121.365 350.314C121.53 350.087 121.809 349.996 122.029 350C122.253 350.002 122.433 350.054 122.596 350.101C122.931 350.196 123.244 350.321 123.529 350.462C124.099 350.748 124.557 351.1 124.895 351.436C125.574 352.116 125.793 352.679 125.741 352.706C125.673 352.752 125.348 352.275 124.652 351.708C124.305 351.427 123.859 351.131 123.325 350.891C123.058 350.773 122.769 350.668 122.463 350.588C122.145 350.491 121.871 350.479 121.783 350.619C121.751 350.672 121.746 350.694 121.809 350.791C121.876 350.88 122.003 350.97 122.137 351.065C122.398 351.251 122.663 351.413 122.922 351.555C123.441 351.839 123.941 352.038 124.37 352.176C125.232 352.451 125.802 352.514 125.797 352.595Z" fill="#263238"/>
<path d="M125.595 352.799C125.541 352.82 125.268 352.277 125.251 351.314C125.244 350.837 125.316 350.261 125.523 349.657C125.628 349.356 125.767 349.049 125.946 348.749C126.136 348.457 126.369 348.063 126.946 348.019C127.247 348.02 127.488 348.264 127.565 348.468C127.657 348.677 127.67 348.854 127.699 349.031C127.741 349.388 127.721 349.735 127.661 350.055C127.54 350.697 127.254 351.225 126.95 351.601C126.326 352.365 125.701 352.517 125.69 352.467C125.644 352.391 126.172 352.125 126.655 351.385C126.893 351.021 127.111 350.537 127.192 349.975C127.233 349.695 127.24 349.397 127.198 349.095C127.163 348.77 127.053 348.505 126.93 348.533C126.78 348.525 126.513 348.758 126.379 349.011C126.213 349.277 126.077 349.551 125.97 349.821C125.758 350.362 125.655 350.884 125.617 351.327C125.54 352.218 125.677 352.78 125.595 352.799Z" fill="#263238"/>
<path d="M94.9787 175.444C94.9787 175.444 90.1571 175.655 86.9803 192.072C83.8035 208.49 59.3843 341.504 59.3843 341.504L77.0691 341.664L110.433 215.204L108.216 345.574L126.183 346.949C126.183 346.949 139.667 202.72 139.793 194.328C139.951 183.866 133.943 173.283 133.943 173.283L94.9787 175.444Z" fill="#263238"/>
<path d="M119.287 174.038C119.4 174.061 117.564 183.441 115.188 194.985C112.812 206.533 110.794 215.872 110.681 215.849C110.568 215.825 112.404 206.449 114.78 194.901C117.156 183.357 119.174 174.015 119.287 174.038Z" fill="#455A64"/>
<path d="M122.044 176.38C122.014 176.339 122.524 176.188 123.072 176.679C123.324 176.915 123.573 177.307 123.555 177.81C123.545 178.319 123.16 178.814 122.649 179.023C122.142 179.243 121.519 179.172 121.148 178.824C120.776 178.487 120.668 178.035 120.676 177.689C120.708 176.954 121.172 176.695 121.18 176.745C121.235 176.787 120.919 177.087 120.97 177.681C120.997 177.964 121.12 178.309 121.397 178.531C121.664 178.759 122.099 178.803 122.488 178.639C122.877 178.475 123.149 178.133 123.172 177.783C123.206 177.431 123.046 177.101 122.862 176.884C122.472 176.433 122.036 176.449 122.044 176.38Z" fill="#455A64"/>
<path d="M121.278 182.882C121.268 182.832 121.776 182.899 122.053 183.548C122.176 183.854 122.232 184.298 122.004 184.725C121.781 185.162 121.233 185.421 120.705 185.374C120.176 185.339 119.675 184.998 119.522 184.532C119.363 184.074 119.487 183.644 119.656 183.36C120.031 182.762 120.543 182.775 120.524 182.823C120.55 182.886 120.148 182.984 119.916 183.498C119.808 183.744 119.751 184.086 119.88 184.393C119.997 184.7 120.34 184.926 120.737 184.958C121.134 184.988 121.508 184.817 121.672 184.532C121.846 184.249 121.844 183.902 121.775 183.643C121.625 183.1 121.243 182.94 121.278 182.882Z" fill="#455A64"/>
<path d="M104.33 176.545C104.354 176.553 104.291 176.848 104.12 177.367C103.949 177.887 103.651 178.622 103.188 179.486C102.276 181.207 100.575 183.429 98.0556 185.088C95.5364 186.749 92.8236 187.436 90.882 187.595C89.906 187.681 89.1124 187.665 88.5684 187.617C88.0244 187.57 87.7276 187.511 87.73 187.487C87.734 187.408 88.938 187.545 90.85 187.303C92.75 187.073 95.3756 186.357 97.8268 184.742C100.277 183.127 101.97 180.997 102.932 179.342C103.907 177.679 104.256 176.518 104.33 176.545Z" fill="#455A64"/>
<path d="M138.742 188.213C138.725 188.236 138.537 188.122 138.211 187.893C137.879 187.672 137.436 187.297 136.928 186.796C135.91 185.797 134.708 184.173 133.915 182.126C133.129 180.076 132.93 178.065 133.015 176.641C133.054 175.928 133.131 175.354 133.229 174.967C133.318 174.578 133.38 174.368 133.408 174.373C133.483 174.387 133.312 175.249 133.31 176.648C133.302 178.044 133.541 179.984 134.303 181.976C135.075 183.964 136.199 185.564 137.142 186.592C138.083 187.628 138.787 188.153 138.742 188.213Z" fill="#455A64"/>
<path d="M87.9453 143.805L95.8029 144.24C96.2997 146.787 98.0245 150.682 98.0245 150.682C104.349 139.704 109.253 124.995 110.47 119.083C110.292 118.493 110.083 117.839 109.821 117.109C109.518 116.267 109.777 114.671 109.921 113.785C110.133 112.469 110.501 110.698 110.612 109.879C110.949 107.381 111.351 106.989 112.222 107.271C113.408 107.655 111.736 114.286 112.708 114.43C113.23 114.508 113.868 112.236 114.053 110.372C114.239 108.508 115.081 102.774 115.697 102.392C116.6 101.832 117.388 102.717 117.16 104.574C116.929 106.453 116.638 112.055 117.623 112.131C118.593 112.206 119.409 102.7 119.409 102.7C119.409 102.7 119.255 100.631 120.396 100.681C122.452 100.77 120.845 110.792 120.669 111.741C120.546 112.402 121.615 112.523 121.709 111.806C121.805 111.069 122.302 102.3 124.396 102.37C126.003 102.425 123.15 110.629 124.053 112.531C124.956 114.433 125.583 106.072 127.118 106.187C127.689 106.23 128.112 106.342 127.062 111.073C126.498 113.617 124.841 118.292 123.392 122.163C120.96 135.282 110.284 177.253 93.5477 169.57C84.1829 165.271 79.8125 143.986 79.8125 143.986L87.9453 143.805Z" fill="#FFBE9D"/>
<path d="M123.391 122.168C123.383 122.165 123.41 122.068 123.471 121.881C123.543 121.669 123.635 121.397 123.751 121.056C124.012 120.3 124.379 119.239 124.846 117.888C125.312 116.511 125.885 114.824 126.455 112.843C126.747 111.853 126.983 110.782 127.204 109.632C127.31 109.059 127.42 108.468 127.486 107.86C127.514 107.559 127.546 107.248 127.528 106.95C127.506 106.638 127.458 106.384 127.212 106.379C126.957 106.31 126.787 106.52 126.612 106.785C126.452 107.052 126.326 107.358 126.215 107.672C125.991 108.303 125.815 108.973 125.641 109.66C125.467 110.347 125.306 111.052 125.097 111.772C124.971 112.135 124.916 112.485 124.617 112.876C124.561 112.923 124.511 112.986 124.398 113.008C124.275 113.04 124.184 112.992 124.097 112.94C123.982 112.837 123.927 112.734 123.876 112.638C123.787 112.436 123.732 112.228 123.708 112.028C123.564 110.422 123.931 108.87 124.181 107.259C124.319 106.456 124.464 105.643 124.57 104.82C124.621 104.408 124.664 103.994 124.669 103.585C124.684 103.206 124.618 102.693 124.452 102.621C124.247 102.544 123.876 102.776 123.68 103.115C123.46 103.448 123.296 103.844 123.156 104.249C122.879 105.063 122.698 105.931 122.541 106.808C122.389 107.689 122.27 108.587 122.172 109.496C122.127 109.952 122.082 110.41 122.037 110.87L121.977 111.564C121.96 111.752 121.96 112.145 121.659 112.371C121.381 112.579 121.009 112.601 120.712 112.408C120.564 112.312 120.448 112.133 120.425 111.953C120.406 111.862 120.423 111.777 120.429 111.696L120.459 111.525C120.53 111.061 120.601 110.595 120.673 110.127C120.805 109.188 120.92 108.238 121.011 107.28C121.1 106.323 121.167 105.356 121.182 104.385C121.184 103.425 121.176 102.419 120.9 101.539C120.81 101.272 120.662 101.029 120.497 100.96C120.328 100.899 120.083 100.96 119.957 101.132C119.68 101.521 119.634 102.163 119.656 102.686L119.656 102.712L119.655 102.726C119.484 104.606 119.28 106.454 119.008 108.27C118.868 109.178 118.72 110.076 118.492 110.965C118.436 111.188 118.368 111.409 118.289 111.632C118.183 111.853 118.154 112.079 117.836 112.322C117.561 112.453 117.357 112.304 117.248 112.193C117.132 112.071 117.084 111.95 117.031 111.832C116.938 111.596 116.892 111.368 116.851 111.142C116.596 109.339 116.702 107.604 116.804 105.902C116.837 105.047 117.046 104.2 116.933 103.449C116.879 103.077 116.734 102.704 116.487 102.538C116.365 102.458 116.226 102.44 116.076 102.475C116.002 102.498 115.927 102.524 115.853 102.569C115.781 102.629 115.796 102.607 115.74 102.708C115.429 103.361 115.278 104.188 115.11 104.935C114.952 105.7 114.818 106.461 114.696 107.213C114.574 107.965 114.466 108.708 114.37 109.439C114.27 110.164 114.22 110.899 114.078 111.613C113.942 112.325 113.777 113.018 113.518 113.683C113.452 113.848 113.377 114.012 113.287 114.174C113.175 114.324 113.112 114.52 112.805 114.614C112.631 114.662 112.479 114.543 112.4 114.443C112.333 114.34 112.3 114.241 112.274 114.147C112.233 113.962 112.216 113.786 112.209 113.614C112.192 112.251 112.394 111 112.462 109.793C112.5 109.194 112.527 108.602 112.457 108.056C112.421 107.799 112.339 107.497 112.192 107.437C111.977 107.352 111.7 107.307 111.54 107.423C111.186 107.678 111.063 108.264 110.948 108.732C110.835 109.226 110.783 109.717 110.692 110.19C110.359 112.082 110.007 113.707 109.836 115.036C109.757 115.7 109.726 116.299 109.81 116.798C109.921 117.282 110.084 117.711 110.176 118.048C110.271 118.366 110.347 118.621 110.406 118.82C110.455 118.996 110.476 119.085 110.468 119.088C110.46 119.091 110.424 119.005 110.36 118.835C110.288 118.64 110.199 118.39 110.085 118.078C109.974 117.737 109.807 117.348 109.67 116.825C109.566 116.301 109.585 115.691 109.65 115.016C109.795 113.664 110.118 112.051 110.425 110.155C110.51 109.683 110.556 109.183 110.665 108.673C110.723 108.418 110.778 108.159 110.876 107.898C110.977 107.645 111.086 107.356 111.376 107.164C111.687 106.972 112.03 107.042 112.32 107.152C112.696 107.367 112.709 107.727 112.775 108.009C112.856 108.608 112.831 109.205 112.799 109.815C112.74 111.029 112.551 112.305 112.578 113.597C112.584 113.756 112.604 113.913 112.636 114.056C112.669 114.211 112.749 114.271 112.733 114.241C112.761 114.247 112.884 114.108 112.952 113.983C113.028 113.845 113.096 113.696 113.156 113.541C113.395 112.918 113.553 112.235 113.681 111.542C113.815 110.851 113.86 110.129 113.956 109.388C114.048 108.651 114.153 107.904 114.272 107.147C114.391 106.39 114.522 105.624 114.678 104.848C114.856 104.068 114.968 103.298 115.348 102.486C115.371 102.404 115.536 102.222 115.628 102.178C115.729 102.117 115.844 102.072 115.965 102.037C116.209 101.972 116.508 102.008 116.73 102.157C117.17 102.468 117.309 102.95 117.383 103.379C117.449 103.818 117.427 104.263 117.377 104.686C117.33 105.096 117.296 105.514 117.266 105.934C117.168 107.608 117.076 109.361 117.322 111.058C117.359 111.265 117.404 111.473 117.476 111.651C117.512 111.733 117.554 111.822 117.595 111.859C117.615 111.887 117.628 111.885 117.635 111.89L117.638 111.891L117.639 111.893C117.625 112.08 117.637 111.932 117.633 111.969C117.631 111.934 117.623 111.941 117.6 111.9C117.641 111.867 117.77 111.646 117.832 111.461C117.902 111.261 117.965 111.054 118.02 110.84C118.237 109.987 118.384 109.093 118.521 108.196C118.787 106.396 118.99 104.55 119.159 102.682V102.721C119.15 102.106 119.14 101.461 119.564 100.824C119.812 100.509 120.26 100.339 120.68 100.497C121.096 100.692 121.249 101.064 121.367 101.372C121.684 102.396 121.673 103.4 121.676 104.39C121.66 105.38 121.592 106.358 121.5 107.324C121.408 108.291 121.292 109.248 121.157 110.193C121.084 110.666 121.012 111.137 120.939 111.606C120.88 111.904 120.894 111.913 120.983 112.001C121.079 112.074 121.264 112.063 121.355 111.987C121.456 111.919 121.468 111.779 121.491 111.519L121.552 110.824C121.599 110.361 121.644 109.9 121.691 109.442C121.792 108.525 121.915 107.618 122.072 106.724C122.234 105.832 122.42 104.949 122.713 104.095C122.863 103.669 123.035 103.247 123.295 102.854C123.428 102.66 123.582 102.466 123.808 102.324C124.04 102.191 124.294 102.07 124.64 102.204C124.969 102.383 125.025 102.687 125.077 102.908C125.112 103.142 125.127 103.369 125.12 103.588C125.112 104.029 125.065 104.455 125.012 104.875C124.9 105.714 124.751 106.529 124.609 107.332C124.348 108.925 123.988 110.512 124.113 111.968C124.132 112.147 124.18 112.311 124.24 112.456C124.277 112.528 124.318 112.588 124.344 112.615C124.348 112.606 124.337 112.6 124.324 112.65C124.317 112.715 124.327 112.636 124.316 112.646C124.286 112.596 124.308 112.611 124.321 112.593C124.49 112.386 124.608 111.984 124.713 111.654C124.921 110.956 125.088 110.25 125.268 109.561C125.448 108.872 125.629 108.196 125.867 107.544C125.986 107.218 126.118 106.898 126.304 106.594C126.404 106.445 126.504 106.293 126.668 106.17C126.74 106.104 126.848 106.058 126.954 106.028C127.079 106.009 127.18 106.012 127.261 106.028C127.449 106.036 127.704 106.2 127.767 106.398C127.844 106.584 127.861 106.76 127.869 106.928C127.885 107.265 127.848 107.58 127.816 107.894C127.741 108.517 127.625 109.112 127.512 109.689C127.28 110.84 127.027 111.926 126.72 112.916C126.123 114.901 125.523 116.58 125.027 117.949C124.528 119.318 124.124 120.373 123.844 121.087C123.708 121.422 123.601 121.688 123.517 121.896C123.441 122.08 123.399 122.172 123.391 122.168Z" fill="#EB996E"/>
<path d="M79.7231 144.714C81.2431 150.077 84.2127 158.364 87.4047 167.1C87.8663 168.362 89.6223 168.444 90.1975 167.229L98.0247 150.682C98.0247 150.682 96.1399 137.088 96.2999 137.568C96.4599 138.048 80.1519 139.326 80.1519 139.326L79.7231 144.714Z" fill="#0C8C6B"/>
<path d="M97.3505 142.047C97.3681 142.113 96.3785 142.4 94.8289 142.991C93.2801 143.58 91.1841 144.516 89.0225 145.823C86.8633 147.136 85.0641 148.562 83.8265 149.664C82.5865 150.764 81.8737 151.509 81.8233 151.463C81.8017 151.444 81.9585 151.238 82.2617 150.882C82.5617 150.523 83.0257 150.03 83.6265 149.448C84.8241 148.28 86.6185 146.797 88.8065 145.467C90.9969 144.142 93.1409 143.236 94.7297 142.714C95.5241 142.451 96.1753 142.267 96.6329 142.167C97.0889 142.064 97.3433 142.019 97.3505 142.047Z" fill="#FAFAFA"/>
<path d="M100.453 146.173C100.412 146.203 99.8792 145.575 99.1472 144.464C98.4152 143.356 97.5088 141.748 96.7296 139.87C95.9528 137.991 95.4552 136.213 95.188 134.912C94.9192 133.609 94.8512 132.788 94.9016 132.78C94.9648 132.77 95.1352 133.571 95.4744 134.843C95.8128 136.116 96.3472 137.856 97.1144 139.71C97.8848 141.563 98.7368 143.171 99.3984 144.309C100.059 145.45 100.505 146.136 100.453 146.173Z" fill="#263238"/>
<path d="M105.674 72.8833C102.936 77.3081 102.354 83.0329 104.145 87.9297C104.949 90.1281 106.222 92.2993 105.989 94.6313C105.75 97.0201 103.938 99.2769 104.578 101.589C104.957 102.955 106.13 103.969 106.579 105.313C107.107 106.89 106.557 108.598 106.306 110.244C105.666 114.434 107.005 118.646 107.337 122.873C107.669 127.099 106.528 132.046 102.759 133.889C101.614 134.45 100.116 134.61 99.1632 133.756C97.9536 132.672 98.2904 130.723 98.6216 129.122C101.934 113.107 91.7024 97.5065 94.0384 81.3169C94.4128 78.7217 95.8624 74.3193 97.7304 72.5033C99.5984 70.6873 104.766 70.9081 106.534 72.8241" fill="#263238"/>
<path d="M89.9151 119.294C89.8823 119.266 90.3959 118.717 91.1159 117.582C91.8327 116.455 92.7351 114.694 93.2055 112.344C93.4343 111.17 93.5351 109.862 93.4519 108.453C93.3903 107.044 93.1919 105.529 93.2871 103.907C93.3207 103.096 93.4943 102.271 93.7463 101.456C94.0303 100.652 94.3983 99.8633 94.8447 99.1065C95.7399 97.5929 96.8735 96.1832 97.9111 94.6768C98.9487 93.1768 99.8095 91.5873 100.088 89.9073C100.368 88.2289 100.065 86.5657 99.8087 84.9985C99.5319 83.4305 99.3407 81.8873 99.4559 80.4521C99.5471 79.0185 99.8343 77.7024 100.223 76.548C101.009 74.232 102.17 72.5912 103.051 71.5696C103.494 71.056 103.869 70.6849 104.14 70.4521C104.407 70.2161 104.552 70.0977 104.561 70.1081C104.592 70.1401 104.022 70.6297 103.177 71.6737C102.343 72.7161 101.239 74.3569 100.504 76.6409C100.14 77.7793 99.8759 79.0712 99.8015 80.472C99.7047 81.876 99.9007 83.3648 100.188 84.9344C100.453 86.4968 100.779 88.2009 100.491 89.9737C100.202 91.7457 99.3047 93.3944 98.2551 94.9128C97.2039 96.4376 96.0751 97.8376 95.1959 99.3144C94.7575 100.052 94.3999 100.813 94.1231 101.583C93.8791 102.362 93.7071 103.146 93.6703 103.933C93.5671 105.502 93.7495 107.014 93.7975 108.438C93.8671 109.866 93.7463 111.212 93.4943 112.403C92.9767 114.794 92.0175 116.56 91.2511 117.672C90.8671 118.232 90.5327 118.639 90.2967 118.906C90.0575 119.17 89.9263 119.303 89.9151 119.294Z" fill="#455A64"/>
<path d="M82.3279 120.491C82.3151 120.484 82.4015 120.3 82.5759 119.955C82.7719 119.575 83.0303 119.076 83.3535 118.453C84.0231 117.148 85.0255 115.271 86.0111 112.847C86.9775 110.432 87.9351 107.407 87.9647 103.957C87.9703 103.099 87.9079 102.219 87.7695 101.332C87.6319 100.443 87.4247 99.5361 87.2911 98.5898C87.1631 97.6465 87.1015 96.6409 87.3519 95.6473C87.5999 94.6513 88.2255 93.7649 88.9799 93.0793C90.4879 91.7081 92.3071 90.8153 93.2471 89.2106C94.2095 87.6329 94.4223 85.7825 94.6655 84.0801C94.8735 82.3593 95.2039 80.7025 95.7671 79.2465C96.3111 77.7833 97.0383 76.5122 97.7967 75.4298C99.3239 73.2554 101.022 71.8866 102.244 71.073C102.859 70.6666 103.357 70.3825 103.708 70.2161C104.055 70.0441 104.241 69.9602 104.247 69.973C104.269 70.013 103.53 70.3626 102.336 71.2058C101.154 72.053 99.5095 73.4378 98.0391 75.597C97.3087 76.6722 96.6103 77.9281 96.0911 79.3673C95.5527 80.8025 95.2455 82.405 95.0463 84.1306C94.8103 85.8338 94.6151 87.7337 93.5959 89.4233C92.5775 91.1514 90.6943 92.0698 89.2639 93.3842C88.5431 94.0434 87.9831 94.8426 87.7535 95.7506C87.5223 96.6594 87.5727 97.6122 87.6959 98.5329C87.8239 99.4578 88.0263 100.363 88.1631 101.271C88.3007 102.18 88.3599 103.082 88.3487 103.959C88.2967 107.483 87.2919 110.537 86.2839 112.958C85.2551 115.387 84.2103 117.246 83.4959 118.529C83.1447 119.137 82.8631 119.624 82.6495 119.994C82.4511 120.327 82.3407 120.499 82.3279 120.491Z" fill="#455A64"/>
<path d="M347.018 346.545C347.011 346.541 347.059 346.427 347.158 346.207C347.27 345.968 347.42 345.648 347.612 345.241C347.997 344.387 348.497 343.094 348.944 341.372C349.825 337.932 350.133 332.675 348.83 326.431C348.225 323.305 347.25 319.951 346.059 316.396C344.886 312.835 343.524 309.055 342.411 304.971C341.311 300.895 340.442 296.471 340.609 291.834C340.778 287.187 342.153 282.549 343.667 277.932C345.177 273.308 346.738 268.788 347.206 264.242C347.735 259.703 346.764 255.248 344.697 251.598C342.694 247.908 340.175 244.753 338.289 241.485C336.374 238.227 335.177 234.878 334.438 231.763C333.007 225.481 333.509 220.189 334.194 216.701C334.937 213.195 335.766 211.382 335.766 211.382C335.774 211.385 335.742 211.504 335.673 211.735C335.595 211.987 335.489 212.325 335.355 212.755C335.078 213.651 334.719 214.99 334.378 216.737C333.752 220.218 333.309 225.474 334.769 231.686C335.521 234.767 336.725 238.072 338.633 241.285C340.513 244.515 343.044 247.657 345.086 251.389C347.197 255.079 348.213 259.68 347.675 264.29C347.205 268.913 345.631 273.463 344.125 278.082C342.612 282.695 341.253 287.284 341.081 291.853C340.909 296.419 341.756 300.8 342.839 304.856C343.933 308.921 345.28 312.701 346.438 316.273C347.614 319.839 348.577 323.219 349.164 326.368C350.433 332.659 350.07 337.968 349.125 341.42C348.648 343.148 348.115 344.439 347.7 345.283C347.49 345.683 347.325 345.998 347.202 346.232C347.087 346.442 347.025 346.548 347.018 346.545Z" fill="#263238"/>
<path d="M340.85 244.709C340.85 244.709 337.021 232.466 343.889 225.298C344.131 225.047 344.555 225.165 344.617 225.508C344.983 227.529 345.442 233.688 340.85 244.709Z" fill="#0C8C6B"/>
<path d="M343.143 229.377C343.208 229.39 343.098 230.251 342.886 231.635C342.634 233.191 342.338 235.018 342.012 237.035C341.691 239.053 341.402 240.879 341.155 242.435C340.946 243.818 340.82 244.675 340.75 244.67C340.687 244.665 340.694 243.794 340.818 242.394C340.945 240.995 341.192 239.071 341.538 236.958C341.884 234.846 342.252 232.943 342.552 231.573C342.851 230.203 343.078 229.364 343.143 229.377Z" fill="#263238"/>
<path d="M345.347 273.584C345.347 273.584 347.689 260.972 357.111 257.848C357.442 257.738 357.762 258.041 357.656 258.374C357.035 260.332 354.56 265.99 345.347 273.584Z" fill="#0C8C6B"/>
<path d="M354.545 261.105C354.596 261.147 354.097 261.857 353.261 262.981C352.31 264.239 351.195 265.715 349.964 267.346C348.737 268.98 347.626 270.459 346.681 271.718C345.849 272.842 345.337 273.541 345.277 273.503C345.225 273.471 345.637 272.703 346.402 271.524C347.169 270.347 348.286 268.761 349.581 267.056C350.874 265.351 352.09 263.842 352.996 262.771C353.9 261.699 354.493 261.063 354.545 261.105Z" fill="#263238"/>
<path d="M342.801 305.224C342.801 305.224 341.379 292.476 349.488 286.749C349.773 286.548 350.167 286.746 350.163 287.094C350.136 289.149 349.411 295.282 342.801 305.224Z" fill="#0C8C6B"/>
<path d="M347.978 290.611C348.039 290.636 347.767 291.461 347.294 292.779C346.75 294.259 346.111 295.995 345.406 297.914C344.706 299.834 344.074 301.571 343.534 303.051C343.065 304.368 342.778 305.186 342.71 305.167C342.65 305.151 342.823 304.296 343.212 302.946C343.603 301.597 344.213 299.755 344.956 297.747C345.698 295.739 346.422 293.943 346.978 292.655C347.533 291.367 347.916 290.587 347.978 290.611Z" fill="#263238"/>
<path d="M349.899 337.049C349.899 337.049 348.934 324.258 357.243 318.825C357.535 318.635 357.921 318.846 357.904 319.194C357.805 321.247 356.861 327.35 349.899 337.049Z" fill="#0C8C6B"/>
<path d="M355.595 322.632C355.656 322.659 355.354 323.473 354.834 324.774C354.238 326.233 353.538 327.945 352.764 329.837C351.996 331.731 351.302 333.444 350.71 334.904C350.193 336.204 349.878 337.01 349.81 336.989C349.751 336.971 349.954 336.124 350.391 334.788C350.83 333.453 351.506 331.635 352.321 329.655C353.134 327.675 353.923 325.905 354.524 324.638C355.124 323.37 355.535 322.604 355.595 322.632Z" fill="#263238"/>
<path d="M335.347 233.952C335.347 233.952 323.977 228.015 323.754 218.089C323.746 217.74 324.13 217.524 324.417 217.723C326.107 218.891 330.79 222.917 335.347 233.952Z" fill="#0C8C6B"/>
<path d="M326.115 221.498C326.17 221.462 326.702 222.147 327.532 223.277C328.455 224.554 329.54 226.053 330.737 227.71C331.94 229.362 333.028 230.857 333.954 232.13C334.785 233.255 335.303 233.95 335.249 233.996C335.202 234.037 334.59 233.417 333.687 232.34C332.786 231.262 331.598 229.728 330.348 227.99C329.097 226.254 328.01 224.65 327.252 223.47C326.493 222.289 326.06 221.535 326.115 221.498Z" fill="#263238"/>
<path d="M347.557 260.245C347.557 260.245 335.846 255.008 335.022 245.115C334.993 244.768 335.362 244.529 335.661 244.709C337.419 245.773 342.338 249.507 347.557 260.245Z" fill="#0C8C6B"/>
<path d="M337.586 248.375C337.638 248.335 338.211 248.987 339.108 250.064C340.107 251.282 341.281 252.713 342.577 254.294C343.877 255.87 345.054 257.296 346.056 258.511C346.954 259.584 347.513 260.246 347.462 260.294C347.418 260.338 346.769 259.756 345.802 258.736C344.837 257.715 343.559 256.256 342.205 254.597C340.851 252.939 339.67 251.404 338.841 250.272C338.011 249.141 337.533 248.415 337.586 248.375Z" fill="#263238"/>
<path d="M340.819 289.573C340.819 289.573 332.779 279.578 336.551 270.395C336.683 270.072 337.122 270.028 337.305 270.324C338.385 272.072 341.063 277.636 340.819 289.573Z" fill="#0C8C6B"/>
<path d="M337.348 274.464C337.414 274.453 337.626 275.294 337.934 276.661C338.269 278.201 338.662 280.009 339.096 282.006C339.536 284.002 339.934 285.807 340.273 287.346C340.583 288.71 340.78 289.554 340.712 289.574C340.653 289.592 340.34 288.778 339.944 287.43C339.55 286.082 339.076 284.201 338.626 282.108C338.175 280.016 337.823 278.11 337.601 276.726C337.378 275.34 337.282 274.476 337.348 274.464Z" fill="#263238"/>
<path d="M348.783 324.086C348.783 324.086 337.162 318.654 336.504 308.749C336.481 308.401 336.855 308.168 337.15 308.354C338.89 309.446 343.745 313.262 348.783 324.086Z" fill="#0C8C6B"/>
<path d="M339.013 312.05C339.067 312.011 339.628 312.673 340.507 313.764C341.485 314.999 342.635 316.45 343.903 318.051C345.177 319.649 346.33 321.094 347.311 322.326C348.191 323.414 348.739 324.085 348.687 324.133C348.642 324.175 348.003 323.583 347.054 322.547C346.107 321.51 344.852 320.03 343.527 318.349C342.2 316.669 341.045 315.114 340.235 313.969C339.426 312.824 338.959 312.09 339.013 312.05Z" fill="#263238"/>
<path d="M371.93 273.653C371.941 273.654 371.946 273.75 371.944 273.935C371.939 274.158 371.932 274.428 371.924 274.755C371.89 275.526 371.844 276.566 371.787 277.866C371.637 280.6 371.428 284.413 371.178 288.973L371.177 288.984L371.174 289C370.344 293.642 367.98 298.786 364.805 303.782C362.475 307.461 360.034 310.806 357.928 313.918C355.808 317.02 354.019 319.894 352.772 322.44C351.517 324.982 350.787 327.167 350.36 328.694C350.156 329.461 350.003 330.058 349.914 330.467C349.819 330.874 349.76 331.087 349.743 331.085C349.727 331.082 349.754 330.863 349.819 330.449C349.876 330.033 350.001 329.426 350.179 328.648C350.552 327.098 351.239 324.876 352.466 322.293C353.684 319.706 355.456 316.794 357.56 313.671C359.651 310.538 362.08 307.187 364.397 303.526C367.555 298.556 369.907 293.49 370.768 288.922L370.765 288.949C371.085 284.393 371.353 280.584 371.545 277.852C371.65 276.556 371.734 275.518 371.796 274.749C371.829 274.423 371.856 274.155 371.879 273.933C371.902 273.747 371.919 273.652 371.93 273.653Z" fill="#263238"/>
<path d="M365.01 302.826C365.01 302.826 369.932 290.981 363.741 283.22C363.523 282.948 363.089 283.028 362.997 283.363C362.449 285.343 361.435 291.434 365.01 302.826Z" fill="#0C8C6B"/>
<path d="M364.114 287.35C364.18 287.342 364.331 288.199 364.505 289.591C364.679 290.983 364.874 292.911 365.026 295.046C365.181 297.181 365.252 299.12 365.251 300.524C365.249 301.93 365.176 302.798 365.114 302.797C365.043 302.796 364.996 301.93 364.912 300.534C364.807 298.963 364.684 297.118 364.547 295.079C364.405 293.04 364.276 291.194 364.166 289.622C364.079 288.224 364.048 287.357 364.114 287.35Z" fill="#263238"/>
<g opacity="0.3">
<path d="M365.01 302.826C365.01 302.826 369.932 290.981 363.741 283.22C363.523 282.948 363.089 283.028 362.997 283.363C362.449 285.343 361.435 291.434 365.01 302.826Z" fill="black"/>
</g>
<path d="M349.767 331.373C349.767 331.373 353.712 319.167 346.912 311.934C346.674 311.679 346.248 311.794 346.182 312.137C345.797 314.155 345.28 320.309 349.767 331.373Z" fill="#0C8C6B"/>
<path d="M347.619 316.02C347.684 316.008 347.904 316.849 348.189 318.223C348.476 319.595 348.826 321.501 349.152 323.616C349.479 325.732 349.707 327.659 349.821 329.059C349.932 330.459 349.929 331.331 349.868 331.335C349.797 331.339 349.681 330.481 349.484 329.096C349.252 327.539 348.979 325.709 348.678 323.688C348.371 321.667 348.093 319.839 347.856 318.28C347.655 316.895 347.553 316.032 347.619 316.02Z" fill="#263238"/>
<g opacity="0.3">
<path d="M349.767 331.373C349.767 331.373 353.712 319.167 346.912 311.934C346.674 311.679 346.248 311.794 346.182 312.137C345.797 314.155 345.28 320.309 349.767 331.373Z" fill="black"/>
</g>
<path d="M371.277 288.349C371.277 288.349 381.786 280.992 380.725 271.122C380.688 270.775 380.28 270.61 380.021 270.843C378.496 272.221 374.372 276.818 371.277 288.349Z" fill="#0C8C6B"/>
<g opacity="0.3">
<path d="M371.277 288.349C371.277 288.349 381.786 280.992 380.725 271.122C380.688 270.775 380.28 270.61 380.021 270.843C378.496 272.221 374.372 276.818 371.277 288.349Z" fill="black"/>
</g>
<path d="M378.824 274.808C378.884 274.838 378.552 275.641 377.952 276.909C377.352 278.177 376.482 279.908 375.465 281.792C374.45 283.677 373.47 285.351 372.716 286.536C371.96 287.72 371.432 288.414 371.38 288.38C371.321 288.342 371.746 287.586 372.424 286.363C373.179 284.981 374.064 283.358 375.044 281.564C376.017 279.767 376.899 278.141 377.65 276.754C378.326 275.527 378.765 274.778 378.824 274.808Z" fill="#263238"/>
<path d="M354.005 319.272C354.005 319.272 366.679 317.296 370.074 307.967C370.194 307.64 369.899 307.311 369.564 307.407C367.589 307.971 361.862 310.282 354.005 319.272Z" fill="#0C8C6B"/>
<g opacity="0.3">
<path d="M354.005 319.272C354.005 319.272 366.679 317.296 370.074 307.967C370.194 307.64 369.899 307.311 369.564 307.407C367.589 307.971 361.862 310.282 354.005 319.272Z" fill="black"/>
</g>
<path d="M366.744 310.439C366.784 310.491 366.132 311.066 365.035 311.94C363.939 312.815 362.395 313.986 360.653 315.229C358.911 316.474 357.294 317.546 356.095 318.278C354.894 319.008 354.115 319.399 354.083 319.345C354.047 319.284 354.761 318.793 355.909 317.994C357.195 317.085 358.705 316.018 360.374 314.839C362.039 313.654 363.547 312.582 364.831 311.669C365.98 310.865 366.704 310.386 366.744 310.439Z" fill="#263238"/>
<path d="M341.913 342.597L338.216 367.481H361.257L358.269 342.597H341.913Z" fill="#455A64"/>
<path d="M359.191 350.308C359.191 350.441 355.031 350.548 349.901 350.548C344.769 350.548 340.609 350.441 340.609 350.308C340.609 350.176 344.769 350.068 349.901 350.068C355.03 350.068 359.191 350.176 359.191 350.308Z" fill="#263238"/>
<path d="M359.648 352.288C359.648 352.421 355.351 352.528 350.053 352.528C344.752 352.528 340.457 352.421 340.457 352.288C340.457 352.156 344.752 352.048 350.053 352.048C355.351 352.048 359.648 352.156 359.648 352.288Z" fill="#263238"/>
<path d="M270.052 101.234C270.052 101.234 269.839 101.238 269.426 101.226C269.014 101.208 268.4 101.179 267.596 101.235C265.999 101.324 263.602 101.626 260.778 102.807C257.986 103.987 254.719 106.071 252.12 109.554C250.831 111.289 249.754 113.374 249.098 115.738C248.466 118.106 248.251 120.73 248.552 123.434C248.894 126.128 249.718 128.916 251.228 131.475C251.977 132.752 252.865 133.992 253.95 135.086C254.999 136.211 256.237 137.207 257.631 137.966C259.023 138.719 260.618 139.194 262.249 139.129C263.866 139.076 265.537 138.506 266.721 137.325C267.913 136.153 268.502 134.431 268.503 132.714C268.512 130.983 267.912 129.262 266.881 127.812C264.804 124.893 261.446 122.929 257.872 121.871C254.264 120.82 250.302 120.792 246.509 121.714C244.618 122.206 242.773 122.927 241.037 123.889C239.302 124.856 237.722 126.118 236.338 127.574C236.01 127.955 235.637 128.3 235.345 128.713L234.442 129.932C233.914 130.798 233.374 131.662 232.969 132.602C232.12 134.457 231.525 136.446 231.229 138.497C230.693 142.595 231.189 146.815 232.845 150.498C234.444 154.187 237.171 157.354 240.569 159.262C242.264 160.21 244.138 160.821 246.039 160.924C247.936 161.042 249.828 160.553 251.438 159.628C253.045 158.706 254.386 157.32 255.09 155.65C255.79 153.981 255.778 152.076 255.174 150.418C254.578 148.743 253.465 147.313 252.166 146.165C250.858 145.018 249.333 144.158 247.742 143.594C244.514 142.54 241.076 142.596 238.002 143.425C234.919 144.264 232.172 145.852 230.014 147.879C227.858 149.919 226.347 152.422 225.434 154.978C223.588 160.128 224.057 165.356 225.643 169.351C227.276 173.38 229.867 176.248 232.234 178.144C234.623 180.054 236.798 181.084 238.29 181.671C239.042 181.958 239.621 182.161 240.019 182.273C240.413 182.396 240.613 182.47 240.613 182.47C240.613 182.47 240.406 182.423 240.007 182.314C239.605 182.215 239.019 182.025 238.259 181.75C236.752 181.186 234.553 180.174 232.133 178.27C229.733 176.38 227.099 173.505 225.426 169.438C223.801 165.402 223.302 160.111 225.155 154.878C226.074 152.282 227.602 149.731 229.791 147.646C231.982 145.576 234.773 143.954 237.911 143.092C241.042 142.242 244.542 142.172 247.859 143.248C249.498 143.826 251.064 144.705 252.412 145.883C253.751 147.062 254.908 148.538 255.534 150.29C256.17 152.024 256.189 154.037 255.45 155.801C254.709 157.565 253.306 159.012 251.635 159.974C249.964 160.938 247.991 161.449 246.017 161.328C244.045 161.222 242.11 160.591 240.37 159.619C236.882 157.664 234.098 154.43 232.464 150.666C230.774 146.909 230.268 142.614 230.816 138.438C231.118 136.35 231.724 134.322 232.59 132.427C233.005 131.468 233.556 130.585 234.096 129.701L235.019 128.454C235.318 128.033 235.7 127.68 236.035 127.291C237.45 125.802 239.064 124.515 240.834 123.53C242.605 122.55 244.485 121.817 246.41 121.318C250.272 120.382 254.304 120.413 257.982 121.489C261.628 122.576 265.044 124.567 267.195 127.593C268.261 129.093 268.892 130.904 268.878 132.714C268.875 134.511 268.254 136.334 266.978 137.586C265.71 138.843 263.95 139.433 262.262 139.485C260.554 139.55 258.896 139.049 257.467 138.27C256.033 137.486 254.774 136.465 253.71 135.317C252.607 134.2 251.707 132.936 250.95 131.636C249.423 129.03 248.597 126.199 248.259 123.467C247.963 120.725 248.19 118.064 248.842 115.667C249.516 113.273 250.619 111.162 251.933 109.414C254.581 105.903 257.893 103.822 260.715 102.657C263.57 101.49 265.986 101.214 267.591 101.151C268.399 101.109 269.014 101.151 269.428 101.182C269.842 101.209 270.052 101.234 270.052 101.234Z" fill="#263238"/>
<path d="M296.771 181.282H184.603V267.796H296.771V181.282Z" fill="#0C8C6B"/>
<path d="M184.603 181.282L205.32 200.606H315.587L296.771 181.282H184.603Z" fill="#0C8C6B"/>
<path d="M184.603 181.282C186.626 181.278 232.955 181.194 296.771 181.078H296.857L296.917 181.139C302.927 187.309 309.163 193.711 315.542 200.262C315.607 200.329 315.673 200.396 315.735 200.461L316.08 200.815L315.587 200.814C270.372 200.781 230.242 200.75 205.32 200.731H205.271L205.235 200.698C192.271 188.498 185.283 181.922 184.603 181.282C185.288 181.915 192.335 188.43 205.406 200.514L205.32 200.48C230.242 200.462 270.372 200.431 315.587 200.397L315.437 200.75C315.375 200.686 315.309 200.619 315.243 200.551C308.866 193.999 302.631 187.595 296.624 181.423L296.771 181.485C232.955 181.37 186.624 181.286 184.603 181.282Z" fill="#263238"/>
<path d="M218.293 221.174C217.106 221.176 216.023 222.242 216.003 223.43C215.982 224.617 217.028 225.719 218.214 225.762C219.4 225.806 220.523 224.781 220.588 223.595C220.654 222.41 219.65 221.268 218.467 221.181" fill="#263238"/>
<path d="M244.778 221.174C243.591 221.176 242.508 222.242 242.488 223.43C242.467 224.617 243.512 225.719 244.699 225.762C245.885 225.806 247.008 224.781 247.073 223.595C247.139 222.41 246.135 221.268 244.952 221.181" fill="#263238"/>
<path d="M244.948 241.884C244.828 241.933 244.651 239.719 242.728 236.911C241.783 235.518 240.368 234.042 238.491 232.845C236.624 231.648 234.254 230.787 231.693 230.693C229.13 230.646 226.716 231.376 224.786 232.469C222.845 233.561 221.351 234.958 220.331 236.297C218.257 238.995 217.959 241.197 217.843 241.14C217.828 241.137 217.851 241.007 217.907 240.761C217.975 240.52 218.027 240.146 218.201 239.699C218.491 238.786 219.079 237.506 220.097 236.118C221.108 234.729 222.615 233.274 224.597 232.135C226.567 230.994 229.052 230.227 231.705 230.277C234.355 230.373 236.794 231.276 238.698 232.522C240.614 233.769 242.039 235.303 242.972 236.746C243.913 238.189 244.43 239.499 244.669 240.426C244.818 240.882 244.849 241.258 244.904 241.503C244.947 241.75 244.963 241.881 244.948 241.884Z" fill="#263238"/>
<path opacity="0.5" d="M184.857 182.233L204.694 207.385H296.771V200.605H205.32L184.857 182.233Z" fill="black"/>
<path d="M274.652 267.597C274.537 267.597 274.444 252.549 274.444 233.991C274.444 215.426 274.537 200.381 274.652 200.381C274.768 200.381 274.86 215.426 274.86 233.991C274.86 252.549 274.768 267.597 274.652 267.597Z" fill="#263238"/>
<path d="M292.264 247.985H282.377V259.162H292.264V247.985Z" fill="#F5F5F5"/>
<path d="M184.603 181.282L161.574 200.606H184.603V181.282Z" fill="#0C8C6B"/>
<g opacity="0.4">
<path d="M184.603 181.282L161.574 200.606H184.603V181.282Z" fill="black"/>
</g>
<path d="M300.081 267.796H171.114V367.266H300.081V267.796Z" fill="#0C8C6B"/>
<path opacity="0.3" d="M300.081 267.796H171.114V367.266H300.081V267.796Z" fill="black"/>
<path d="M267.769 366.564C267.653 366.564 267.561 344.392 267.561 317.048C267.561 289.695 267.654 267.527 267.769 267.527C267.883 267.527 267.977 289.695 267.977 317.048C267.977 344.392 267.884 366.564 267.769 366.564Z" fill="#263238"/>
<path d="M289.146 344.625H279.258V355.802H289.146V344.625Z" fill="#F5F5F5"/>
<path d="M225.106 268.052H210.458V289.277H225.106V268.052Z" fill="#263238"/>
<path d="M225.106 345.746H210.458V366.97H225.106V345.746Z" fill="#263238"/>
<path d="M298.956 267.796C298.956 267.803 298.844 267.81 298.626 267.818C298.388 267.822 298.066 267.83 297.657 267.838C296.783 267.847 295.532 267.861 293.932 267.878C290.675 267.894 286.001 267.916 280.233 267.943C268.647 267.958 252.677 267.98 235.037 268.003C217.391 267.98 201.419 267.958 189.834 267.943C184.066 267.915 179.392 267.893 176.135 267.878C174.535 267.861 173.285 267.848 172.411 267.838C172.002 267.83 171.681 267.822 171.442 267.818C171.224 267.81 171.113 267.803 171.113 267.796C171.113 267.789 171.225 267.782 171.442 267.774C171.68 267.77 172.001 267.762 172.411 267.754C173.285 267.744 174.535 267.731 176.135 267.714C179.391 267.698 184.066 267.676 189.834 267.648C201.419 267.632 217.391 267.61 235.037 267.586C252.676 267.61 268.646 267.633 280.233 267.648C286 267.676 290.675 267.699 293.932 267.714C295.532 267.731 296.783 267.744 297.657 267.754C298.066 267.762 298.388 267.77 298.626 267.774C298.845 267.782 298.956 267.789 298.956 267.796Z" fill="#263238"/>
<path d="M77.9335 95.5745C77.0055 95.3465 72.5367 94.2481 63.8903 92.1241L63.9935 92.1081C60.9055 94.0777 56.7215 95.6673 51.8711 95.7425C49.4583 95.7337 46.9063 95.4433 44.3591 94.6457C41.8143 93.8529 39.3127 92.5377 37.0391 90.7649C32.4895 87.2457 28.9471 81.6057 28.1823 75.1137C27.7919 71.8889 28.0535 68.4985 29.0567 65.2529C30.0783 62.0153 31.8415 58.9481 34.2159 56.3657C35.4199 55.0009 36.8367 53.8689 38.2831 52.8217C39.0423 52.3529 39.7911 51.8657 40.5735 51.4537L41.7679 50.8785L42.3631 50.5921L42.9815 50.3657C46.2535 49.0969 49.7359 48.6057 53.0783 48.8281C56.4247 49.0433 59.6295 49.9793 62.4327 51.4545C65.2407 52.9265 67.6479 54.9249 69.5375 57.1937C71.4319 59.4633 72.8095 62.0009 73.6855 64.5625C74.5607 67.1273 74.9599 69.7073 74.9831 72.1449C75.0119 77.0417 73.4815 81.2425 71.6191 84.3097L71.6207 84.1833C75.5255 91.2289 77.4983 94.7889 77.9335 95.5745C77.4831 94.7977 75.4415 91.2761 71.4015 84.3073L71.3647 84.2441L71.4031 84.1801C73.2183 81.1289 74.6983 76.9737 74.6431 72.1473C74.6071 69.7449 74.2015 67.2065 73.3303 64.6873C72.4583 62.1705 71.0951 59.6817 69.2255 57.4569C67.3615 55.2329 64.9919 53.2769 62.2319 51.8385C59.4767 50.3977 56.3319 49.4857 53.0495 49.2793C49.7703 49.0665 46.3567 49.5513 43.1503 50.7977L42.5439 51.0201L41.9607 51.3009L40.7903 51.8649C40.0231 52.2689 39.2903 52.7473 38.5455 53.2065C37.1287 54.2337 35.7391 55.3433 34.5591 56.6809C32.2311 59.2129 30.5023 62.2185 29.4983 65.3905C28.5127 68.5705 28.2527 71.8961 28.6311 75.0593C29.3719 81.4257 32.8327 86.9681 37.2927 90.4409C39.5215 92.1897 41.9759 93.4913 44.4759 94.2809C46.9783 95.0753 49.4887 95.3721 51.8663 95.3937C56.6455 95.3441 60.7823 93.8049 63.8527 91.8825L63.9015 91.8521L63.9559 91.8665C72.5623 94.1497 77.0111 95.3297 77.9335 95.5745Z" fill="#263238"/>
<path d="M49.5685 61.8401L50.3109 73.5704C50.3717 74.5296 51.1381 75.2929 52.0973 75.3505C53.1093 75.4105 53.9909 74.6672 54.1021 73.6593L55.4045 61.8697C55.5029 60.9769 54.7973 60.2001 53.8989 60.2121L51.0373 60.2521C50.1845 60.2641 49.5141 60.9881 49.5685 61.8401Z" fill="#0C8C6B"/>
<path d="M55.2071 81.949C54.7087 83.4498 53.0887 84.2626 51.5879 83.7642C50.0871 83.2658 49.2743 81.6458 49.7727 80.145C50.2711 78.6442 51.8911 77.8314 53.3919 78.3298C54.8927 78.8274 55.7055 80.4482 55.2071 81.949Z" fill="#0C8C6B"/>
</svg>
