<svg width="61" height="60" viewBox="0 0 61 60" fill="none" xmlns="http://www.w3.org/2000/svg">
<path d="M30.5 60C47 60 60.5 46.5 60.5 30C60.5 13.5 47 0 30.5 0C14 0 0.5 13.5 0.5 30C0.5 46.5 14 60 30.5 60Z" fill="#D0FBF0"/>
<path d="M30.5002 51.8182C42.5002 51.8182 52.3184 42.0001 52.3184 30.0001C52.3184 18.0001 42.5002 8.18188 30.5002 8.18188C18.5002 8.18188 8.68201 18.0001 8.68201 30.0001C8.68201 42.0001 18.5002 51.8182 30.5002 51.8182Z" fill="#0C8C6B"/>
<path d="M35.8612 25.4132C35.7805 25.4051 35.6996 25.4051 35.6189 25.4132C34.4093 25.3554 33.4534 24.3584 33.4534 23.1325C33.4534 21.8718 34.4767 20.8411 35.7448 20.8411C37.0051 20.8411 38.0355 21.8635 38.0363 23.131C38.0276 24.3591 37.0697 25.3555 35.8612 25.4132Z" fill="white" stroke="white"/>
<path d="M38.9903 32.6081C37.9085 33.3325 36.392 33.6029 34.9914 33.4194C35.3585 32.6274 35.5516 31.7484 35.5613 30.8211C35.5613 29.8552 35.3488 28.9376 34.9431 28.1359C36.3727 27.9427 37.8891 28.2132 38.9806 28.9376C40.5068 29.9421 40.5068 31.5939 38.9903 32.6081Z" fill="white"/>
<path d="M25.1296 25.9144C25.1972 25.9047 25.2648 25.9047 25.3324 25.9144C26.8296 25.8661 28.0176 24.6394 28.0176 23.1325C28.0176 21.5871 26.7716 20.3411 25.2262 20.3411C23.6904 20.3411 22.4443 21.5871 22.4443 23.1325C22.4443 24.6394 23.6324 25.8661 25.1296 25.9144Z" fill="white"/>
<path d="M25.2358 30.8211C25.2358 31.758 25.4386 32.6466 25.8057 33.4483C24.4437 33.5932 23.0238 33.3034 21.9807 32.6177C20.4545 31.6034 20.4545 29.9517 21.9807 28.9375C23.0142 28.2421 24.4727 27.962 25.8443 28.1165C25.4483 28.9279 25.2358 29.8455 25.2358 30.8211Z" fill="white"/>
<path d="M30.6159 33.7381C30.5386 33.7284 30.4517 33.7284 30.3648 33.7381C28.5875 33.6801 27.1676 32.2216 27.1676 30.425C27.1773 28.5898 28.6551 27.1023 30.5 27.1023C32.3352 27.1023 33.8227 28.5898 33.8227 30.425C33.8131 32.2216 32.4028 33.6801 30.6159 33.7381Z" fill="white"/>
<path d="M27.4767 35.7376C26.0182 36.7132 26.0182 38.3166 27.4767 39.2825C29.1381 40.3933 31.8619 40.3933 33.5233 39.2825C34.9818 38.307 34.9818 36.7035 33.5233 35.7376C31.8716 34.6268 29.1477 34.6268 27.4767 35.7376Z" fill="white"/>
</svg>
