<svg width="500" height="500" viewBox="0 0 500 500" fill="none" xmlns="http://www.w3.org/2000/svg">
<path d="M500 382.398H0V382.648H500V382.398Z" fill="#EBEBEB"/>
<path d="M449.901 398.494H416.779V398.744H449.901V398.494Z" fill="#EBEBEB"/>
<path d="M273.222 395.361H260.335V395.611H273.222V395.361Z" fill="#EBEBEB"/>
<path d="M349.667 396.417H322.527V396.667H349.667V396.417Z" fill="#EBEBEB"/>
<path d="M415.778 389.208H359.667V389.458H415.778V389.208Z" fill="#EBEBEB"/>
<path d="M78.986 400.778H52.459V401.028H78.986V400.778Z" fill="#EBEBEB"/>
<path d="M110.889 400.778H87.8889V401.028H110.889V400.778Z" fill="#EBEBEB"/>
<path d="M191.814 395.236H131V395.486H191.814V395.236Z" fill="#EBEBEB"/>
<path d="M237.014 337.8H43.915C40.768 337.8 38.207 335.239 38.207 332.092V60.6601C38.207 57.5131 40.768 54.9521 43.915 54.9521H237.014C240.16 54.9521 242.721 57.5131 242.721 60.6601V332.092C242.721 335.239 240.16 337.8 237.014 337.8ZM43.915 55.2031C40.905 55.2031 38.457 57.6511 38.457 60.6611V332.093C38.457 335.103 40.905 337.551 43.915 337.551H237.014C240.023 337.551 242.471 335.103 242.471 332.093V60.6601C242.471 57.6511 240.023 55.2021 237.014 55.2021L43.915 55.2031Z" fill="#EBEBEB"/>
<path d="M453.31 337.8H260.212C257.065 337.8 254.505 335.239 254.505 332.092V60.6601C254.505 57.5131 257.066 54.9521 260.212 54.9521H453.31C456.458 54.9521 459.018 57.5131 459.018 60.6601V332.092C459.019 335.239 456.458 337.8 453.31 337.8ZM260.212 55.2031C257.203 55.2031 254.755 57.6511 254.755 60.6611V332.093C254.755 335.103 257.203 337.551 260.212 337.551H453.31C456.32 337.551 458.768 335.103 458.768 332.093V60.6601C458.768 57.6511 456.32 55.2021 453.31 55.2021L260.212 55.2031Z" fill="#EBEBEB"/>
<path d="M467.064 194.172C470.319 182.888 469.722 171.412 466.073 161.128C468.925 157.045 471.176 152.439 472.633 147.386C479.33 124.168 467.118 99.983 445.095 91.28C440.845 60.865 419.258 34.28 387.843 25.22C363.006 18.057 337.536 23.442 318.172 37.609C313.326 32.537 307.124 28.634 299.898 26.55C278.117 20.268 255.367 32.833 249.086 54.613C248.035 58.256 247.523 61.925 247.482 65.54C225.563 69.955 206.793 86.112 200.168 109.08C194.217 129.714 199.484 150.919 212.36 166.19C210.696 169.197 209.329 172.427 208.336 175.87C201.205 200.596 215.468 226.421 240.194 233.552C248.347 235.904 256.616 235.916 264.299 234.007C273.389 246.54 286.555 256.258 302.584 260.881C323.21 266.83 344.321 263.13 361.125 252.466C368.646 269.96 374.829 296.198 361.522 321.928C409.866 317.186 444.778 270.815 437.663 228.331C451.458 221.983 462.525 209.909 467.064 194.172Z" fill="#EBEBEB"/>
<path d="M374.317 312.332C374.056 312.332 373.802 312.23 373.611 312.041C373.353 311.784 373.255 311.406 373.356 311.056C380.166 287.339 373.96 264.6 367.555 249.701L364.31 242.154L357.373 246.556C346.899 253.202 334.855 256.716 322.544 256.716C316.478 256.716 310.415 255.855 304.523 254.156C290.489 250.108 278.54 241.719 269.965 229.896L267.193 226.074L262.611 227.214C255.893 228.884 248.82 228.752 242.135 226.826C231.973 223.895 223.561 217.182 218.446 207.924C213.333 198.665 212.131 187.971 215.062 177.809C215.881 174.972 217.033 172.203 218.485 169.579L220.819 165.361L217.712 161.676C205.848 147.607 201.803 128.669 206.894 111.019C212.592 91.2651 228.674 76.4681 248.865 72.4021L254.418 71.2841L254.482 65.6191C254.517 62.5421 254.964 59.4921 255.812 56.5531C259.993 42.0561 273.437 31.9311 288.505 31.9311C291.688 31.9311 294.869 32.3831 297.959 33.2751C303.732 34.9401 308.972 38.1111 313.111 42.4451L317.351 46.8831L322.306 43.2601C334.821 34.1031 350.193 29.0601 365.589 29.0601C372.427 29.0601 379.262 30.0311 385.903 31.9461C413.649 39.9491 434.162 63.6201 438.162 92.2501L438.726 96.2911L442.521 97.7921C461.522 105.302 471.576 125.789 465.906 145.448C464.701 149.625 462.826 153.552 460.333 157.12L458.269 160.074L459.474 163.471C462.779 172.785 463.078 182.73 460.337 192.234C456.541 205.393 447.209 216.233 434.735 221.973L429.873 224.21L430.757 229.488C433.793 247.617 428.332 267.419 415.774 283.818C405.314 297.475 390.691 307.588 374.597 312.293C374.505 312.319 374.411 312.332 374.317 312.332ZM364.766 239.681C364.865 239.681 364.965 239.696 365.061 239.726C365.341 239.812 365.568 240.017 365.684 240.287L369.392 248.912C375.768 263.742 381.944 286.205 375.762 309.846C390.768 305.057 404.36 295.434 414.187 282.602C426.41 266.642 431.731 247.403 428.786 229.819L427.776 223.787C427.701 223.342 427.934 222.902 428.344 222.714L433.9 220.157C445.846 214.659 454.781 204.28 458.416 191.679C461.04 182.579 460.754 173.057 457.59 164.139L456.213 160.257C456.105 159.953 456.15 159.615 456.335 159.351L458.693 155.975C461.06 152.586 462.84 148.858 463.984 144.893C469.367 126.23 459.823 106.78 441.785 99.6511L437.448 97.9361C437.113 97.8041 436.875 97.5011 436.826 97.1451L436.181 92.5271C432.289 64.6771 412.336 41.6521 385.348 33.8681C378.887 32.0051 372.238 31.0601 365.588 31.0601C350.613 31.0601 335.661 35.9661 323.485 44.8741L317.823 49.0161C317.418 49.3131 316.856 49.2621 316.51 48.9001L311.664 43.8281C307.768 39.7501 302.837 36.7661 297.403 35.1991C294.493 34.3591 291.499 33.9331 288.504 33.9331C274.322 33.9331 261.669 43.4631 257.733 57.1101C256.935 59.8761 256.514 62.7471 256.482 65.6441L256.409 72.1181C256.404 72.5901 256.069 72.9931 255.606 73.0871L249.259 74.3651C229.803 78.2831 214.306 92.5421 208.816 111.576C203.911 128.583 207.809 146.831 219.242 160.39L222.793 164.601C223.06 164.917 223.104 165.367 222.903 165.73L220.236 170.55C218.856 173.042 217.762 175.672 216.985 178.365C214.202 188.012 215.343 198.168 220.198 206.959C225.053 215.75 233.041 222.124 242.689 224.906C249.038 226.736 255.752 226.86 262.129 225.274L267.366 223.972C267.76 223.871 268.177 224.024 268.417 224.356L271.585 228.724C279.896 240.182 291.477 248.313 305.078 252.236C310.79 253.884 316.666 254.718 322.545 254.718C334.476 254.718 346.149 251.312 356.302 244.868L364.23 239.838C364.392 239.733 364.578 239.681 364.766 239.681Z" fill="white"/>
<path d="M304.191 146.189L277.387 142.016L277.804 139.336C278.514 134.775 279.607 131.152 281.085 128.468C282.563 125.784 284.507 123.426 286.919 121.392C289.33 119.36 294.571 115.937 302.642 111.126C306.935 108.614 309.281 106.067 309.684 103.481C310.087 100.895 309.635 98.7662 308.331 97.0932C307.026 95.4202 304.822 94.3432 301.718 93.8592C298.379 93.3392 295.444 94.0152 292.914 95.8832C290.383 97.7532 288.383 101.391 286.915 106.799L260.074 99.1522C262.581 89.2352 267.497 81.7042 274.826 76.5612C282.153 71.4152 292.4 69.8682 305.567 71.9182C315.818 73.5142 323.761 76.9432 329.396 82.2032C337.054 89.3182 340.132 97.6982 338.632 107.336C338.009 111.335 336.304 115.018 333.515 118.389C330.726 121.76 325.506 125.595 317.853 129.893C312.517 132.917 309.049 135.47 307.448 137.557C305.847 139.644 304.762 142.521 304.191 146.189ZM275.36 148.998L304.068 153.467L300.126 178.789L271.418 174.32L275.36 148.998Z" fill="white"/>
<path d="M372.593 185.424L357.711 173.369L358.916 171.881C360.967 169.348 362.92 167.525 364.774 166.411C366.628 165.296 368.651 164.547 370.845 164.161C373.038 163.776 377.451 163.545 384.084 163.471C387.595 163.46 389.931 162.738 391.094 161.302C392.257 159.866 392.737 158.406 392.534 156.923C392.331 155.439 391.367 153.999 389.644 152.603C387.79 151.101 385.759 150.473 383.552 150.716C381.344 150.96 378.833 152.471 376.019 155.252L362.347 141.064C367.394 135.9 373.067 133.047 379.365 132.506C385.663 131.964 392.466 134.654 399.776 140.575C405.467 145.185 409.099 150.096 410.674 155.305C412.825 162.364 411.731 168.572 407.397 173.923C405.599 176.143 403.251 177.786 400.353 178.855C397.455 179.924 392.908 180.413 386.712 180.322C382.382 180.275 379.36 180.603 377.643 181.31C375.925 182.017 374.242 183.388 372.593 185.424ZM353.997 176.913L369.936 189.824L358.548 203.883L342.609 190.972L353.997 176.913Z" fill="white"/>
<path d="M376.753 98.804L370.312 90.009L371.191 89.365C372.688 88.269 374.027 87.549 375.209 87.204C376.391 86.86 377.614 86.741 378.877 86.847C380.14 86.953 382.602 87.467 386.264 88.389C388.198 88.893 389.589 88.834 390.437 88.213C391.286 87.592 391.762 86.858 391.865 86.012C391.968 85.166 391.647 84.234 390.901 83.215C390.099 82.119 389.072 81.478 387.822 81.292C386.571 81.106 384.97 81.573 383.017 82.695L377.551 72.901C381.079 70.791 384.615 70.044 388.16 70.661C391.705 71.277 395.059 73.745 398.223 78.065C400.687 81.429 401.973 84.659 402.083 87.755C402.242 91.953 400.739 95.211 397.577 97.527C396.265 98.488 394.734 99.052 392.984 99.219C391.234 99.386 388.66 98.996 385.263 98.046C382.887 97.392 381.175 97.134 380.128 97.273C379.082 97.412 377.957 97.923 376.753 98.804ZM367.754 91.42L374.653 100.84L366.344 106.925L359.445 97.505L367.754 91.42Z" fill="white"/>
<path d="M128.335 223.574C120.066 223.574 111.748 221.309 104.376 216.916C94.2291 210.869 87.0581 201.496 84.6221 191.131C76.3851 190.538 68.7961 186.493 63.7291 179.972C60.0631 175.254 57.9681 169.627 57.6561 163.675C55.4821 162.197 53.5631 160.397 51.9491 158.32C44.0621 148.17 45.0531 133.921 54.1981 124.984C50.3851 108.727 56.3961 91.671 69.5891 81.42C79.9381 73.377 93.1201 70.5521 105.86 73.6221C107.342 70.2461 109.653 67.2781 112.574 65.0091C117.268 61.3621 123.102 59.761 129.001 60.499C134.9 61.239 140.157 64.2321 143.805 68.9271C144.904 70.3421 145.829 71.8871 146.56 73.5271C158.594 71.557 170.643 76.26 178.135 85.9021C184.835 94.5231 186.852 105.824 183.578 116.232C184.889 117.352 186.079 118.595 187.12 119.936C195.632 130.89 193.645 146.728 182.691 155.241C179.346 157.841 175.389 159.555 171.216 160.218C169.037 168.379 164.365 175.425 157.68 180.619C149.241 187.178 138.434 189.915 127.892 188.197C127.786 197.912 130.044 211.082 140.917 220.498C141.134 220.686 141.231 220.977 141.17 221.259C141.108 221.54 140.898 221.765 140.622 221.845C136.624 223.003 132.485 223.573 128.335 223.574ZM95.7271 73.9811C86.6951 73.9811 77.8851 76.96 70.5521 82.658C57.7281 92.624 51.9491 109.263 55.8291 125.051C55.8961 125.325 55.8111 125.615 55.6051 125.81C46.7451 134.165 45.7061 147.729 53.1881 157.358C54.7781 159.404 56.6841 161.164 58.8521 162.587C59.0641 162.727 59.1961 162.959 59.2061 163.213C59.4301 168.983 61.4231 174.445 64.9691 179.009C69.8781 185.326 77.2881 189.187 85.2991 189.601C85.6531 189.619 85.9501 189.871 86.0251 190.217C88.2341 200.39 95.2161 209.63 105.18 215.569C115.456 221.694 127.632 223.537 138.809 220.712C128.078 210.675 126.084 197.053 126.341 187.246C126.347 187.016 126.454 186.801 126.633 186.656C126.812 186.512 127.044 186.455 127.271 186.495C137.658 188.446 148.39 185.852 156.719 179.382C163.263 174.296 167.797 167.361 169.828 159.326C169.907 159.015 170.165 158.784 170.482 158.741C174.574 158.179 178.463 156.542 181.729 154.004C192 146.022 193.863 131.172 185.882 120.9C184.804 119.513 183.557 118.235 182.173 117.103C181.921 116.897 181.823 116.557 181.925 116.249C185.264 106.198 183.385 95.215 176.897 86.866C169.637 77.523 157.886 73.0481 146.226 75.1781C145.861 75.2451 145.501 75.0471 145.359 74.7051C144.647 72.9781 143.708 71.358 142.567 69.89C139.176 65.527 134.29 62.744 128.807 62.057C123.324 61.365 117.901 62.8581 113.538 66.2481C110.655 68.4891 108.412 71.46 107.051 74.84C106.904 75.205 106.506 75.404 106.128 75.307C102.675 74.418 99.1841 73.9811 95.7271 73.9811Z" fill="#E6E6E6"/>
<path d="M100.595 139.957L86.7822 143.209L86.4572 141.828C85.9042 139.477 85.7212 137.506 85.9092 135.915C86.0972 134.323 86.5762 132.798 87.3442 131.337C88.1132 129.877 89.9792 127.187 92.9452 123.267C94.5312 121.205 95.1672 119.508 94.8542 118.176C94.5402 116.843 93.9032 115.9 92.9412 115.346C91.9792 114.792 90.6992 114.703 89.0992 115.08C87.3782 115.485 86.0892 116.39 85.2302 117.794C84.3712 119.199 84.1182 121.355 84.4712 124.265L69.9562 125.841C69.2202 120.541 70.1212 115.923 72.6612 111.988C75.2002 108.052 79.8622 105.286 86.6482 103.688C91.9312 102.444 96.4562 102.543 100.222 103.984C105.334 105.926 108.475 109.382 109.645 114.349C110.13 116.41 110.028 118.53 109.34 120.713C108.652 122.896 106.876 125.782 104.012 129.371C102.021 131.887 100.842 133.807 100.477 135.133C100.11 136.458 100.15 138.067 100.595 139.957ZM87.1732 146.992L101.967 143.509L105.039 156.558L90.2442 160.041L87.1732 146.992Z" fill="#EBEBEB"/>
<path d="M135.753 110.788L126.168 107.874L126.459 106.916C126.955 105.285 127.542 104.017 128.222 103.112C128.901 102.207 129.735 101.446 130.722 100.827C131.709 100.209 133.803 99.2292 137.003 97.8872C138.703 97.1912 139.693 96.3812 139.974 95.4562C140.255 94.5312 140.201 93.7292 139.81 93.0502C139.419 92.3712 138.669 91.8622 137.559 91.5252C136.365 91.1622 135.257 91.2572 134.235 91.8092C133.213 92.3622 132.293 93.5882 131.476 95.4902L122.057 91.3032C123.487 87.8072 125.675 85.3072 128.622 83.8062C131.568 82.3042 135.395 82.2692 140.104 83.7012C143.77 84.8162 146.497 86.4812 148.285 88.6962C150.717 91.6952 151.408 94.9182 150.36 98.3652C149.925 99.7952 149.111 101.053 147.917 102.142C146.722 103.23 144.615 104.362 141.594 105.538C139.486 106.367 138.086 107.121 137.392 107.802C136.698 108.48 136.152 109.476 135.753 110.788ZM125.065 110.322L135.331 113.443L132.578 122.498L122.312 119.377L125.065 110.322Z" fill="#EBEBEB"/>
<path d="M250 427.561C357.082 427.561 443.889 422.492 443.889 416.238C443.889 409.985 357.082 404.915 250 404.915C142.918 404.915 56.1111 409.985 56.1111 416.238C56.1111 422.492 142.918 427.561 250 427.561Z" fill="#F5F5F5"/>
<path d="M157.612 247.439L156.691 247.048C157.518 245.094 157.994 243.473 158.145 242.093L159.139 242.202C158.977 243.681 158.477 245.393 157.612 247.439ZM157.219 235.983C155.279 231.72 151.672 229.032 146.788 228.209L146.954 227.223C152.18 228.104 156.044 230.991 158.129 235.57L157.219 235.983Z" fill="#0C8C6B"/>
<path d="M151.983 257.497L142.144 261.976L141.696 260.992C140.934 259.318 140.505 257.872 140.409 256.655C140.313 255.438 140.445 254.227 140.802 253.022C141.16 251.818 142.156 249.53 143.789 246.161C144.668 244.385 144.892 243.023 144.46 242.074C144.028 241.125 143.411 240.515 142.611 240.243C141.81 239.972 140.84 240.095 139.701 240.614C138.475 241.172 137.646 242.039 137.213 243.216C136.78 244.393 136.91 246.042 137.606 248.164L126.995 251.494C125.658 247.643 125.647 244.059 126.961 240.742C128.274 237.425 131.347 234.666 136.18 232.466C139.943 230.753 143.338 230.156 146.366 230.673C150.474 231.365 153.333 233.482 154.944 237.019C155.612 238.487 155.851 240.087 155.66 241.82C155.469 243.553 154.571 245.973 152.964 249.08C151.849 251.255 151.253 252.865 151.178 253.91C151.102 254.955 151.37 256.15 151.983 257.497ZM142.999 264.744L153.536 259.947L157.767 269.241L147.23 274.038L142.999 264.744Z" fill="#0C8C6B"/>
<path d="M127.641 279.732L122.636 286.526L121.957 286.026C120.801 285.174 119.959 284.352 119.431 283.558C118.903 282.764 118.532 281.889 118.318 280.931C118.104 279.974 117.913 278.036 117.747 275.117C117.671 273.572 117.306 272.558 116.65 272.075C115.994 271.592 115.342 271.41 114.693 271.53C114.044 271.65 113.43 272.103 112.85 272.889C112.227 273.735 111.991 274.642 112.143 275.609C112.295 276.576 113.011 277.651 114.292 278.833L108.323 285.138C105.948 283.021 104.577 280.581 104.212 277.82C103.846 275.059 104.893 272.009 107.351 268.672C109.265 266.073 111.353 264.375 113.615 263.577C116.679 262.488 119.433 262.843 121.876 264.643C122.89 265.39 123.66 266.39 124.19 267.644C124.719 268.898 125.026 270.89 125.112 273.619C125.179 275.526 125.385 276.85 125.73 277.591C126.073 278.333 126.711 279.047 127.641 279.732ZM124.27 288.089L129.631 280.812L136.05 285.54L130.689 292.817L124.27 288.089Z" fill="#0C8C6B"/>
<path d="M234.088 412.636C232.465 412.636 230.898 411.752 230.101 410.211C226.082 402.448 221.034 393.339 211.947 383.479C210.884 382.327 210.501 380.703 210.935 379.197C214.309 367.486 219.606 351.478 219.659 351.318C220.438 348.964 222.976 347.692 225.327 348.47C227.679 349.248 228.954 351.786 228.175 354.138C228.126 354.286 223.564 368.076 220.252 379.294C228.604 388.767 233.753 397.752 238.068 406.088C239.207 408.287 238.347 410.994 236.147 412.133C235.487 412.475 234.783 412.636 234.088 412.636Z" fill="#0C8C6B"/>
<path d="M241.56 416.238H206.772L225.208 405.781L240.663 406.379L241.56 416.238Z" fill="#263238"/>
<path d="M238.219 374.12C254.056 369.17 263.57 354.519 259.468 341.395C255.367 328.271 239.203 321.644 223.366 326.593C207.53 331.542 198.016 346.194 202.118 359.318C206.219 372.442 222.383 379.069 238.219 374.12Z" fill="#263238"/>
<path d="M151.653 333.981C149.893 333.982 148.222 332.939 147.507 331.211C146.559 328.922 147.646 326.298 149.934 325.35C152.539 324.271 152.902 321.607 152.904 321.58C153.092 319.575 154.593 317.941 156.574 317.585C157.643 317.392 158.676 317.09 159.871 316.74C165.949 314.965 173.475 312.763 197.18 319.402C220.561 306.326 220.827 281.805 220.827 280.747C220.826 278.275 222.825 276.262 225.297 276.253C225.302 276.253 225.307 276.253 225.313 276.253C227.778 276.253 229.782 278.235 229.798 280.702C229.807 282.005 229.661 312.785 199.756 328.201C198.737 328.726 197.558 328.844 196.456 328.523C173.861 321.998 167.499 323.857 162.388 325.351C161.935 325.483 161.476 325.618 161.008 325.747C159.901 328.594 157.597 331.885 153.367 333.638C152.807 333.872 152.225 333.981 151.653 333.981Z" fill="#263238"/>
<path d="M204.081 301.891C195.575 268.066 172.897 180.83 245.548 175.497C310.726 170.712 328.615 257.467 332.963 287.523C335.497 305.04 336.349 320.927 336.497 333.342C336.688 349.357 325.437 363.167 309.742 366.355C274.231 373.567 240.626 374.593 217.993 365.66C211.873 363.244 208.172 357.008 208.76 350.455C209.632 340.738 209.648 324.028 204.081 301.891Z" fill="#0C8C6B"/>
<path opacity="0.1" d="M332.96 287.52C328.863 259.196 312.739 180.478 256.3 175.556C249.732 174.983 243.251 178.216 240.226 184.073C237.708 188.949 237.789 194.864 241.561 200.709C254 220 283.665 286.67 279.185 323C277.145 339.53 266.778 352.728 275.8 371.31C286.69 370.41 298.11 368.72 309.74 366.35C325.44 363.17 336.69 349.36 336.5 333.34C336.35 320.93 335.5 305.04 332.96 287.52Z" fill="black"/>
<path d="M323.239 333.79C322.994 333.79 322.793 333.593 322.79 333.347C322.605 317.895 321.418 302.498 319.261 287.587C308.462 212.935 279.386 175.179 235.164 178.437C234.923 178.466 234.702 178.27 234.684 178.023C234.666 177.776 234.851 177.56 235.099 177.543C279.851 174.242 309.272 212.266 320.149 287.459C322.312 302.409 323.503 317.846 323.688 333.338C323.691 333.585 323.492 333.788 323.245 333.791C323.243 333.79 323.241 333.79 323.239 333.79Z" fill="#263238"/>
<path d="M322.551 376.515C338.388 371.566 347.901 356.914 343.799 343.79C339.698 330.666 323.535 324.039 307.698 328.989C291.861 333.938 282.348 348.589 286.449 361.713C290.551 374.837 306.714 381.464 322.551 376.515Z" fill="#263238"/>
<path d="M325.295 412.636C323.672 412.636 322.105 411.752 321.308 410.211C317.29 402.448 312.241 393.34 303.154 383.479C302.092 382.326 301.709 380.703 302.143 379.197C305.517 367.486 310.814 351.478 310.867 351.318C311.646 348.965 314.18 347.686 316.535 348.47C318.887 349.248 320.162 351.786 319.383 354.138C319.334 354.286 314.772 368.076 311.46 379.294C319.812 388.767 324.961 397.752 329.275 406.088C330.414 408.287 329.554 410.994 327.354 412.133C326.694 412.475 325.99 412.636 325.295 412.636Z" fill="#0C8C6B"/>
<path d="M315.876 275.906C314.262 275.906 312.703 275.033 311.9 273.505C310.751 271.315 311.59 268.609 313.775 267.454C314.64 266.994 334.17 256.319 339.653 230.684C326.632 225.239 303.23 212.946 298.113 206.767C297.617 206.168 297.286 205.452 297.151 204.686C297.031 204.011 296.19 198.707 298.152 193.684L295.79 189.122C294.651 186.922 295.511 184.216 297.711 183.076C299.911 181.94 302.618 182.797 303.757 184.997L307.155 191.56C307.882 192.963 307.816 194.645 306.983 195.988C305.91 197.718 305.777 200.25 305.864 201.9C311.627 207.106 334.904 219.443 346.291 223.67C348.289 224.411 349.489 226.456 349.163 228.562C344.091 261.329 319.023 274.833 317.958 275.391C317.292 275.741 316.579 275.906 315.876 275.906Z" fill="#263238"/>
<path d="M301.566 206.149C301.145 206.149 300.72 206.031 300.341 205.784C299.304 205.106 299.013 203.717 299.691 202.68C299.846 202.443 303.554 196.85 309.194 195.339C310.389 195.016 311.621 195.729 311.941 196.925C312.261 198.121 311.551 199.351 310.355 199.671C306.416 200.727 303.475 205.089 303.446 205.133C303.015 205.791 302.298 206.149 301.566 206.149Z" fill="#263238"/>
<path d="M332.768 416.238H297.979L316.415 405.781L331.871 406.379L332.768 416.238Z" fill="#263238"/>
<path d="M259.917 282.257C273.078 281.091 282.897 270.545 281.848 258.7C280.799 246.855 269.28 238.197 256.119 239.363C242.958 240.528 233.14 251.075 234.188 262.92C235.237 274.765 246.756 283.422 259.917 282.257Z" fill="white"/>
<path d="M258.498 261.115C260.308 267.466 258.944 273.421 255.453 274.416C251.961 275.411 247.664 271.069 245.854 264.718C244.044 258.367 245.408 252.412 248.899 251.417C252.39 250.422 256.689 254.764 258.498 261.115Z" fill="#263238"/>
<path d="M230.795 264.86C245.897 262.916 275.8 254.394 280.734 250.955C276.846 239.592 258.775 229.873 242.606 235.347C228.032 240.282 230.795 264.86 230.795 264.86Z" fill="#263238"/>
<path d="M233.734 272.16C252.476 268.598 276.848 262.617 283.818 258.785C283.388 271.013 279.838 283.4 260.699 287.587C245.062 291.008 233.734 272.16 233.734 272.16Z" fill="#263238"/>
<path d="M218.292 283.909C225.072 279.423 225.966 268.832 220.29 260.253C214.614 251.673 204.516 248.355 197.736 252.84C190.957 257.326 190.062 267.917 195.739 276.496C201.415 285.076 211.512 288.394 218.292 283.909Z" fill="white"/>
<path d="M208.337 268.68C209.474 274.037 208.492 278.506 206.144 278.662C203.795 278.817 200.969 274.601 199.831 269.243C198.694 263.886 199.675 259.417 202.024 259.261C204.373 259.106 207.2 263.322 208.337 268.68Z" fill="#263238"/>
<path d="M189.748 266.628C199.88 267.824 219.998 266.49 223.341 264.661C220.871 254.958 208.887 243.989 197.999 245.396C188.185 246.664 189.748 266.628 189.748 266.628Z" fill="#263238"/>
<path d="M191.63 272.942C204.218 273.515 220.603 273.193 225.314 271.421C224.884 281.027 222.363 290.193 209.502 290.043C198.994 289.919 191.63 272.942 191.63 272.942Z" fill="#263238"/>
<path d="M264.088 229.3C245.203 229.3 232.646 219.97 232.029 219.502C230.055 218.005 229.669 215.191 231.165 213.217C232.66 211.248 235.466 210.86 237.438 212.346C237.655 212.505 252.571 223.382 273.276 219.457C275.712 219 278.058 220.596 278.519 223.028C278.98 225.463 277.381 227.809 274.948 228.271C271.145 228.993 267.511 229.3 264.088 229.3Z" fill="#263238"/>
<path d="M183.878 221.566C183.374 221.567 182.862 221.481 182.361 221.301C180.03 220.463 178.819 217.894 179.656 215.563C182.034 208.944 185.977 204.646 191.376 202.789C201.163 199.418 211.703 205.972 212.147 206.253C214.242 207.576 214.867 210.347 213.544 212.441C212.223 214.53 209.461 215.159 207.368 213.845C205.326 212.574 198.994 209.64 194.268 211.281C191.545 212.227 189.527 214.621 188.099 218.595C187.442 220.427 185.717 221.566 183.878 221.566Z" fill="#263238"/>
<path d="M219.231 297.246C219.107 297.246 218.982 297.229 218.857 297.192C218.15 296.986 217.738 296.259 217.936 295.549C217.97 295.427 218.813 292.522 222.498 290.62C227.644 287.967 235.486 288.516 245.807 292.252C246.506 292.505 246.868 293.277 246.614 293.976C246.361 294.676 245.589 295.039 244.891 294.784C233.057 290.497 226.914 291.424 223.843 292.957C221.162 294.295 220.549 296.206 220.525 296.287C220.346 296.867 219.81 297.246 219.231 297.246Z" fill="#263238"/>
<path d="M176.882 292.32C150.781 294.664 132.096 305.471 132.096 305.471C139.825 304.011 167.451 338.198 174.554 364.565C187.656 359.706 202.936 356.398 219.232 353.814C209.362 326.637 191.313 295.852 176.882 292.32Z" fill="#0C8C6B"/>
<path opacity="0.6" d="M176.882 292.32C150.781 294.664 132.096 305.471 132.096 305.471C139.825 304.011 167.451 338.198 174.554 364.565C187.656 359.706 202.936 356.398 219.232 353.814C209.362 326.637 191.313 295.852 176.882 292.32Z" fill="white"/>
<path d="M176.882 292.32C159.802 290.392 132.071 304.692 132.071 304.692C127.158 307.825 128.491 313.703 131.172 316.182C133.744 312.491 162.405 302.888 173.179 301.6C167.817 296.64 172.798 293.043 176.882 292.32Z" fill="#0C8C6B"/>
<path opacity="0.2" d="M176.882 292.32C159.802 290.392 132.071 304.692 132.071 304.692C127.158 307.825 128.491 313.703 131.172 316.182C133.744 312.491 162.405 302.888 173.179 301.6C167.817 296.64 172.798 293.043 176.882 292.32Z" fill="white"/>
<path d="M151.656 333.981C150.191 333.981 148.756 333.264 147.895 331.946C144.642 326.962 146.674 319.356 147.114 317.883C147.823 315.509 150.321 314.16 152.696 314.869C155.067 315.577 156.416 318.071 155.712 320.442C154.979 322.952 154.83 326.159 155.407 327.044C156.761 329.118 156.177 331.898 154.102 333.252C153.346 333.745 152.496 333.981 151.656 333.981Z" fill="#263238"/>
</svg>
