<svg width="61" height="60" viewBox="0 0 61 60" fill="none" xmlns="http://www.w3.org/2000/svg">
<path d="M30.5 60C47 60 60.5 46.5 60.5 30C60.5 13.5 47 0 30.5 0C14 0 0.5 13.5 0.5 30C0.5 46.5 14 60 30.5 60Z" fill="#D0FBF0"/>
<path d="M30.5003 51.8182C42.5003 51.8182 52.3185 42.0001 52.3185 30.0001C52.3185 18.0001 42.5003 8.18188 30.5003 8.18188C18.5003 8.18188 8.68213 18.0001 8.68213 30.0001C8.68213 42.0001 18.5003 51.8182 30.5003 51.8182Z" fill="#0C8C6B"/>
<path d="M20.8797 29.179H20.8411" stroke="white"/>
<path d="M30.5195 39.1592C28.5483 39.1592 26.7278 38.5435 25.2407 37.4822C25.8279 36.4942 27.7962 33.7859 31.9456 32.1994C32.9966 35.0542 33.5173 37.4773 33.7314 38.5782C32.7344 38.9569 31.6449 39.1592 30.5195 39.1592Z" fill="white" stroke="white"/>
<path fill-rule="evenodd" clip-rule="evenodd" d="M39.9853 31.8256C39.541 34.2017 38.208 36.2687 36.3438 37.679C36.141 37.8335 35.8512 37.7176 35.8029 37.4761C35.6001 36.4329 35.1074 34.1824 34.1608 31.5068C34.0932 31.304 34.2285 31.0818 34.441 31.0528C36.8461 30.7631 38.9518 31.2267 39.7438 31.4392C39.908 31.4971 40.0143 31.6614 39.9853 31.8256Z" fill="white"/>
<path fill-rule="evenodd" clip-rule="evenodd" d="M39.7632 29.8262C38.7779 29.6524 36.2665 29.2853 33.6972 29.5654C33.5427 29.5847 33.4075 29.4978 33.3398 29.3529C33.3012 29.266 33.2722 29.1791 33.2336 29.0921C33.0791 28.7348 32.9149 28.3677 32.7507 28.0103C32.6637 27.8365 32.7507 27.624 32.9245 27.5467C35.6291 26.3779 37.1358 24.8711 37.7251 24.195C37.8699 24.0308 38.1211 24.0405 38.2564 24.2143C39.3671 25.6922 40.0529 27.4984 40.1592 29.4495C40.1688 29.691 39.9757 29.8649 39.7632 29.8262Z" fill="white"/>
<path fill-rule="evenodd" clip-rule="evenodd" d="M36.7206 23.0358C36.2183 23.6443 34.8081 25.0932 32.1325 26.1557C31.978 26.2233 31.7945 26.1557 31.7075 26.0011C30.4712 23.7602 29.1575 21.8767 28.549 21.0267C28.4041 20.8239 28.52 20.5341 28.7615 20.4955C29.3217 20.3989 29.9109 20.3506 30.5098 20.3506C32.8473 20.3506 35.0013 21.1813 36.6723 22.5722C36.8172 22.6784 36.8365 22.8909 36.7206 23.0358Z" fill="white"/>
<path fill-rule="evenodd" clip-rule="evenodd" d="M29.5536 26.9478C25.8928 27.8654 22.6569 27.991 21.4785 28.0103C21.2564 28.0103 21.0922 27.7978 21.1502 27.5853C21.8456 24.8808 23.7001 22.6206 26.1439 21.3745C26.2888 21.2973 26.4723 21.3455 26.5689 21.4808C27.0712 22.1762 28.4331 24.137 29.7661 26.4456C29.8723 26.6387 29.7757 26.8899 29.5536 26.9478Z" fill="white"/>
<path fill-rule="evenodd" clip-rule="evenodd" d="M31.3886 29.6137C31.4756 29.7973 31.3693 30.0194 31.1762 30.087C26.8972 31.4683 24.3375 34.8973 23.5648 36.0757C23.4392 36.2688 23.1688 36.2785 23.0239 36.1046C21.6716 34.4433 20.8506 32.5404 20.8506 30.2319V30.058C20.8506 29.8649 21.0051 29.7103 21.1983 29.72C22.4153 29.7683 26.3852 29.6041 30.5097 28.416C30.6642 28.3677 30.8381 28.445 30.9057 28.5899C31.0699 28.9279 31.2341 29.266 31.3886 29.6137Z" fill="white"/>
</svg>
