<svg width="61" height="60" viewBox="0 0 61 60" fill="none" xmlns="http://www.w3.org/2000/svg">
<path d="M30.5 60C47 60 60.5 46.5 60.5 30C60.5 13.5 47 0 30.5 0C14 0 0.5 13.5 0.5 30C0.5 46.5 14 60 30.5 60Z" fill="#D0FBF0"/>
<path d="M30.5003 51.8182C42.5003 51.8182 52.3185 42.0001 52.3185 30.0001C52.3185 18.0001 42.5003 8.18188 30.5003 8.18188C18.5003 8.18188 8.68213 18.0001 8.68213 30.0001C8.68213 42.0001 18.5003 51.8182 30.5003 51.8182Z" fill="#0C8C6B"/>
<path d="M32.3813 27.1024C32.3813 25.7248 32.8275 24.983 33.3756 24.5665C33.9496 24.1303 34.7268 23.9802 35.5035 23.9802C36.2802 23.9802 37.0574 24.1303 37.6315 24.5665C38.1795 24.983 38.6257 25.7248 38.6257 27.1024V32.8978C38.6257 34.2754 38.1795 35.0172 37.6315 35.4337C37.0574 35.8699 36.2802 36.02 35.5035 36.02C34.7268 36.02 33.9496 35.8699 33.3756 35.4337C32.8275 35.0172 32.3813 34.2754 32.3813 32.8978V27.1024Z" fill="white" stroke="white"/>
<path d="M22.3745 27.1024C22.3745 25.7248 22.8206 24.983 23.3687 24.5665C23.9427 24.1303 24.72 23.9802 25.4967 23.9802C26.2734 23.9802 27.0506 24.1303 27.6246 24.5665C28.1727 24.983 28.6188 25.7248 28.6188 27.1024V32.8978C28.6188 34.2754 28.1727 35.0172 27.6246 35.4337C27.0506 35.8699 26.2734 36.02 25.4967 36.02C24.72 36.02 23.9427 35.8699 23.3687 35.4337C22.8206 35.0172 22.3745 34.2754 22.3745 32.8978V27.1024Z" fill="white" stroke="white"/>
<path d="M31.8814 29.2756H29.1189V30.7245H31.8814V29.2756Z" fill="white"/>
<path d="M40.6422 33.1392C40.2461 33.1392 39.9177 32.8108 39.9177 32.4148V27.5853C39.9177 27.1892 40.2461 26.8608 40.6422 26.8608C41.0382 26.8608 41.3666 27.1892 41.3666 27.5853V32.4148C41.3666 32.8108 41.0382 33.1392 40.6422 33.1392Z" fill="white"/>
<path d="M20.358 33.1392C19.962 33.1392 19.6335 32.8108 19.6335 32.4148V27.5853C19.6335 27.1892 19.962 26.8608 20.358 26.8608C20.754 26.8608 21.0824 27.1892 21.0824 27.5853V32.4148C21.0824 32.8108 20.754 33.1392 20.358 33.1392Z" fill="white"/>
</svg>
